<svg width="80" height="80" viewBox="0 0 80 80" fill="none" xmlns="http://www.w3.org/2000/svg">
<path d="M16.1935 3.57027C16.196 1.99002 17.5656 0.558479 19.1439 0.510593C20.6492 0.475308 22.1545 0.515633 23.6599 0.497991C24.4138 0.510593 25.1954 0.419861 25.9166 0.697097C27.1028 1.12555 27.9598 2.32271 27.9598 3.59043C27.9924 5.19084 27.9522 6.78872 27.9749 8.38913C35.8283 8.35889 43.6766 8.38913 51.53 8.36141C51.5351 6.76604 51.5074 5.17067 51.5351 3.57783C51.5275 1.95474 52.9625 0.510593 54.5784 0.505552C56.423 0.49043 58.2701 0.503032 60.1148 0.500512C61.7206 0.437503 63.2109 1.79596 63.2938 3.40897C63.3365 5.06734 63.2938 6.72572 63.3114 8.38661C66.7694 8.39921 70.2299 8.36393 73.6905 8.38913C76.573 8.38913 79.0861 11.0254 79.0132 13.9061C79.0157 33.4034 79.0132 52.9006 79.0157 72.3978C79.0056 73.2497 79.071 74.1117 78.8775 74.9484C78.4452 76.9848 76.7564 78.6861 74.7233 79.117C73.9719 79.2985 73.1929 79.2556 72.4264 79.2582C50.2232 79.2506 28.0201 79.2657 5.81946 79.2506C3.00229 79.233 0.496741 76.7252 0.489202 73.8974C0.476636 53.8987 0.486689 33.9024 0.484175 13.9036C0.448992 11.7588 1.80606 9.70222 3.75873 8.84783C5.11077 8.20263 6.63371 8.42189 8.07622 8.38661C10.7803 8.34124 13.4869 8.42441 16.191 8.36393C16.1935 6.76604 16.1759 5.16815 16.1935 3.57027ZM19.3298 3.64588C19.3298 6.79881 19.3323 9.94921 19.3298 13.0996C21.1644 13.0996 23.0015 13.1047 24.836 13.0971C24.826 9.94921 24.826 6.7988 24.836 3.65092C23.0015 3.64084 21.1644 3.6484 19.3298 3.64588ZM54.6614 3.65092C54.6714 6.7988 54.6714 9.94921 54.6614 13.0971C56.4959 13.1047 58.333 13.0996 60.1675 13.0996C60.165 9.94921 60.1675 6.79881 60.1675 3.64588C58.3305 3.6484 56.4959 3.64084 54.6614 3.65092ZM3.62554 13.9061C3.61548 28.5341 3.62554 43.1621 3.62051 57.79C3.51245 59.0477 4.53276 60.2902 5.80439 60.3431C8.58135 60.386 11.3583 60.323 14.1353 60.3708C16.8469 60.454 19.2218 62.8382 19.3148 65.5577C19.3524 67.9167 19.3223 70.2782 19.3273 72.6373C19.3474 73.3833 19.2193 74.1923 19.6163 74.8678C20.0536 75.6919 20.9935 76.1733 21.9158 76.1103C39.0928 76.1052 56.2697 76.1128 73.4467 76.1078C74.7635 76.1758 75.9422 74.9812 75.8743 73.6605C75.8743 53.7424 75.8819 33.8217 75.8718 13.9011C75.9145 12.6031 74.7359 11.4564 73.4442 11.5244C70.0641 11.5295 66.6815 11.5118 63.3014 11.5345C63.2812 12.4847 63.4471 13.5003 63.0249 14.3925C62.5323 15.5217 61.3286 16.2903 60.0946 16.2475C58.2576 16.245 56.4205 16.2576 54.586 16.2425C53.3168 16.2324 52.1282 15.3503 51.7135 14.1582C51.4371 13.3088 51.5351 12.4065 51.5451 11.532C43.6817 11.5194 35.8182 11.5194 27.9548 11.532C27.9623 12.5981 28.1156 13.7776 27.5124 14.7252C26.937 15.7082 25.801 16.3004 24.6701 16.25C22.9085 16.2475 21.1493 16.2525 19.3901 16.2475C18.1612 16.2853 16.97 15.5191 16.4724 14.3976C16.0452 13.5029 16.2211 12.4821 16.1935 11.5269C12.7455 11.5269 9.30009 11.5143 5.85213 11.532C4.63329 11.5622 3.58281 12.6838 3.62554 13.9061ZM3.61297 62.9844C3.63559 66.5456 3.61297 70.1043 3.62302 73.6656C3.56271 74.898 4.59056 76.0574 5.82952 76.0977C9.4559 76.1304 13.0823 76.0926 16.7087 76.1153C16.4398 75.4071 16.1985 74.6762 16.1985 73.9126C16.1684 71.2183 16.2035 68.5241 16.1834 65.8299C16.1985 64.5899 15.0953 63.4935 13.8613 63.5112C12.0218 63.496 10.1822 63.5137 8.34261 63.5061C6.75685 63.486 5.09821 63.68 3.61297 62.9844Z" fill="black"/>
<path d="M27.0475 28.9575C28.191 28.5618 29.2515 27.8965 30.4502 27.6873C32.6291 27.6621 34.8104 27.6646 36.9918 27.6873C37.4693 27.6092 37.6176 28.1712 37.5648 28.5341C37.5598 37.1939 37.5723 45.8538 37.5573 54.5111C37.6955 55.0328 37.2205 55.2924 36.7707 55.2621C34.6094 55.2067 32.4381 55.4159 30.2844 55.1664C30.1939 54.6976 30.1462 54.2213 30.1587 53.7449C30.1864 47.303 30.1361 40.8635 30.1839 34.4216C28.7363 34.5174 27.3541 35.0618 25.9066 35.15C25.8412 35.0744 25.7106 34.9231 25.6427 34.85C25.595 33.1639 25.5899 31.4728 25.6452 29.7892C25.9141 29.2675 26.5725 29.202 27.0475 28.9575Z" fill="#FA7A81"/>
<path d="M43.3927 28.9524C44.5311 28.5592 45.5891 27.8964 46.7828 27.6872C48.9566 27.662 51.133 27.667 53.3068 27.6847C53.7918 27.6015 53.9602 28.1635 53.8999 28.5416C53.8999 37.1107 53.8974 45.6798 53.8999 54.2489C53.8522 54.5715 54.013 55.0932 53.5657 55.184C52.9097 55.3528 52.2337 55.194 51.5703 55.2243C49.9217 55.2822 48.263 55.3553 46.6195 55.1638C46.5516 54.7782 46.4888 54.3901 46.4963 53.9994C46.5189 47.4718 46.4762 40.9441 46.5164 34.4165C45.0764 34.5248 43.6993 35.0516 42.2618 35.1524C42.1889 35.0793 42.0482 34.9331 41.9778 34.86C41.93 33.1714 41.925 31.4753 41.9803 29.7892C42.2492 29.2649 42.9152 29.2019 43.3927 28.9524Z" fill="#FA7A81"/>
</svg>
