<svg width="18" height="18" viewBox="0 0 18 18" fill="none" xmlns="http://www.w3.org/2000/svg">
<path fill-rule="evenodd" clip-rule="evenodd" d="M1.18202 9.66703C1.08826 9.57326 1.03558 9.44608 1.03558 9.31348C1.03558 9.18087 1.08826 9.05369 1.18202 8.95992L5.42467 4.71728C5.51843 4.62351 5.64561 4.57084 5.77822 4.57084C5.91083 4.57084 6.038 4.62351 6.13177 4.71728C6.22554 4.81105 6.27822 4.93823 6.27822 5.07084C6.27822 5.20344 6.22554 5.33062 6.13177 5.42439L2.74261 8.81355L17.0919 8.81284C17.1577 8.81284 17.2228 8.82579 17.2835 8.85095C17.3442 8.87611 17.3994 8.91299 17.4459 8.95948C17.4924 9.00596 17.5293 9.06115 17.5545 9.12189C17.5796 9.18263 17.5926 9.24773 17.5926 9.31348C17.5926 9.37922 17.5796 9.44432 17.5545 9.50506C17.5293 9.5658 17.4924 9.62099 17.4459 9.66748C17.3994 9.71396 17.3442 9.75084 17.2835 9.776C17.2228 9.80116 17.1577 9.81411 17.0919 9.81411L2.74261 9.8134L6.13177 13.2026C6.22554 13.2963 6.27822 13.4235 6.27822 13.5561C6.27822 13.6887 6.22554 13.8159 6.13177 13.9097C6.038 14.0034 5.91083 14.0561 5.77822 14.0561C5.64561 14.0561 5.51843 14.0034 5.42467 13.9097L1.18202 9.66703Z" fill="#704F3B"/>
</svg>
