<svg width="32" height="32" viewBox="0 0 32 32" fill="none" xmlns="http://www.w3.org/2000/svg">
<path d="M16 32C7.17733 32 0 24.8227 0 16C0 7.17733 7.17733 0 16 0C24.8227 0 32 7.17733 32 16C32 24.8227 24.8227 32 16 32ZM16 1.33333C7.91333 1.33333 1.33333 7.91333 1.33333 16C1.33333 24.0867 7.91333 30.6667 16 30.6667C24.0867 30.6667 30.6667 24.0867 30.6667 16C30.6667 7.91333 24.0867 1.33333 16 1.33333Z" fill="#9F5CC8"/>
<path d="M23.1599 22.6665H8.83995C8.51461 22.6665 8.23728 22.4318 8.18261 22.1118L6.67595 13.2225C6.63461 12.9745 6.73461 12.7252 6.93461 12.5758C7.13461 12.4265 7.40128 12.3998 7.62795 12.5132L11.9546 14.6465L15.4159 8.34516C15.6493 7.92116 16.3506 7.92116 16.5839 8.34516L20.0453 14.6465L24.3719 12.5132C24.5973 12.3998 24.8653 12.4265 25.0653 12.5758C25.2653 12.7252 25.3666 12.9758 25.3239 13.2225L23.8173 22.1118C23.7626 22.4318 23.4839 22.6665 23.1599 22.6665ZM9.40395 21.3332H22.5973L23.7919 14.2852L20.0639 16.1238C19.7426 16.2838 19.3559 16.1598 19.1853 15.8478L15.9999 10.0505L12.8159 15.8478C12.6453 16.1598 12.2599 16.2838 11.9373 16.1238L8.20928 14.2852L9.40395 21.3332Z" fill="#9F5CC8"/>
</svg>
