<svg width="18" height="18" viewBox="0 0 18 18" fill="none" xmlns="http://www.w3.org/2000/svg">
<g clip-path="url(#clip0_1518_142)">
<path d="M7.24889 5.61966e-08C8.61899 -0.0001705 9.96109 0.38789 11.1197 1.11922C12.2783 1.85054 13.2059 2.89519 13.7951 4.13212C14.3843 5.36905 14.611 6.74762 14.4488 8.10808C14.2867 9.46855 13.7423 10.7552 12.8789 11.819L17.7789 16.719C17.9134 16.8527 17.9923 17.0323 17.9997 17.2218C18.0071 17.4113 17.9425 17.5966 17.8188 17.7403C17.695 17.8841 17.5215 17.9756 17.333 17.9965C17.1445 18.0174 16.9551 17.9661 16.8029 17.853L16.7189 17.78L11.8179 12.88C10.9168 13.6111 9.85332 14.1153 8.71691 14.35C7.58051 14.5848 6.40434 14.5434 5.28726 14.2293C4.17019 13.9151 3.14484 13.3374 2.29738 12.5447C1.44993 11.752 0.805132 10.7675 0.417179 9.67385C0.0292265 8.58021 -0.0905459 7.40943 0.0679275 6.25989C0.226401 5.11035 0.65849 4.01565 1.32788 3.06778C1.99727 2.1199 2.88441 1.34655 3.91474 0.812724C4.94507 0.278894 6.08848 0.000178069 7.24889 5.61966e-08ZM7.24889 1.5C6.49379 1.5 5.74608 1.64873 5.04846 1.93769C4.35084 2.22666 3.71696 2.6502 3.18303 3.18414C2.64909 3.71807 2.22555 4.35195 1.93658 5.04957C1.64762 5.74719 1.49889 6.4949 1.49889 7.25C1.49889 8.0051 1.64762 8.75281 1.93658 9.45043C2.22555 10.1481 2.64909 10.7819 3.18303 11.3159C3.71696 11.8498 4.35084 12.2733 5.04846 12.5623C5.74608 12.8513 6.49379 13 7.24889 13C8.77388 13 10.2364 12.3942 11.3148 11.3159C12.3931 10.2375 12.9989 8.77499 12.9989 7.25C12.9989 5.72501 12.3931 4.26247 11.3148 3.18414C10.2364 2.1058 8.77388 1.5 7.24889 1.5Z" fill="#704F3B"/>
</g>
<defs>
<clipPath id="clip0_1518_142">
<path d="M0 3C0 1.34315 1.34315 0 3 0H15C16.6569 0 18 1.34315 18 3V15C18 16.6569 16.6569 18 15 18H3C1.34315 18 0 16.6569 0 15V3Z" fill="white"/>
</clipPath>
</defs>
</svg>
