<svg width="12" height="12" viewBox="0 0 12 12" fill="none" xmlns="http://www.w3.org/2000/svg">
<path d="M11.129 0.735917C10.9837 0.746214 10.8411 0.779419 10.7068 0.834234H10.7049C10.576 0.884054 9.9627 1.13536 9.03035 1.51628L5.68932 2.88699C3.29193 3.87017 0.935284 4.83835 0.935284 4.83835L0.963345 4.82777C0.963345 4.82777 0.800864 4.87979 0.631142 4.9931C0.526289 5.05809 0.436062 5.14314 0.365922 5.24308C0.282645 5.36212 0.215662 5.5442 0.240554 5.73246C0.281288 6.05078 0.493101 6.24168 0.645172 6.34705C0.799054 6.45375 0.945693 6.50357 0.945693 6.50357H0.949314L3.15932 7.22882C3.25844 7.53876 3.83278 9.37814 3.97082 9.80183C4.05229 10.0549 4.13149 10.2132 4.23061 10.334C4.27858 10.3957 4.33471 10.4473 4.40214 10.4887C4.4372 10.5086 4.47458 10.5243 4.51348 10.5355L4.49085 10.5302C4.49764 10.5319 4.50307 10.5372 4.50805 10.539C4.52615 10.5438 4.53837 10.5456 4.56146 10.5491C4.91131 10.6523 5.19237 10.4407 5.19237 10.4407L5.20821 10.4283L6.51303 9.271L8.69996 10.9054L8.74975 10.9261C9.20551 11.121 9.66715 11.0125 9.9111 10.8212C10.1569 10.6285 10.2524 10.382 10.2524 10.382L10.2682 10.3424L11.9582 1.90867C12.0062 1.70057 12.0184 1.5057 11.9654 1.31656C11.9108 1.12514 11.7847 0.960507 11.6119 0.854956C11.4669 0.769034 11.2986 0.727562 11.129 0.735917ZM11.0833 1.63973C11.0815 1.66751 11.0869 1.66442 11.0743 1.71777V1.72262L9.40012 10.0686C9.39288 10.0805 9.38066 10.1065 9.34717 10.1325C9.31187 10.1598 9.28381 10.177 9.13671 10.1201L6.46189 8.1225L4.84614 9.55713L5.18558 7.4453L9.55581 3.47734C9.73595 3.31421 9.67575 3.27982 9.67575 3.27982C9.68842 3.07966 9.40374 3.22118 9.40374 3.22118L3.89298 6.54678L3.89117 6.53796L1.24984 5.67162V5.66986L1.24305 5.66853C1.24768 5.66703 1.25221 5.66527 1.25662 5.66324L1.27111 5.65619L1.28514 5.65134C1.28514 5.65134 3.6436 4.68316 6.04098 3.69998C7.24126 3.20752 8.45058 2.71152 9.38066 2.32883C10.3107 1.94835 10.9982 1.66927 11.0371 1.65428C11.0743 1.64017 11.0566 1.63973 11.0833 1.63973Z" fill="#2DD9FF"/>
</svg>
