<svg width="75" height="19" viewBox="0 0 75 19" fill="none" xmlns="http://www.w3.org/2000/svg">
<path d="M19.9143 6.55444H27.4699V7.96101H24.495V15.8901H22.8644V7.96101H19.9019L19.9143 6.55444ZM27.1463 9.13107H28.5404V10.4381H28.5653C28.6151 10.2513 28.7022 10.0771 28.8267 9.90282C28.9512 9.72855 29.1006 9.56673 29.2873 9.42981C29.4615 9.28044 29.6607 9.16842 29.8847 9.08128C30.0964 8.99415 30.3204 8.94436 30.5445 8.94436C30.7187 8.94436 30.8432 8.95681 30.9054 8.95681C30.9677 8.96926 31.0424 8.9817 31.1046 8.9817V10.4132C31.005 10.3883 30.893 10.3758 30.781 10.3634C30.6689 10.3509 30.5694 10.3385 30.4573 10.3385C30.2084 10.3385 29.9719 10.3883 29.7478 10.4878C29.5238 10.5874 29.3371 10.7368 29.1628 10.9235C29.001 11.1227 28.8641 11.3592 28.7645 11.6455C28.6649 11.9318 28.6151 12.2678 28.6151 12.6413V15.8527H27.1214L27.1463 9.13107ZM37.9507 15.8901H36.4819V14.9441H36.457C36.2703 15.2926 35.9965 15.554 35.6355 15.7656C35.2745 15.9772 34.9011 16.0768 34.5277 16.0768C33.6439 16.0768 32.9966 15.8652 32.5983 15.4171C32.2 14.9814 32.0008 14.3092 32.0008 13.4255V9.13107H33.4945V13.2761C33.4945 13.8736 33.6065 14.2968 33.843 14.5333C34.0671 14.7822 34.3907 14.9067 34.8015 14.9067C35.1127 14.9067 35.3741 14.8569 35.5857 14.7573C35.7973 14.6578 35.9716 14.5333 36.096 14.3715C36.233 14.2097 36.3201 14.0105 36.3823 13.7864C36.4446 13.5624 36.4695 13.3134 36.4695 13.052V9.13107H37.9632V15.8901H37.9507ZM40.49 13.7242C40.5398 14.1599 40.7016 14.4586 40.9879 14.6453C41.2742 14.8196 41.6227 14.9067 42.021 14.9067C42.158 14.9067 42.3198 14.8943 42.4941 14.8694C42.6683 14.8445 42.8426 14.8071 42.992 14.7449C43.1538 14.6827 43.2783 14.5955 43.3778 14.471C43.4774 14.3466 43.5272 14.1972 43.5147 14.0105C43.5023 13.8238 43.4401 13.662 43.3031 13.5375C43.1662 13.413 43.0044 13.3259 42.8052 13.2387C42.6061 13.1641 42.3696 13.1018 42.1082 13.052C41.8468 13.0022 41.5854 12.94 41.3115 12.8778C41.0377 12.8155 40.7639 12.7408 40.5025 12.6537C40.2411 12.5666 40.017 12.4546 39.8054 12.2927C39.6062 12.1434 39.432 11.9567 39.3199 11.7202C39.1955 11.4837 39.1332 11.2098 39.1332 10.8613C39.1332 10.4878 39.2204 10.1891 39.4071 9.94016C39.5813 9.69121 39.8178 9.49205 40.0917 9.34268C40.3655 9.19331 40.6767 9.08128 41.0128 9.01905C41.3489 8.95681 41.6725 8.93191 41.9713 8.93191C42.3198 8.93191 42.6559 8.96926 42.9671 9.04394C43.2782 9.11863 43.577 9.23065 43.8259 9.40492C44.0873 9.56674 44.2989 9.79079 44.4608 10.0522C44.635 10.3136 44.7346 10.6372 44.7844 11.0106H43.2285C43.1538 10.6497 42.992 10.4132 42.743 10.2887C42.4816 10.1642 42.1953 10.102 41.8592 10.102C41.7597 10.102 41.6227 10.1144 41.4858 10.1269C41.3364 10.1518 41.212 10.1767 41.075 10.2265C40.9506 10.2762 40.8385 10.3509 40.7514 10.4381C40.6643 10.5252 40.6145 10.6497 40.6145 10.799C40.6145 10.9857 40.6767 11.1227 40.8012 11.2347C40.9257 11.3467 41.0875 11.4339 41.2991 11.521C41.4983 11.5957 41.7348 11.6579 41.9962 11.7077C42.2576 11.7575 42.5314 11.8197 42.8052 11.882C43.0791 11.9442 43.3405 12.0189 43.6019 12.106C43.8633 12.1932 44.0998 12.3052 44.2989 12.467C44.4981 12.6164 44.6724 12.8031 44.7968 13.0271C44.9213 13.2512 44.9836 13.5375 44.9836 13.8611C44.9836 14.2594 44.8964 14.5955 44.7097 14.8818C44.523 15.1557 44.2865 15.3922 44.0002 15.5664C43.7139 15.7407 43.3778 15.8652 43.0293 15.9523C42.6683 16.027 42.3198 16.0768 41.9713 16.0768C41.548 16.0768 41.1497 16.027 40.7887 15.9274C40.4278 15.8278 40.1041 15.6785 39.8427 15.4917C39.5813 15.2926 39.3697 15.0561 39.2204 14.7573C39.071 14.471 38.9839 14.1225 38.9714 13.7118H40.4776V13.7242H40.49ZM45.4068 9.13107H46.5395V7.08968H48.0332V9.11862H49.3775V10.2265H48.0332V13.8362C48.0332 13.998 48.0456 14.1225 48.0581 14.247C48.0705 14.359 48.1079 14.4586 48.1452 14.5333C48.195 14.608 48.2697 14.6702 48.3568 14.7076C48.4564 14.7449 48.5809 14.7698 48.7551 14.7698C48.8547 14.7698 48.9668 14.7698 49.0663 14.7573C49.1659 14.7449 49.2779 14.7324 49.3775 14.7076V15.8652C49.2157 15.8901 49.0539 15.9025 48.8921 15.915C48.7302 15.9399 48.5809 15.9399 48.4066 15.9399C48.0083 15.9399 47.6971 15.9025 47.4606 15.8278C47.2241 15.7531 47.0374 15.6411 46.9005 15.5042C46.7635 15.3548 46.6764 15.1806 46.6266 14.9689C46.5768 14.7573 46.5519 14.4959 46.5395 14.2221V10.2389H45.4068V9.10618V9.13107ZM50.4231 9.13107H51.8297V10.0522H51.8546C52.0662 9.65387 52.3525 9.38002 52.7259 9.20576C53.0993 9.03149 53.4976 8.94436 53.9458 8.94436C54.481 8.94436 54.9416 9.03149 55.3399 9.23065C55.7382 9.41737 56.0618 9.66631 56.3232 10.0024C56.5846 10.326 56.7838 10.7119 56.9083 11.1476C57.0327 11.5832 57.1074 12.0562 57.1074 12.5417C57.1074 13.0022 57.0452 13.4379 56.9332 13.8611C56.8087 14.2843 56.6344 14.6702 56.3979 14.9938C56.1614 15.3175 55.8627 15.5789 55.4892 15.778C55.1158 15.9772 54.6926 16.0768 54.1947 16.0768C53.9831 16.0768 53.759 16.0519 53.5474 16.0145C53.3358 15.9772 53.1242 15.915 52.9251 15.8278C52.7259 15.7407 52.5392 15.6287 52.3774 15.4917C52.2031 15.3548 52.0662 15.193 51.9542 15.0187H51.9293V18.392H50.4356V9.13107H50.4231ZM55.6386 12.5168C55.6386 12.2181 55.6013 11.9193 55.5141 11.633C55.4394 11.3467 55.315 11.0978 55.1532 10.8737C54.9913 10.6497 54.7922 10.4754 54.5681 10.3385C54.3316 10.2016 54.0578 10.1393 53.759 10.1393C53.1367 10.1393 52.6637 10.3509 52.34 10.7866C52.0288 11.2223 51.867 11.8073 51.867 12.5292C51.867 12.8778 51.9044 13.189 51.9915 13.4752C52.0786 13.7615 52.1907 14.0105 52.3649 14.2221C52.5267 14.4337 52.7259 14.5955 52.9624 14.72C53.1989 14.8445 53.4603 14.9067 53.7715 14.9067C54.12 14.9067 54.3939 14.832 54.6304 14.6951C54.8669 14.5582 55.0536 14.3715 55.2154 14.1599C55.3648 13.9358 55.4768 13.6869 55.539 13.4006C55.6013 13.1018 55.6386 12.8155 55.6386 12.5168ZM58.265 6.55444H59.7587V7.96101H58.265V6.55444ZM58.265 9.13107H59.7587V15.8901H58.265V9.13107ZM61.0906 6.55444H62.5843V15.8901H61.0906V6.55444ZM67.1401 16.0768C66.6048 16.0768 66.1194 15.9896 65.6962 15.8029C65.273 15.6162 64.9244 15.3797 64.6257 15.0685C64.3394 14.7573 64.1154 14.3715 63.966 13.9358C63.8166 13.5001 63.7295 13.0147 63.7295 12.5043C63.7295 11.994 63.8042 11.521 63.966 11.0853C64.1154 10.6497 64.3394 10.2762 64.6257 9.95261C64.912 9.64142 65.273 9.39247 65.6962 9.21821C66.1194 9.04394 66.6048 8.94436 67.1401 8.94436C67.6753 8.94436 68.1608 9.03149 68.584 9.21821C69.0072 9.39247 69.3557 9.64142 69.6545 9.95261C69.9408 10.2638 70.1648 10.6497 70.3142 11.0853C70.4636 11.521 70.5507 11.994 70.5507 12.5043C70.5507 13.0271 70.476 13.5001 70.3142 13.9358C70.1524 14.3715 69.9408 14.7449 69.6545 15.0685C69.3682 15.3797 69.0072 15.6287 68.584 15.8029C68.1608 15.9772 67.6878 16.0768 67.1401 16.0768ZM67.1401 14.8943C67.4637 14.8943 67.7625 14.8196 67.999 14.6827C68.2479 14.5457 68.4346 14.359 68.5965 14.135C68.7583 13.9109 68.8703 13.6495 68.945 13.3757C69.0197 13.0894 69.057 12.8031 69.057 12.5043C69.057 12.2181 69.0197 11.9318 68.945 11.6455C68.8703 11.3592 68.7583 11.1102 68.5965 10.8862C68.4346 10.6621 68.2355 10.4879 67.999 10.3509C67.75 10.214 67.4637 10.1393 67.1401 10.1393C66.8165 10.1393 66.5177 10.214 66.2812 10.3509C66.0323 10.4879 65.8456 10.6746 65.6837 10.8862C65.5219 11.1102 65.4099 11.3592 65.3352 11.6455C65.2605 11.9318 65.2232 12.2181 65.2232 12.5043C65.2232 12.8031 65.2605 13.0894 65.3352 13.3757C65.4099 13.662 65.5219 13.9109 65.6837 14.135C65.8456 14.359 66.0447 14.5457 66.2812 14.6827C66.5302 14.832 66.8165 14.8943 67.1401 14.8943ZM70.9988 9.13107H72.1315V7.08968H73.6252V9.11862H74.9696V10.2265H73.6252V13.8362C73.6252 13.998 73.6377 14.1225 73.6501 14.247C73.6626 14.359 73.6999 14.4586 73.7373 14.5333C73.7871 14.608 73.8617 14.6702 73.9489 14.7076C74.0485 14.7449 74.1729 14.7698 74.3472 14.7698C74.4468 14.7698 74.5588 14.7698 74.6584 14.7573C74.758 14.7449 74.87 14.7324 74.9696 14.7076V15.8652C74.8077 15.8901 74.6459 15.9025 74.4841 15.915C74.3223 15.9399 74.1729 15.9399 73.9987 15.9399C73.6003 15.9399 73.2892 15.9025 73.0527 15.8278C72.8161 15.7531 72.6294 15.6411 72.4925 15.5042C72.3556 15.3548 72.2685 15.1806 72.2187 14.9689C72.1689 14.7573 72.144 14.4959 72.1315 14.2221V10.2389H70.9988V9.10618V9.13107Z" fill="white"/>
<path d="M18.1715 6.55423H11.3378L9.23418 0.0566406L7.1181 6.55423L0.284424 6.54179L5.81112 10.5623L3.69504 17.0599L9.22173 13.0394L14.7484 17.0599L12.6448 10.5623L18.1715 6.55423Z" fill="#00B67A"/>
<path d="M13.118 12.0311L12.645 10.5623L9.23438 13.0393L13.118 12.0311Z" fill="#005128"/>
</svg>
