<svg width="20" height="20" viewBox="0 0 20 20" fill="none" xmlns="http://www.w3.org/2000/svg">
<path d="M19.2836 7.27584L13.3328 6.411L10.6727 1.01803C10.6 0.87037 10.4805 0.750839 10.3328 0.678183C9.96251 0.49537 9.51251 0.647714 9.32736 1.01803L6.6672 6.411L0.71642 7.27584C0.552357 7.29928 0.402357 7.37662 0.287513 7.49381C0.148674 7.63651 0.0721667 7.8285 0.0748035 8.02758C0.0774404 8.22666 0.159005 8.41655 0.301576 8.55553L4.60704 12.7532L3.58986 18.6805C3.566 18.8184 3.58126 18.9602 3.6339 19.0899C3.68654 19.2195 3.77445 19.3318 3.88767 19.4141C4.00089 19.4963 4.13489 19.5452 4.27447 19.5551C4.41404 19.5651 4.55362 19.5357 4.67736 19.4704L10 16.6719L15.3227 19.4704C15.468 19.5477 15.6367 19.5735 15.7985 19.5454C16.2063 19.4751 16.4805 19.0883 16.4102 18.6805L15.393 12.7532L19.6985 8.55553C19.8156 8.44068 19.893 8.29068 19.9164 8.12662C19.9797 7.71646 19.6938 7.33678 19.2836 7.27584Z" fill="#FFD75D"/>
</svg>
