<svg width="64" height="45" viewBox="0 0 64 45" fill="none" xmlns="http://www.w3.org/2000/svg">
<path d="M5.42786 3.44422C8.09624 1.23675 11.5698 0.00710922 15.0433 0.0721584C18.1248 0.0553715 21.1768 1.14652 23.6112 3.01196C27.2871 5.81537 29.5318 10.3206 29.6372 14.9181C29.6499 21.146 28.2356 27.5208 24.7494 32.7646C21.0124 38.4763 14.9948 42.4926 8.46509 44.3706C7.20678 44.7148 5.77563 44.1734 5.0864 43.0655C4.30865 41.9303 4.44144 40.3082 5.36673 39.2968C8.05409 36.2626 10.3241 32.8443 11.8712 29.0946C8.72013 28.442 5.77352 26.7969 3.67212 24.3586C1.35783 21.7125 0.0278562 18.2188 0.0805494 14.7061C0.0615798 10.4087 2.09132 6.1637 5.42786 3.44422ZM9.66228 5.60553C7.60092 6.76803 5.94636 8.63347 5.06111 10.8221C3.91662 13.5856 4.05151 16.8381 5.42153 19.4988C6.81896 22.2917 9.52107 24.3985 12.5857 25.0594C13.57 25.2567 14.4911 25.7666 15.1255 26.5493C16.0951 27.674 16.3227 29.3485 15.7452 30.7061C14.5649 33.6543 12.9314 36.4053 11.0555 38.9674C15.2752 37.0998 19.0143 34.0677 21.4592 30.1438C24.2878 25.691 25.388 20.3528 25.426 15.1384C25.388 11.1641 23.1328 7.23176 19.5602 5.3873C16.5103 3.77996 12.6447 3.90167 9.66228 5.60553Z" fill="black"/>
<path d="M45.6138 0.350283C49.0178 -0.340078 52.6789 0.195004 55.6845 1.95553C60.2583 4.56379 63.2049 9.68379 63.2808 14.9171C63.3314 21.124 61.8981 27.4758 58.4457 32.7091C54.6749 38.4817 48.5941 42.5609 41.9801 44.4012C40.511 44.7495 38.9197 43.8451 38.4307 42.4371C38.026 41.369 38.2768 40.1016 39.0567 39.2644C41.7293 36.2364 43.9909 32.8266 45.5337 29.0894C42.5429 28.4746 39.729 26.9722 37.6614 24.7185C35.1405 22.041 33.7073 18.3878 33.7241 14.7199C33.7494 11.7549 34.6726 8.79618 36.3862 6.36628C38.5276 3.2733 41.9126 1.07002 45.6138 0.350283ZM45.7803 4.59946C42.897 5.35277 40.3951 7.40077 39.0693 10.0573C37.8553 12.4452 37.5939 15.3053 38.4159 17.859C39.3728 21.0023 41.8937 23.6169 45.0047 24.7059C45.9405 25.0501 46.9923 25.1109 47.829 25.6964C49.374 26.6532 50.1454 28.7138 49.5047 30.4303C48.3265 33.4897 46.6445 36.3435 44.6969 38.979C47.8332 37.5752 50.7166 35.5692 52.9866 32.9861C56.6962 28.846 58.551 23.342 58.9642 17.8695C59.0717 16.1279 59.2044 14.3442 58.7681 12.632C58.081 9.74044 56.2262 7.107 53.6274 5.61297C51.2941 4.22595 48.3939 3.91959 45.7803 4.59946Z" fill="black"/>
</svg>
