<svg width="18" height="18" viewBox="0 0 18 18" fill="none" xmlns="http://www.w3.org/2000/svg">
<path fill-rule="evenodd" clip-rule="evenodd" d="M16.818 9.66703C16.9117 9.57326 16.9644 9.44608 16.9644 9.31348C16.9644 9.18087 16.9117 9.05369 16.818 8.95992L12.5753 4.71728C12.4816 4.62351 12.3544 4.57084 12.2218 4.57084C12.0892 4.57084 11.962 4.62351 11.8682 4.71728C11.7745 4.81105 11.7218 4.93823 11.7218 5.07084C11.7218 5.20344 11.7745 5.33062 11.8682 5.42439L15.2574 8.81355L0.908073 8.81284C0.842329 8.81284 0.777229 8.82579 0.71649 8.85095C0.65575 8.87611 0.600561 8.91299 0.554073 8.95948C0.507585 9.00596 0.470709 9.06115 0.44555 9.12189C0.420391 9.18263 0.407441 9.24773 0.407441 9.31348C0.407441 9.37922 0.420391 9.44432 0.44555 9.50506C0.470709 9.5658 0.507585 9.62099 0.554073 9.66748C0.600561 9.71396 0.65575 9.75084 0.71649 9.776C0.777229 9.80116 0.842329 9.81411 0.908073 9.81411L15.2574 9.8134L11.8682 13.2026C11.7745 13.2963 11.7218 13.4235 11.7218 13.5561C11.7218 13.6887 11.7745 13.8159 11.8682 13.9097C11.962 14.0034 12.0892 14.0561 12.2218 14.0561C12.3544 14.0561 12.4816 14.0034 12.5753 13.9097L16.818 9.66703Z" fill="#704F3B"/>
</svg>
