<svg width="13" height="12" viewBox="0 0 13 12" fill="none" xmlns="http://www.w3.org/2000/svg">
<path d="M9.46982 7.15612C9.32019 7.08037 8.5914 6.72475 8.4552 6.674C8.31899 6.62548 8.22011 6.60011 8.12084 6.74975C8.02382 6.89565 7.73798 7.22963 7.65066 7.32703C7.56334 7.42442 7.47751 7.43189 7.33012 7.36584C7.18048 7.29009 6.70246 7.13448 6.13488 6.62548C5.69156 6.23105 5.39639 5.7452 5.3087 5.59556C5.22138 5.44779 5.299 5.3642 5.37288 5.29031C5.4408 5.2224 5.52252 5.1194 5.59827 5.02985C5.67029 4.94029 5.69343 4.88021 5.74604 4.78319C5.79456 4.67833 5.76955 4.5966 5.73261 4.52272C5.69567 4.44883 5.39826 3.71632 5.27399 3.4245C5.15533 3.13493 5.03107 3.17187 4.93964 3.17187C4.85419 3.16404 4.75493 3.16404 4.65604 3.16404C4.55715 3.16404 4.39557 3.20098 4.25937 3.34278C4.12316 3.49242 3.73843 3.84991 3.73843 4.5731C3.73843 5.29815 4.27094 5.99969 4.34482 6.10455C4.42057 6.20157 5.39229 7.69422 6.88307 8.33568C7.23869 8.48532 7.51483 8.57488 7.73052 8.64877C8.08614 8.76146 8.41079 8.74579 8.66715 8.70885C8.95076 8.6622 9.54558 8.34912 9.67021 7.99947C9.79671 7.64757 9.79671 7.35614 9.75977 7.29009C9.72283 7.22217 9.62581 7.18523 9.47617 7.11918L9.46982 7.15612ZM6.76627 10.8217H6.75843C5.8759 10.8217 5.00345 10.5825 4.24146 10.1354L4.06271 10.0287L2.1969 10.5146L2.69843 8.69914L2.5779 8.51256C2.08513 7.72906 1.8237 6.82229 1.82374 5.8967C1.82374 3.18755 4.04144 0.977683 6.77 0.977683C8.09174 0.977683 9.33175 1.49265 10.2647 2.42555C10.7249 2.88028 11.0899 3.42211 11.3385 4.01942C11.5871 4.61673 11.7142 5.25757 11.7125 5.90454C11.7088 8.61182 9.49296 10.8217 6.76813 10.8217H6.76627ZM10.974 1.71617C9.83888 0.619822 8.34623 0 6.75843 0C3.48357 0 0.816952 2.65505 0.815086 5.91797C0.815086 6.95984 1.08712 7.97633 1.60805 8.87602L0.764709 11.9412L3.91718 11.1191C4.79049 11.5899 5.76665 11.8376 6.7588 11.84H6.76067C10.0374 11.84 12.704 9.185 12.7059 5.91984C12.7059 4.33987 12.0898 2.85282 10.9666 1.7352L10.974 1.71617Z" fill="#57E426"/>
</svg>
