<svg width="19" height="22" viewBox="0 0 19 22" fill="none" xmlns="http://www.w3.org/2000/svg">
<path d="M13 1C13.363 3.18 11.088 4.83 9.816 5.571C9.441 5.79 9.017 5.511 9.082 5.082C9.299 3.64 10.094 1 13 1Z" stroke="white" stroke-width="1.5"/>
<path d="M6 5.5C6.897 5.5 7.69 5.7 8.294 5.92C9.056 6.199 9.944 6.199 10.706 5.92C11.4404 5.64757 12.2167 5.50543 13 5.5C14.085 5.5 15.465 6.089 16.5 7.267C13 10 14 14.5 17.269 15.692C16.225 18.559 14.241 20.5 12.499 20.5C10.999 20.5 11 19.8 9.5 19.8C8 19.8 8 20.5 6.5 20.5C4 20.5 1 16.5 1 11.5C1 7.5 4 5.5 6 5.5V5.5Z" stroke="white" stroke-width="1.5"/>
</svg>
