<svg width="15" height="15" viewBox="0 0 15 15" fill="none" xmlns="http://www.w3.org/2000/svg">
<path d="M7.49798 4.99894C6.12083 4.99894 4.99697 6.12282 4.99697 7.5C4.99697 8.87718 6.12083 10.0011 7.49798 10.0011C8.87514 10.0011 9.999 8.87718 9.999 7.5C9.999 6.12282 8.87514 4.99894 7.49798 4.99894ZM14.9992 7.5C14.9992 6.4643 15.0085 5.43798 14.9504 4.40416C14.8922 3.20335 14.6183 2.13763 13.7402 1.25953C12.8603 0.379564 11.7964 0.107505 10.5956 0.049341C9.55996 -0.00882328 8.53366 0.000558085 7.49986 0.000558085C6.46418 0.000558085 5.43788 -0.00882328 4.40408 0.049341C3.20329 0.107505 2.13759 0.38144 1.25951 1.25953C0.379557 2.1395 0.107503 3.20335 0.0493401 4.40416C-0.00882312 5.43986 0.000558075 6.46618 0.000558075 7.5C0.000558075 8.53382 -0.00882312 9.56202 0.0493401 10.5958C0.107503 11.7967 0.381433 12.8624 1.25951 13.7405C2.13946 14.6204 3.20329 14.8925 4.40408 14.9507C5.43976 15.0088 6.46606 14.9994 7.49986 14.9994C8.53554 14.9994 9.56184 15.0088 10.5956 14.9507C11.7964 14.8925 12.8621 14.6186 13.7402 13.7405C14.6202 12.8605 14.8922 11.7967 14.9504 10.5958C15.0104 9.56202 14.9992 8.5357 14.9992 7.5ZM7.49798 11.3482C5.36846 11.3482 3.64983 9.62956 3.64983 7.5C3.64983 5.37044 5.36846 3.65177 7.49798 3.65177C9.62751 3.65177 11.3461 5.37044 11.3461 7.5C11.3461 9.62956 9.62751 11.3482 7.49798 11.3482ZM11.5037 4.3929C11.0065 4.3929 10.605 3.99138 10.605 3.49417C10.605 2.99696 11.0065 2.59544 11.5037 2.59544C12.0009 2.59544 12.4025 2.99696 12.4025 3.49417C12.4026 3.61223 12.3795 3.72917 12.3343 3.83827C12.2892 3.94738 12.223 4.04651 12.1396 4.13C12.0561 4.21348 11.9569 4.27968 11.8478 4.32479C11.7387 4.3699 11.6218 4.39305 11.5037 4.3929Z" fill="white"/>
</svg>
