<svg width="20" height="20" viewBox="0 0 20 20" fill="none" xmlns="http://www.w3.org/2000/svg">
<path d="M4.82333 3.64667C5.83033 3.64667 6.64667 2.83033 6.64667 1.82333C6.64667 0.816334 5.83033 0 4.82333 0C3.81633 0 3 0.816334 3 1.82333C3 2.83033 3.81633 3.64667 4.82333 3.64667Z" fill="white"/>
<path d="M8.36833 5.02783V15.1437H11.5092V10.1412C11.5092 8.82116 11.7575 7.54283 13.3942 7.54283C15.0083 7.54283 15.0283 9.052 15.0283 10.2245V15.1445H18.1708V9.597C18.1708 6.872 17.5842 4.77783 14.3992 4.77783C12.87 4.77783 11.845 5.617 11.4258 6.41117H11.3833V5.02783H8.36833V5.02783ZM3.25 5.02783H6.39583V15.1437H3.25V5.02783Z" fill="white"/>
</svg>
