<svg width="17" height="20" viewBox="0 0 17 20" fill="none" xmlns="http://www.w3.org/2000/svg">
<path d="M1.8125 0.249912C1.757 0.243912 1.7075 0.270162 1.64825 0.273162C1.59875 0.276162 1.55825 0.264912 1.508 0.273162H1.41425C1.33175 0.291162 1.253 0.323412 1.1795 0.366912C1.0996 0.408003 1.02811 0.463716 0.96875 0.531162C0.67625 0.777162 0.5 1.15816 0.5 1.51591V18.6009C0.5 18.9707 0.66425 19.4162 1.0625 19.6329C1.0925 19.6479 1.127 19.6442 1.15625 19.6562C1.3311 19.7246 1.5194 19.7518 1.70647 19.7355C1.89354 19.7193 2.07433 19.66 2.23475 19.5624H2.25725L9.3125 15.2499L12.8983 13.0937C12.8983 13.0937 15.9395 11.2539 16.3438 11.0079C16.6865 10.7994 17.006 10.4042 17 9.92941C16.994 9.45466 16.6663 9.10366 16.3438 8.92141C16.241 8.86291 15.3388 8.32141 14.5153 7.82041C13.7278 7.34041 13.0363 6.92341 12.9688 6.88291C12.9459 6.86615 12.9224 6.85038 12.8983 6.83566L9.3125 4.65616C9.3125 4.65616 2.7875 0.698412 2.39825 0.460662C2.21971 0.350583 2.02024 0.278815 1.8125 0.249912ZM2 2.57041L9.0785 9.95266L2 17.3364V2.57041ZM5.60975 4.16416C6.9335 4.96666 8.53925 5.94541 8.53925 5.94541L11.3045 7.63291L10.1098 8.87491L5.60975 4.16416ZM12.617 8.42941C12.9043 8.60566 13.1683 8.76091 13.742 9.10891C14.369 9.48991 14.8055 9.73366 15.1723 9.95341C14.4838 10.3689 13.1773 11.1744 12.641 11.4999L11.1635 9.95266L12.617 8.42941ZM10.1098 11.0544L11.3045 12.2972L8.53925 13.9847C8.53925 13.9847 6.89525 14.9717 5.58575 15.7659L10.1098 11.0544Z" fill="white"/>
</svg>
