<svg width="13" height="14" viewBox="0 0 13 14" fill="none" xmlns="http://www.w3.org/2000/svg">
<path d="M5.79562 0.64889C4.76109 0.661656 2.53691 0.835443 1.29289 2.00212C0.367523 2.93941 0.0444313 4.32517 0.00656269 6.03873C-0.0248602 7.74612 -0.0627288 10.9525 2.96072 11.8256V13.1553C2.96072 13.1553 2.94178 13.6874 3.28582 13.7965C3.70963 13.9336 3.95094 13.5243 4.3538 13.0845L5.10513 12.216C7.1738 12.3918 8.75823 11.9866 8.94073 11.9265C9.36051 11.7893 11.7249 11.4805 12.1112 8.27365C12.5076 4.96183 11.9182 2.87516 10.8543 1.93128H10.8479C10.5268 1.62901 9.23643 0.667834 6.35358 0.657127C6.35358 0.657127 6.13966 0.642301 5.79562 0.648478V0.64889ZM5.83107 1.58C6.12476 1.57795 6.30322 1.59071 6.30322 1.59071C8.74333 1.5973 9.90799 2.34804 10.1827 2.60089C11.0787 3.38582 11.5404 5.26699 11.2024 8.03192C10.8813 10.7128 8.96369 10.8825 8.60878 10.9982C8.4577 11.0476 7.06221 11.3993 5.30414 11.2836C5.30414 11.2836 3.99485 12.8988 3.58555 13.3147C3.52069 13.3876 3.44495 13.409 3.39661 13.3983C3.32732 13.381 3.30637 13.2933 3.3104 13.173L3.32288 10.9661C0.758698 10.2413 0.909769 7.50644 0.937163 6.07785C0.968586 4.64926 1.23085 3.48053 2.01158 2.68902C3.06264 1.71755 4.95123 1.58659 5.83027 1.58H5.83107ZM6.02445 3.00818C6.00334 3.00796 5.9824 3.01202 5.96284 3.02011C5.94328 3.0282 5.92547 3.04017 5.91045 3.05533C5.89544 3.07049 5.8835 3.08854 5.87534 3.10844C5.86718 3.12833 5.86295 3.14968 5.8629 3.17126C5.8629 3.26351 5.93622 3.3364 6.02445 3.3364C6.42388 3.32863 6.82087 3.40178 7.19251 3.55162C7.56415 3.70147 7.9031 3.92504 8.1898 4.20945C8.77516 4.79052 9.06038 5.57132 9.07126 6.59221C9.07126 6.6824 9.14256 6.75735 9.2328 6.75735V6.75076C9.27533 6.75087 9.31618 6.73379 9.34644 6.70324C9.3767 6.67269 9.39392 6.63115 9.39435 6.58768C9.41391 6.10715 9.33768 5.62758 9.17029 5.1781C9.0029 4.72863 8.74785 4.31864 8.42064 3.97306C7.78292 3.33599 6.97479 3.00777 6.02445 3.00777V3.00818ZM3.90098 3.38582C3.78695 3.36878 3.67066 3.39218 3.57145 3.45212H3.56299C3.33266 3.59013 3.12517 3.76457 2.94823 3.96895C2.80118 4.14273 2.72142 4.31858 2.70047 4.48783C2.68798 4.58873 2.69644 4.68962 2.72585 4.78599L2.73632 4.79258C2.9019 5.29005 3.11823 5.76858 3.38251 6.21911C3.72293 6.85205 4.14187 7.43741 4.62895 7.96067L4.64345 7.98209L4.66641 7.99938L4.68092 8.01668L4.69784 8.0315C5.21157 8.53087 5.78559 8.96113 6.40595 9.31184C7.11498 9.70636 7.54523 9.89291 7.80346 9.97033V9.97445C7.8792 9.99792 7.94809 10.0086 8.01738 10.0086C8.23746 9.99215 8.4458 9.90081 8.60918 9.74919C8.8082 9.56826 8.97694 9.35529 9.10872 9.1187V9.11458C9.2324 8.87655 9.1905 8.65129 9.01204 8.49891C8.65463 8.17955 8.26814 7.89589 7.85785 7.65181C7.5831 7.49944 7.30392 7.59169 7.19072 7.74612L6.94941 8.05704C6.82573 8.21147 6.60093 8.19005 6.60093 8.19005L6.59449 8.19417C4.9182 7.75641 4.47103 6.02143 4.47103 6.02143C4.47103 6.02143 4.45008 5.78546 4.60518 5.66521L4.90732 5.41648C5.05195 5.29623 5.15266 5.01125 4.99756 4.72998C4.76044 4.30999 4.48356 3.91481 4.1709 3.55013C4.10255 3.46415 4.00665 3.40566 3.90018 3.38499L3.90098 3.38582ZM6.30322 3.87505C6.08931 3.87505 6.08931 4.20533 6.30524 4.20533C6.57124 4.20974 6.83378 4.26769 7.07786 4.37587C7.32193 4.48406 7.54276 4.64035 7.72773 4.83582C7.89645 5.02608 8.02611 5.24902 8.10901 5.49144C8.19191 5.73386 8.22637 5.99083 8.21035 6.24711C8.21109 6.29048 8.2284 6.33183 8.2586 6.36231C8.28879 6.39279 8.32946 6.40998 8.37189 6.41019L8.37834 6.41884C8.42109 6.41851 8.46199 6.40101 8.49222 6.37011C8.52245 6.33921 8.53957 6.29739 8.53989 6.2537C8.55439 5.59932 8.35538 5.05037 7.96501 4.61055C7.57263 4.17074 7.02514 3.92406 6.32619 3.87505H6.30322ZM6.5679 4.76293C6.34754 4.75634 6.33908 5.0932 6.55743 5.09979C7.08839 5.12779 7.34622 5.40206 7.38006 5.96625C7.3808 6.00908 7.3979 6.04991 7.42772 6.08C7.45754 6.11009 7.49769 6.12706 7.53959 6.12727H7.54604C7.56758 6.12633 7.58872 6.12101 7.60823 6.11162C7.62774 6.10223 7.64522 6.08896 7.65966 6.0726C7.6741 6.05623 7.6852 6.03708 7.69232 6.01628C7.69945 5.99547 7.70244 5.97343 7.70114 5.95143C7.66327 5.21592 7.27089 4.80164 6.57435 4.76334H6.5679V4.76293Z" fill="#CC3BFF"/>
</svg>
