<svg width="17" height="12" viewBox="0 0 17 12" fill="none" xmlns="http://www.w3.org/2000/svg">
<rect width="17" height="12" rx="2" fill="#F2F9FF"/>
<mask id="mask0_536_212" style="mask-type:alpha" maskUnits="userSpaceOnUse" x="0" y="0" width="17" height="12">
<rect width="17" height="12" rx="2" fill="white"/>
</mask>
<g mask="url(#mask0_536_212)">
<path fill-rule="evenodd" clip-rule="evenodd" d="M17 0H0V0.8H17V0ZM17 1.6H0V2.4H17V1.6ZM0 3.20001H17V4.00001H0V3.20001ZM17 4.8H0V5.6H17V4.8ZM0 6.39999H17V7.19999H0V6.39999ZM17 8.00001H0V8.80001H17V8.00001ZM0 9.6H17V10.4H0V9.6ZM17 11.2H0V12H17V11.2Z" fill="#D02F44"/>
<rect width="7.28571" height="5.6" fill="#46467F"/>
<g filter="url(#filter0_d_536_212)">
<path fill-rule="evenodd" clip-rule="evenodd" d="M1.61903 1.19993C1.61903 1.42084 1.43781 1.59993 1.21427 1.59993C0.990727 1.59993 0.809509 1.42084 0.809509 1.19993C0.809509 0.979013 0.990727 0.799927 1.21427 0.799927C1.43781 0.799927 1.61903 0.979013 1.61903 1.19993ZM3.23808 1.19993C3.23808 1.42084 3.05687 1.59993 2.83332 1.59993C2.60978 1.59993 2.42856 1.42084 2.42856 1.19993C2.42856 0.979013 2.60978 0.799927 2.83332 0.799927C3.05687 0.799927 3.23808 0.979013 3.23808 1.19993ZM4.45236 1.59993C4.67591 1.59993 4.85713 1.42084 4.85713 1.19993C4.85713 0.979013 4.67591 0.799927 4.45236 0.799927C4.22882 0.799927 4.0476 0.979013 4.0476 1.19993C4.0476 1.42084 4.22882 1.59993 4.45236 1.59993ZM6.47618 1.19993C6.47618 1.42084 6.29496 1.59993 6.07141 1.59993C5.84787 1.59993 5.66665 1.42084 5.66665 1.19993C5.66665 0.979013 5.84787 0.799927 6.07141 0.799927C6.29496 0.799927 6.47618 0.979013 6.47618 1.19993ZM2.02379 2.39993C2.24734 2.39993 2.42855 2.22085 2.42855 1.99993C2.42855 1.77902 2.24734 1.59993 2.02379 1.59993C1.80025 1.59993 1.61903 1.77902 1.61903 1.99993C1.61903 2.22085 1.80025 2.39993 2.02379 2.39993ZM4.0476 1.99993C4.0476 2.22085 3.86639 2.39993 3.64284 2.39993C3.4193 2.39993 3.23808 2.22085 3.23808 1.99993C3.23808 1.77902 3.4193 1.59993 3.64284 1.59993C3.86639 1.59993 4.0476 1.77902 4.0476 1.99993ZM5.26189 2.39993C5.48544 2.39993 5.66666 2.22085 5.66666 1.99993C5.66666 1.77902 5.48544 1.59993 5.26189 1.59993C5.03835 1.59993 4.85713 1.77902 4.85713 1.99993C4.85713 2.22085 5.03835 2.39993 5.26189 2.39993ZM6.47618 2.79992C6.47618 3.02084 6.29496 3.19992 6.07141 3.19992C5.84787 3.19992 5.66665 3.02084 5.66665 2.79992C5.66665 2.57901 5.84787 2.39992 6.07141 2.39992C6.29496 2.39992 6.47618 2.57901 6.47618 2.79992ZM4.45236 3.19992C4.67591 3.19992 4.85713 3.02084 4.85713 2.79992C4.85713 2.57901 4.67591 2.39992 4.45236 2.39992C4.22882 2.39992 4.0476 2.57901 4.0476 2.79992C4.0476 3.02084 4.22882 3.19992 4.45236 3.19992ZM3.23808 2.79992C3.23808 3.02084 3.05687 3.19992 2.83332 3.19992C2.60978 3.19992 2.42856 3.02084 2.42856 2.79992C2.42856 2.57901 2.60978 2.39992 2.83332 2.39992C3.05687 2.39992 3.23808 2.57901 3.23808 2.79992ZM1.21427 3.19992C1.43781 3.19992 1.61903 3.02084 1.61903 2.79992C1.61903 2.57901 1.43781 2.39992 1.21427 2.39992C0.990727 2.39992 0.809509 2.57901 0.809509 2.79992C0.809509 3.02084 0.990727 3.19992 1.21427 3.19992ZM2.42855 3.59993C2.42855 3.82084 2.24734 3.99993 2.02379 3.99993C1.80025 3.99993 1.61903 3.82084 1.61903 3.59993C1.61903 3.37901 1.80025 3.19993 2.02379 3.19993C2.24734 3.19993 2.42855 3.37901 2.42855 3.59993ZM3.64284 3.99993C3.86639 3.99993 4.0476 3.82084 4.0476 3.59993C4.0476 3.37901 3.86639 3.19993 3.64284 3.19993C3.4193 3.19993 3.23808 3.37901 3.23808 3.59993C3.23808 3.82084 3.4193 3.99993 3.64284 3.99993ZM5.66666 3.59993C5.66666 3.82084 5.48544 3.99993 5.26189 3.99993C5.03835 3.99993 4.85713 3.82084 4.85713 3.59993C4.85713 3.37901 5.03835 3.19993 5.26189 3.19993C5.48544 3.19993 5.66666 3.37901 5.66666 3.59993ZM6.07141 4.79993C6.29496 4.79993 6.47618 4.62085 6.47618 4.39993C6.47618 4.17902 6.29496 3.99993 6.07141 3.99993C5.84787 3.99993 5.66665 4.17902 5.66665 4.39993C5.66665 4.62085 5.84787 4.79993 6.07141 4.79993ZM4.85713 4.39993C4.85713 4.62085 4.67591 4.79993 4.45236 4.79993C4.22882 4.79993 4.0476 4.62085 4.0476 4.39993C4.0476 4.17902 4.22882 3.99993 4.45236 3.99993C4.67591 3.99993 4.85713 4.17902 4.85713 4.39993ZM2.83332 4.79993C3.05687 4.79993 3.23808 4.62085 3.23808 4.39993C3.23808 4.17902 3.05687 3.99993 2.83332 3.99993C2.60978 3.99993 2.42856 4.17902 2.42856 4.39993C2.42856 4.62085 2.60978 4.79993 2.83332 4.79993ZM1.61903 4.39993C1.61903 4.62085 1.43781 4.79993 1.21427 4.79993C0.990727 4.79993 0.809509 4.62085 0.809509 4.39993C0.809509 4.17902 0.990727 3.99993 1.21427 3.99993C1.43781 3.99993 1.61903 4.17902 1.61903 4.39993Z" fill="url(#paint0_linear_536_212)"/>
</g>
</g>
<defs>
<filter id="filter0_d_536_212" x="0.809509" y="0.799927" width="5.66666" height="5" filterUnits="userSpaceOnUse" color-interpolation-filters="sRGB">
<feFlood flood-opacity="0" result="BackgroundImageFix"/>
<feColorMatrix in="SourceAlpha" type="matrix" values="0 0 0 0 0 0 0 0 0 0 0 0 0 0 0 0 0 0 127 0" result="hardAlpha"/>
<feOffset dy="1"/>
<feColorMatrix type="matrix" values="0 0 0 0 0 0 0 0 0 0 0 0 0 0 0 0 0 0 0.06 0"/>
<feBlend mode="normal" in2="BackgroundImageFix" result="effect1_dropShadow_536_212"/>
<feBlend mode="normal" in="SourceGraphic" in2="effect1_dropShadow_536_212" result="shape"/>
</filter>
<linearGradient id="paint0_linear_536_212" x1="0.809509" y1="0.799927" x2="0.809509" y2="4.79993" gradientUnits="userSpaceOnUse">
<stop stop-color="white"/>
<stop offset="1" stop-color="#F0F0F0"/>
</linearGradient>
</defs>
</svg>
