<svg width="17" height="12" viewBox="0 0 17 12" fill="none" xmlns="http://www.w3.org/2000/svg">
<rect width="17" height="12" rx="2" fill="#F2F9FF"/>
<mask id="mask0_536_211" style="mask-type:alpha" maskUnits="userSpaceOnUse" x="0" y="0" width="17" height="12">
<rect width="17" height="12" rx="2" fill="white"/>
</mask>
<g mask="url(#mask0_536_211)">
<rect width="17" height="12" fill="#0A17A7"/>
<path d="M0 -0.333333H-0.909239L-0.215448 0.254349L2.5 2.55449V3.02728L-0.192228 4.92768L-0.333333 5.02728V5.2V5.6V6.19767L0.175164 5.8836L3.33274 3.93333H3.94182L6.65426 5.84799C6.73292 5.90352 6.82685 5.93333 6.92314 5.93333C7.35737 5.93333 7.55583 5.39196 7.2245 5.1113L4.78571 3.04551V2.57272L7.33684 0.771927C7.51381 0.647008 7.61905 0.443896 7.61905 0.227281V0V-0.597671L7.11055 -0.283599L3.95298 1.66667H3.34389L0.59699 -0.272323L0.510558 -0.333333H0.404762H0Z" fill="#FF2E3B" stroke="#F2F9FF" stroke-width="0.666667"/>
<path fill-rule="evenodd" clip-rule="evenodd" d="M0 2V3.6H2.83333V5.33333C2.83333 5.70152 3.13181 6 3.5 6H3.78571C4.1539 6 4.45238 5.70152 4.45238 5.33333V3.6H7.02381C7.392 3.6 7.69048 3.30152 7.69048 2.93333V2.66667C7.69048 2.29848 7.392 2 7.02381 2H4.45238V0H2.83333V2H0Z" fill="url(#paint0_linear_536_211)"/>
<path fill-rule="evenodd" clip-rule="evenodd" d="M0 2.4H3.2381V2V0H4.04762V2V2.4H7.28571V3.2H4.04762V3.6V5.6H3.2381V3.6V3.2H0V2.4Z" fill="url(#paint1_linear_536_211)"/>
<path fill-rule="evenodd" clip-rule="evenodd" d="M3.64284 9.8L2.9291 10.1708L3.06542 9.38541L2.48799 8.82918L3.28597 8.71459L3.64284 8L3.99971 8.71459L4.7977 8.82918L4.22027 9.38541L4.35658 10.1708L3.64284 9.8Z" fill="#F2F9FF"/>
<path fill-rule="evenodd" clip-rule="evenodd" d="M12.1429 10.4L11.5704 10.5656L11.7381 9.99995L11.5704 9.43427L12.1429 9.59995L12.7153 9.43427L12.5476 9.99995L12.7153 10.5656L12.1429 10.4Z" fill="#F2F9FF"/>
<path fill-rule="evenodd" clip-rule="evenodd" d="M12.1429 2.80004L11.5704 2.96572L11.7381 2.40004L11.5704 1.83435L12.1429 2.00004L12.7153 1.83435L12.5476 2.40004L12.7153 2.96572L12.1429 2.80004Z" fill="#F2F9FF"/>
<path fill-rule="evenodd" clip-rule="evenodd" d="M14.5714 5.2L13.999 5.36569L14.1667 4.8L13.999 4.23431L14.5714 4.4L15.1438 4.23431L14.9762 4.8L15.1438 5.36569L14.5714 5.2Z" fill="#F2F9FF"/>
<path fill-rule="evenodd" clip-rule="evenodd" d="M9.71428 6.00005L9.14186 6.16573L9.30952 5.60005L9.14186 5.03436L9.71428 5.20005L10.2867 5.03436L10.119 5.60005L10.2867 6.16573L9.71428 6.00005Z" fill="#F2F9FF"/>
<path fill-rule="evenodd" clip-rule="evenodd" d="M13.3572 7.00002L13.0709 7.08287L13.1548 6.80002L13.0709 6.51718L13.3572 6.60002L13.6434 6.51718L13.5595 6.80002L13.6434 7.08287L13.3572 7.00002Z" fill="#F2F9FF"/>
</g>
<defs>
<linearGradient id="paint0_linear_536_211" x1="0" y1="0" x2="0" y2="6" gradientUnits="userSpaceOnUse">
<stop stop-color="white"/>
<stop offset="1" stop-color="#F0F0F0"/>
</linearGradient>
<linearGradient id="paint1_linear_536_211" x1="0" y1="0" x2="0" y2="5.6" gradientUnits="userSpaceOnUse">
<stop stop-color="#FF2E3B"/>
<stop offset="1" stop-color="#FC0D1B"/>
</linearGradient>
</defs>
</svg>
