<svg width="78" height="78" viewBox="0 0 78 78" fill="none" xmlns="http://www.w3.org/2000/svg">
<path fill-rule="evenodd" clip-rule="evenodd" d="M14.3756 39.0001C14.3756 31.1267 15.9709 23.8204 18.6963 17.789C23.1359 7.96502 30.5736 1.5235 39 1.5235C18.3023 1.5235 1.52343 18.3024 1.52343 39.0001C1.52343 59.6977 18.3022 76.4766 39 76.4766C30.5736 76.4766 23.1359 70.0353 18.6965 60.2113C15.971 54.1798 14.3756 46.8735 14.3756 39.0001Z" fill="#99EBFA"/>
<path fill-rule="evenodd" clip-rule="evenodd" d="M18.6965 17.789C24.7032 21.6605 31.7432 23.7653 39.0001 23.7653V1.52344C30.5736 1.52344 23.1359 7.96499 18.6965 17.789Z" fill="#CFF5FD"/>
<path fill-rule="evenodd" clip-rule="evenodd" d="M39.0001 23.7654C31.7432 23.7654 24.7033 21.6606 18.6965 17.7891C15.9709 23.8206 14.3757 31.1268 14.3757 39.0002H39.0003V23.7654H39.0001Z" fill="#CFF5FD"/>
<path fill-rule="evenodd" clip-rule="evenodd" d="M39.0001 39H14.3755C14.3755 46.8734 15.9709 54.1798 18.6964 60.2113C24.7032 56.3398 31.7432 54.235 39.0001 54.235V39Z" fill="#CFF5FD"/>
<path fill-rule="evenodd" clip-rule="evenodd" d="M39 54.2349C31.7431 54.2349 24.7032 56.3397 18.6964 60.2112C23.1359 70.0353 30.5736 76.4767 39 76.4767V54.2349Z" fill="#CFF5FD"/>
<path fill-rule="evenodd" clip-rule="evenodd" d="M63.6244 39C63.6244 31.1266 62.0291 23.8204 59.3037 17.789C54.8642 7.96496 47.4264 1.52344 39 1.52344C59.6978 1.52344 76.4766 18.3022 76.4766 39C76.4766 59.6978 59.6978 76.4766 39 76.4766C47.4264 76.4766 54.8641 70.0352 59.3035 60.2112C62.0291 54.1798 63.6244 46.8734 63.6244 39Z" fill="#99EBFA"/>
<path fill-rule="evenodd" clip-rule="evenodd" d="M59.3037 17.789C53.297 21.6605 46.257 23.7653 39.0001 23.7653V1.52344C47.4264 1.52344 54.8643 7.96499 59.3037 17.789Z" fill="#CFF5FD"/>
<path fill-rule="evenodd" clip-rule="evenodd" d="M39 23.7652C46.2569 23.7652 53.2969 21.6605 59.3036 17.7889C62.0292 23.8204 63.6244 31.1266 63.6244 39.0001H39V23.7652Z" fill="#CFF5FD"/>
<path fill-rule="evenodd" clip-rule="evenodd" d="M39 39H63.6245C63.6245 46.8734 62.0292 54.1798 59.3036 60.2113C53.2969 56.3398 46.2569 54.235 39 54.235V39Z" fill="#CFF5FD"/>
<path fill-rule="evenodd" clip-rule="evenodd" d="M39 54.2349C46.2569 54.2349 53.2968 56.3397 59.3036 60.2112C54.8642 70.0353 47.4264 76.4767 39 76.4767V54.2349Z" fill="#CFF5FD"/>
<path fill-rule="evenodd" clip-rule="evenodd" d="M13.4932 61.7686C13.4932 59.3747 11.5346 57.416 9.14063 57.416C6.74654 57.416 4.78786 59.3747 4.78786 61.7686V63.945C4.78786 65.0577 5.21107 66.0763 5.90424 66.8479C6.70252 67.7365 7.85911 68.2976 9.14047 68.2976C10.4218 68.2976 11.5783 67.7365 12.3767 66.8479C13.07 66.0763 13.4931 65.0576 13.4931 63.945V61.7686H13.4932Z" fill="#BB6B57"/>
<path fill-rule="evenodd" clip-rule="evenodd" d="M12.3768 66.8482C11.5784 67.7369 10.4219 68.2979 9.14058 68.2979C7.85922 68.2979 6.70263 67.7369 5.9045 66.8481C3.32151 68.0703 1.5234 70.7047 1.5234 73.7386V76.4767H16.7578V73.7386C16.7579 70.7047 14.9598 68.0703 12.3768 66.8482Z" fill="#FFC144"/>
<path fill-rule="evenodd" clip-rule="evenodd" d="M25.2454 18.1983C25.2454 15.8044 23.2868 13.8457 20.8928 13.8457C18.4989 13.8457 16.5401 15.8044 16.5401 18.1983V20.3747C16.5401 21.4874 16.9633 22.506 17.6564 23.2776C18.4547 24.1662 19.6113 24.7273 20.8927 24.7273C22.174 24.7273 23.3305 24.1662 24.1289 23.2776C24.8222 22.506 25.2453 21.4873 25.2453 20.3747V18.1983H25.2454Z" fill="#FFDCD5"/>
<path fill-rule="evenodd" clip-rule="evenodd" d="M24.1291 23.2779C23.3306 24.1665 22.1742 24.7276 20.8928 24.7276C19.6114 24.7276 18.4549 24.1665 17.6567 23.2778C15.0737 24.5 13.2756 27.1344 13.2756 30.1683V32.9064H28.51V30.1683C28.51 27.1344 26.7119 24.5 24.1291 23.2779Z" fill="#FF9346"/>
<path fill-rule="evenodd" clip-rule="evenodd" d="M57.0638 38.78C57.0638 36.3861 55.1051 34.4274 52.7112 34.4274C50.3173 34.4274 48.3584 36.3861 48.3584 38.78V40.9564C48.3584 42.0691 48.7817 43.0877 49.4748 43.8593C50.2731 44.7479 51.4297 45.309 52.7111 45.309C53.9924 45.309 55.1489 44.7479 55.9473 43.8593C56.6406 43.0877 57.0637 42.0689 57.0637 40.9564V38.78H57.0638Z" fill="#CC9081"/>
<path fill-rule="evenodd" clip-rule="evenodd" d="M55.9473 43.8594C55.1489 44.748 53.9924 45.3091 52.7111 45.3091C51.4297 45.3091 50.2731 44.748 49.475 43.8593C46.892 45.0815 45.0939 47.7158 45.0939 50.7498V53.4878H60.3283V50.7498C60.3284 47.7158 58.5303 45.0815 55.9473 43.8594Z" fill="white"/>
<path fill-rule="evenodd" clip-rule="evenodd" d="M73.212 5.87617C73.212 3.48224 71.2533 1.52356 68.8594 1.52356C66.4654 1.52356 64.5066 3.48209 64.5066 5.87617V8.05256C64.5066 9.16527 64.9298 10.1838 65.623 10.9555C66.4212 11.8441 67.5778 12.4052 68.8592 12.4052C70.1406 12.4052 71.297 11.8441 72.0954 10.9555C72.7888 10.1838 73.2118 9.16512 73.2118 8.05256V5.87617H73.212Z" fill="#E5AE8C"/>
<path fill-rule="evenodd" clip-rule="evenodd" d="M72.0956 10.9554C71.2972 11.844 70.1408 12.4051 68.8594 12.4051C67.578 12.4051 66.4214 11.844 65.6233 10.9553C63.0403 12.1775 61.2422 14.8118 61.2422 17.8458V20.5838H76.4766V17.8458C76.4766 14.8118 74.6785 12.1777 72.0956 10.9554Z" fill="#CBE558"/>
<path d="M78 20.5838V17.8459C78 14.8759 76.5826 12.1574 74.2216 10.4512C74.5508 9.71812 74.7356 8.90674 74.7356 8.05256V5.87618C74.7354 2.63599 72.0994 0 68.8593 0C65.6191 0 62.9832 2.63599 62.9832 5.87618V8.05256C62.9832 8.12004 62.9861 8.18692 62.9884 8.2538C56.1537 2.91143 47.7541 0 39 0C28.5828 0 18.7889 4.05659 11.4228 11.4228C4.05675 18.7889 0 28.5828 0 39C0 45.5852 1.6642 52.0558 4.8212 57.7902C3.85565 58.8377 3.26456 60.2353 3.26456 61.7688V63.9451C3.26456 64.7993 3.4492 65.6107 3.77841 66.3438C1.4171 68.0499 0 70.7675 0 73.7387V76.4766C0 77.318 0.68204 78 1.52343 78H16.7577C17.5991 78 18.2812 77.318 18.2812 76.4766V73.7387C18.2812 73.1243 18.2193 72.521 18.1023 71.9348C24.3021 75.8804 31.5099 78 39 78C49.4172 78 59.2109 73.9434 66.5772 66.5772C73.9434 59.2111 78 49.4174 78 39C78 33.1427 76.6766 27.3502 74.157 22.1073H76.4766C77.318 22.1073 78 21.4252 78 20.5838ZM66.0301 5.87618C66.0301 4.31603 67.2993 3.04686 68.8593 3.04686C70.4193 3.04686 71.6886 4.31603 71.6886 5.87618V8.05256C71.6886 9.61255 70.4193 10.8817 68.8593 10.8817C67.2993 10.8817 66.0301 9.61255 66.0301 8.05256V5.87618ZM74.9186 40.5234C74.5538 49.2266 71.0829 57.1404 65.5849 63.1798C64.2032 61.8909 62.7393 60.7109 61.1987 59.644C63.5935 53.9385 64.9512 47.3848 65.1267 40.5234H74.9186ZM12.4138 14.8215C13.2785 15.6268 14.1831 16.3952 15.1176 17.1193C15.0524 17.4693 15.0166 17.8296 15.0166 18.1983V20.3747C15.0166 21.2289 15.2013 22.0402 15.5305 22.7732C13.1693 24.4791 11.7521 27.1969 11.7521 30.1681V32.9061C11.7521 33.6646 12.307 34.2918 13.0327 34.4084C12.9525 35.4268 12.8987 36.4519 12.8719 37.4766H3.08144C3.44615 28.7741 6.91668 20.8608 12.4138 14.8215ZM23.2526 12.8186C27.1503 7.17232 32.1986 3.76013 37.4767 3.20606V22.2084C33.8133 22.0547 30.2217 21.3468 26.769 20.0962V18.1985C26.7688 15.7974 25.3207 13.7293 23.2526 12.8186ZM20.8928 15.3691C22.4528 15.3691 23.722 16.6383 23.722 18.1983V20.3747C23.722 21.9347 22.4528 23.2038 20.8928 23.2038C19.3328 23.2038 18.0635 21.9347 18.0635 20.3747V18.1983C18.0635 16.6383 19.3328 15.3691 20.8928 15.3691ZM17.4634 25.1418C18.4293 25.8386 19.6136 26.2509 20.8928 26.2509C22.1728 26.2509 23.3577 25.8382 24.3239 25.1407C25.9841 26.2722 26.9865 28.1321 26.9865 30.1682V31.3827H14.7991V30.1682C14.7991 28.1649 15.8225 26.272 17.4634 25.1418ZM16.0888 34.4296H28.51C29.3513 34.4296 30.0334 33.7475 30.0334 32.9061V30.1682C30.0334 27.5429 28.926 25.1141 27.0383 23.4069C30.4213 24.4994 33.9178 25.1193 37.4766 25.257V37.4767H15.9205C15.9485 36.4583 16.0052 35.4402 16.0888 34.4296ZM40.5234 3.20286C46.0053 3.76196 51.1478 7.32877 55.1397 13.3919C55.9332 14.5972 56.6625 15.8751 57.3275 17.2136C52.2426 20.2162 46.4278 21.9522 40.5234 22.2081V3.20286ZM19.8726 12.4128C18.5333 12.6483 17.3493 13.3383 16.4855 14.318C15.8246 13.7871 15.1815 13.2322 14.5603 12.6568C17.7001 9.74189 21.3596 7.38026 25.383 5.72749C23.3539 7.56277 21.5089 9.79917 19.8726 12.4128ZM12.8748 40.5234C12.8995 41.4603 12.9443 42.4021 13.0138 43.3389C13.0732 44.1396 13.7412 44.7497 14.5314 44.7497C14.5693 44.7497 14.6074 44.7484 14.6457 44.7455C15.4848 44.6833 16.1146 43.9525 16.0522 43.1136C15.9884 42.2516 15.9467 41.3854 15.9226 40.5234H37.4766V52.7433C31.0661 52.9912 24.886 54.7998 19.4181 57.98C19.1736 57.3744 18.939 56.7561 18.7161 56.1238C18.4363 55.3304 17.5661 54.9141 16.7728 55.1936C15.9794 55.4735 15.5629 56.3435 15.8426 57.1369C16.1446 57.9931 16.4665 58.827 16.806 59.6388C16.1802 60.0727 15.567 60.5278 14.9648 60.9997C14.5867 58.122 12.12 55.8926 9.14074 55.8926C8.53487 55.8926 7.95018 55.9849 7.39976 56.156C4.79013 51.3561 3.31209 46.0031 3.08038 40.5234H12.8748ZM58.5871 57.9865C57.0929 57.1199 55.5384 56.3484 53.9248 55.68C53.3519 55.4429 52.775 55.2204 52.1947 55.0113H59.6692C59.3402 56.0271 58.9792 57.0196 58.5871 57.9865ZM37.4766 74.7979C30.824 74.1124 24.7084 68.965 20.6681 60.7775C25.7436 57.7641 31.5001 56.0426 37.4766 55.7919V74.7979ZM40.5234 74.7971V55.792C46.529 56.0408 52.2714 57.7566 57.3359 60.7698C56.6686 62.1144 55.9366 63.3978 55.1397 64.6083C51.1478 70.6712 46.0053 74.238 40.5234 74.7971ZM58.8048 51.9646H46.6173V50.7501C46.6173 48.7469 47.6408 46.854 49.2816 45.7237C50.2475 46.4205 51.4318 46.8327 52.711 46.8327C53.9912 46.8327 55.1759 46.42 56.1421 45.7224C57.8022 46.8539 58.8048 48.7139 58.8048 50.7499V51.9646ZM55.5404 40.9565C55.5404 42.5165 54.2712 43.7857 52.7112 43.7857C51.1512 43.7857 49.8819 42.5165 49.8819 40.9565V38.7802C49.8819 37.2202 51.1512 35.951 52.7112 35.951C54.2712 35.951 55.5404 37.2202 55.5404 38.7802V40.9565ZM47.3489 43.3552C44.9877 45.0611 43.5704 47.7789 43.5704 50.7501V52.9796C42.5612 52.8612 41.545 52.7829 40.5234 52.7436V40.5236H46.8349V40.9567C46.835 41.8107 47.0196 42.6221 47.3489 43.3552ZM6.31142 63.9451V61.7688C6.31142 60.2088 7.58075 58.9394 9.14074 58.9394C10.7007 58.9394 11.9699 60.2088 11.9699 61.7688V63.9451C11.9699 65.5053 10.7007 66.7744 9.14074 66.7744C7.58075 66.7744 6.31142 65.5053 6.31142 63.9451ZM14.9164 65.0201C15.9351 64.1005 16.9989 63.2448 18.1026 62.4549C20.1133 66.4353 22.598 69.7605 25.4076 72.2947C21.5369 70.714 17.9425 68.4528 14.7857 65.5726C14.8379 65.3918 14.8816 65.2076 14.9164 65.0201ZM57.6846 66.2837C58.4842 65.0693 59.2228 63.7878 59.9007 62.45C61.1313 63.333 62.3126 64.2987 63.4384 65.3441C60.3061 68.252 56.6567 70.6091 52.6446 72.2611C54.4627 70.6065 56.1549 68.6071 57.6846 66.2837ZM61.3893 47.8708C60.7925 46.0675 59.6411 44.4883 58.0732 43.3553C58.4024 42.6223 58.5872 41.8109 58.5872 40.9567V40.5236H62.0791C62.0117 43.029 61.7802 45.4881 61.3893 47.8708ZM58.4396 37.4766C57.8448 34.8621 55.503 32.9041 52.711 32.9041C49.919 32.9041 47.5772 34.8621 46.9825 37.4766H40.5234V25.2577C46.8582 25.0047 53.1021 23.1793 58.5843 20.0071C60.7037 25.2297 61.9106 31.2066 62.0789 37.4766H58.4396ZM60.0389 15.4409C59.9917 15.475 59.945 15.5099 59.8977 15.5439C59.2205 14.2084 58.483 12.9289 57.6846 11.7163C56.1506 9.38647 54.4532 7.38224 52.6295 5.7249C56.0876 7.142 59.3261 9.10144 62.2256 11.559C61.1859 12.6503 60.4348 13.9814 60.0389 15.4409ZM15.2343 74.9531H3.04686V73.7387C3.04686 71.7355 4.07046 69.8426 5.71119 68.7122C6.67705 69.4091 7.86136 69.8213 9.14059 69.8213C10.4207 69.8213 11.6055 69.4086 12.5717 68.711C14.2319 69.8425 15.2343 71.7024 15.2343 73.7387V74.9531ZM74.9198 37.4766H65.1265C64.9884 32.0745 64.1167 26.864 62.5833 22.1073H70.7422C73.2611 26.8319 74.6917 32.103 74.9198 37.4766ZM74.9531 19.0604H62.7657V17.8459C62.7657 15.8428 63.7893 13.9499 65.43 12.8195C66.3959 13.5163 67.58 13.9286 68.8594 13.9286C70.1395 13.9286 71.3243 13.5159 72.2905 12.8183C73.9507 13.9498 74.9531 15.8097 74.9531 17.8459V19.0604Z" fill="black"/>
<path d="M15.4628 51.5422C16.3042 51.5422 16.9862 50.8602 16.9862 50.0188C16.9862 49.1774 16.3042 48.4954 15.4628 48.4954H15.4617C14.6203 48.4954 13.9389 49.1774 13.9389 50.0188C13.9389 50.8602 14.6215 51.5422 15.4628 51.5422Z" fill="black"/>
</svg>
