<svg width="74" height="79" viewBox="0 0 74 79" fill="none" xmlns="http://www.w3.org/2000/svg">
<path d="M36.2866 0.924089C37.589 0.499364 39.1165 1.07543 39.7895 2.2837C40.7505 4.10952 41.5906 6.00126 42.5371 7.83685C42.6606 8.21275 43.0503 8.30063 43.3917 8.34945C45.3428 8.65212 47.3037 8.89134 49.2476 9.22574C50.7243 9.50401 51.8113 11.0296 51.6103 12.5308C51.5159 13.8977 50.3297 14.7423 49.4534 15.6332C48.4003 16.717 47.2359 17.6983 46.2506 18.8455C46.3717 21.1376 47.0495 23.3857 47.2674 25.6753C47.3739 27.7428 44.97 29.405 43.0987 28.5458C41.1814 27.5987 39.3416 26.5003 37.4122 25.5825C37.0419 25.3848 36.6884 25.7583 36.3519 25.873C34.8897 26.6663 33.4155 27.4376 31.9485 28.2187C31.4522 28.475 30.9366 28.7509 30.3652 28.7655C28.6852 28.9169 27.0778 27.3888 27.1238 25.6899C27.3441 23.4028 28.0171 21.1595 28.1381 18.8675C26.6904 17.1735 24.9426 15.7504 23.4393 14.1028C22.1224 12.5991 22.914 9.91409 24.7925 9.31118C27.0463 8.7937 29.409 8.77417 31.6338 8.15661C32.7497 6.27708 33.5583 4.21936 34.5993 2.29346C34.9624 1.64173 35.5869 1.15842 36.2866 0.924089ZM36.5093 3.55299C35.7854 4.95653 35.1197 6.38937 34.4153 7.80511C33.9311 8.9011 33.3138 10.1387 32.0574 10.4633C29.8666 10.9173 27.6249 11.0931 25.4292 11.5129L25.3227 11.4202C25.1992 11.7912 24.8119 12.2672 25.1726 12.626C26.5936 14.1272 28.1211 15.5258 29.5688 17.0026C30.22 17.6665 30.5637 18.638 30.4112 19.568C30.1014 21.616 29.6826 23.6469 29.3921 25.6972C29.3025 26.2806 30.0941 26.7395 30.5589 26.3612C32.3261 25.4702 34.0594 24.5061 35.8169 23.5956C36.7005 23.1318 37.8044 23.1635 38.6783 23.6395C40.4455 24.5427 42.1643 25.5361 43.946 26.4124C44.3624 26.7029 44.7376 26.2538 45.0523 26.0292C44.7425 23.9691 44.3503 21.9235 44.0235 19.8683C43.8419 18.9163 44.0114 17.8618 44.6916 17.1393C46.149 15.6039 47.7394 14.1955 49.1895 12.6528C49.5889 12.2818 49.296 11.5324 48.7828 11.4739C46.8365 11.1297 44.8708 10.9002 42.9196 10.5976C41.9561 10.4804 41.0652 9.90433 40.6005 9.04023C39.6515 7.21929 38.8187 5.33488 37.8674 3.51393C37.635 2.90369 36.7126 2.93787 36.5093 3.55299Z" fill="#010000"/>
<path d="M36.013 10.6903C35.9961 9.98244 36.3108 9.04267 37.175 9.10858C37.9908 9.02559 38.366 9.88968 38.3781 10.5805C38.8914 10.9149 39.591 11.198 39.712 11.8791C39.8524 12.5308 39.2932 13.2289 38.6251 13.1947C38.1288 13.2191 37.7463 12.8408 37.3372 12.626C37.0297 12.8066 36.5553 13.1459 36.8167 13.556C37.5841 14.0661 38.5984 14.0954 39.3005 14.7325C40.4044 15.643 40.5496 17.3956 39.7701 18.5599C39.4433 19.1165 38.8889 19.4631 38.366 19.8048C38.383 20.4858 38.1869 21.3865 37.3711 21.4598C36.5165 21.6257 35.9767 20.7275 36.0227 19.9683C35.3812 19.6852 34.5896 19.4875 34.2313 18.8211C33.8125 18.0546 34.592 17.0392 35.4296 17.2345C35.9985 17.4054 36.5238 17.8057 37.1459 17.7202C37.7947 17.813 38.4048 16.6926 37.6858 16.4046C36.6545 15.9725 35.3763 15.7382 34.7978 14.6544C34.0086 13.2753 34.6864 11.4519 36.013 10.6903Z" fill="#FFD063"/>
<path d="M11.3667 15.5381C12.1873 13.9636 14.7316 13.9246 15.6055 15.4648C16.3487 16.8415 16.9685 18.2841 17.7044 19.6633C19.1859 19.8561 20.6626 20.0807 22.1393 20.3174C23.9065 20.5884 24.7683 23.0806 23.5361 24.3962C22.4758 25.5093 21.338 26.5443 20.2608 27.6427C20.4859 29.1927 20.8175 30.7256 21.0185 32.2781C21.1879 33.9843 19.244 35.4098 17.6777 34.7752C16.247 34.1063 14.8962 33.2715 13.4704 32.5954C12.4391 33.1714 11.3861 33.706 10.3524 34.2699C9.73022 34.5994 9.08144 34.9851 8.35036 34.9216C6.95597 34.8899 5.78671 33.457 6.01669 32.0706C6.24183 30.5938 6.5178 29.1219 6.7623 27.6476C5.64631 26.5443 4.48916 25.4776 3.42158 24.3279C2.31769 23.0415 3.05846 20.7177 4.71671 20.354C6.24909 20.066 7.80567 19.9122 9.34289 19.6437C10.0231 18.2768 10.6574 16.8879 11.3667 15.5381ZM11.3522 20.6738C10.9963 21.3304 10.3354 21.7942 9.60434 21.9162C8.43266 22.1311 7.24646 22.2604 6.06753 22.4313C5.71893 22.4972 5.37033 22.5655 5.02658 22.6437C6.02395 23.9251 7.34088 24.9064 8.4133 26.1196C8.81999 26.5955 9.05239 27.2351 8.99429 27.8648C8.82241 29.4978 8.34551 31.0918 8.28499 32.737C9.67696 32.1121 10.9842 31.3163 12.3495 30.6329C12.9911 30.2911 13.7851 30.2496 14.4532 30.5377C15.9178 31.1943 17.2468 32.1389 18.7599 32.6881C18.7284 32.2952 18.6896 31.907 18.6533 31.5165L18.5613 31.4774C18.4403 30.4474 18.2587 29.4295 18.0723 28.4116C17.8908 27.6403 18.0239 26.7835 18.5468 26.1733C19.6362 24.9455 20.941 23.9227 21.9747 22.6461C20.5101 22.3239 19.0165 22.1896 17.5398 21.9431C16.8474 21.8455 16.1672 21.4891 15.7871 20.8813C14.9325 19.4485 14.4097 17.8325 13.468 16.451C12.7054 17.8301 12.0929 19.2849 11.3522 20.6738Z" fill="#010000"/>
<path d="M58.6791 15.4331C59.5651 13.9807 61.9423 13.9515 62.8138 15.4355C63.5667 16.8171 64.1889 18.2695 64.9272 19.6608C66.4015 19.8561 67.8733 20.0709 69.3428 20.3126C71.1342 20.5689 72.0033 23.0781 70.7614 24.406C69.7035 25.5191 68.5657 26.5467 67.4884 27.6403C67.7184 29.1976 68.0452 30.7427 68.2534 32.3025C68.4083 33.9574 66.5516 35.3268 65.0192 34.8215C63.5183 34.1991 62.1796 33.1837 60.6569 32.6491C59.277 33.3081 57.9722 34.1234 56.5827 34.763C54.9994 35.4293 53.0289 33.9672 53.225 32.2463C53.4356 30.7037 53.7527 29.1781 53.9875 27.6378C52.8667 26.5321 51.6999 25.4703 50.6347 24.3108C49.4993 22.9976 50.2813 20.6714 51.9831 20.3467C53.501 20.0685 55.043 19.9074 56.5657 19.6486C57.2895 18.2524 57.8947 16.7952 58.6791 15.4331ZM58.3983 20.9545C58.023 21.4818 57.4227 21.8186 56.7957 21.9236C55.6337 22.1311 54.462 22.2678 53.2952 22.4313C52.9466 22.4972 52.598 22.568 52.2518 22.6461C53.2613 23.9154 54.5637 24.9015 55.6337 26.1098C56.0501 26.5931 56.2897 27.2448 56.2195 27.8917C56.0307 29.51 55.6167 31.0967 55.4788 32.7223C56.9458 32.1341 58.2724 31.2553 59.6982 30.5792C60.2599 30.3033 60.928 30.2789 61.5187 30.4742C63.0704 31.1064 64.4285 32.1682 66.0287 32.6808C65.9633 32.2781 65.9004 31.8802 65.8278 31.4799C65.6486 30.357 65.4356 29.2391 65.2637 28.1138C65.1209 27.3791 65.3775 26.598 65.8762 26.0512C66.9486 24.8796 68.2026 23.8837 69.2024 22.6437C67.7257 22.319 66.2175 22.1848 64.7287 21.9358C63.9734 21.8259 63.2617 21.3841 62.901 20.6958C62.1651 19.3093 61.5356 17.8643 60.7973 16.4754C59.766 17.8277 59.3279 19.5363 58.3983 20.9545Z" fill="#010000"/>
<path d="M30.6654 33.7328C32.9192 32.4538 35.7007 31.763 38.2256 32.6002C39.4409 32.981 40.4383 33.8793 41.0289 35.007C42.7913 34.6726 44.74 34.9728 46.1611 36.1274C47.6571 37.3503 48.6012 39.2152 48.7683 41.1435C49.066 43.7968 48.1873 46.4013 47.0229 48.7373C46.4806 52.3279 45.0983 55.9771 42.2805 58.379C42.295 59.8314 42.2708 61.2838 42.295 62.7361C43.3118 63.1804 44.3769 63.5221 45.3525 64.0518C45.8463 64.3374 45.7834 64.9598 45.81 65.448C45.3961 65.7165 44.9942 66.2364 44.4447 66.046C43.4062 65.7507 42.4451 65.243 41.4502 64.8378C41.1185 65.0672 40.7868 65.2991 40.4576 65.531C40.4116 66.7564 40.5569 67.9939 40.3656 69.2095C40.1623 70.1956 39.2061 70.6814 38.3346 70.9426C38.3152 72.8245 38.3394 74.7089 38.3176 76.5909C42.5613 76.6275 46.805 76.6153 51.0511 76.5958C50.9882 74.5991 51.1358 72.5927 50.9785 70.6008C50.8599 69.3999 49.952 68.5334 48.9934 67.9305C48.4705 67.6619 48.4124 67.0664 48.4632 66.5391C48.7683 66.1388 49.2113 65.7336 49.7608 65.8605C50.6831 66.1656 51.407 66.8516 52.0727 67.5399C53.5106 66.8808 55.0091 66.356 56.4374 65.6799C56.7279 65.0184 56.4931 64.186 56.5681 63.4586C54.8058 61.5523 53.5034 59.1943 52.9466 56.6411C52.7868 55.7672 52.3462 54.9861 52.1308 54.1294C51.2423 50.6705 52.4285 46.7772 55.0237 44.3631C54.8954 42.8717 55.1544 41.3071 56.0525 40.0817C57.4324 38.0582 60.1364 37.0476 62.4749 37.7946C65.1693 38.6001 67.0382 41.5268 66.5782 44.3363C68.9022 46.5917 70.0618 50.0164 69.5025 53.2286C69.3718 54.2563 68.9385 55.2107 68.7763 56.231C68.2825 58.9136 66.9413 61.3936 65.1402 63.4123C65.0047 64.1445 65.1112 64.911 65.087 65.6579C66.951 66.4464 68.8223 67.2079 70.6887 67.989C71.7345 68.4064 72.6423 69.1704 73.1943 70.1639C74.0367 71.5455 73.8116 73.22 73.8382 74.7626C73.8068 75.6707 73.9762 76.6519 73.5235 77.4867C73.0539 78.3899 72.0541 78.9513 71.0446 78.8976C48.4511 78.8976 25.8577 78.8976 3.26423 78.8952C2.20391 78.9538 1.1557 78.3093 0.724796 77.3305C0.364094 76.5201 0.519026 75.6121 0.487555 74.7529C0.528709 73.4348 0.32294 72.0556 0.82647 70.801C1.29853 69.5805 2.26927 68.5724 3.46758 68.0647C5.38486 67.2519 7.31909 66.4708 9.2388 65.6579C9.24364 64.8231 9.24364 63.9908 9.23638 63.156C6.75504 60.156 5.10889 56.2408 5.43812 52.284C5.39697 51.4736 6.08448 50.8316 6.88335 50.9195C8.16396 51.4638 7.54181 52.965 7.6919 54.0293C7.94124 56.5825 8.95798 59.0527 10.4807 61.1007C11.2481 62.06 12.2043 63.0632 13.468 63.2585C14.6953 63.2243 15.5813 62.1942 16.3294 61.3277C17.8448 59.3383 18.9414 56.9706 19.3118 54.4784C19.5127 52.3279 19.1351 49.7771 17.2832 48.42C15.5571 47.2166 13.2452 47.1043 11.2699 47.6682C10.2797 47.9391 9.22427 49.1254 8.2269 48.2247C7.83473 47.6999 7.89525 46.8993 8.4593 46.5258C10.287 45.1735 12.686 44.8757 14.8866 45.1369C16.8402 45.359 18.7647 46.2744 19.963 47.883C21.5172 49.9358 21.8319 52.6819 21.5026 55.179C20.9652 58.1179 19.6701 60.9249 17.7552 63.2121C17.8085 64.0201 17.6511 64.8719 17.8424 65.6555C19.3118 66.3438 20.8321 66.9199 22.333 67.5423C23.0423 66.6807 23.9864 66.0485 25.0273 65.6628C27.4022 64.6718 29.7915 63.7174 32.147 62.6824C32.1252 61.2569 32.1421 59.829 32.1349 58.4034C29.3412 56.0235 27.9178 52.4305 27.4022 48.8569C25.986 45.6251 25.4873 41.8465 26.6469 38.4561C26.7728 37.9264 27.2981 37.7164 27.7387 37.5212L28.1187 37.7311C28.8619 37.9654 28.9975 38.7612 28.7409 39.4227C28.0727 41.5829 28.247 43.8896 28.7845 46.0572C30.2297 44.7805 31.7233 43.5112 33.5075 42.7423C34.9551 42.1175 36.5843 41.5707 37.5405 40.2282C38.0804 39.1615 38.4169 38.0045 38.8405 36.8914C39.3513 35.8906 38.2765 34.9777 37.4074 34.7019C35.5167 34.1429 33.5438 34.8337 31.8565 35.6929C31.2876 36.0395 30.5952 35.9346 30.1377 35.4635C29.8423 34.8459 30.0045 34.0257 30.6654 33.7328ZM41.1742 37.3039C40.7215 38.4585 40.218 39.6009 39.8911 40.7994C40.2422 42.1101 41.4671 42.9572 42.5323 43.687C43.6216 44.3875 44.5415 45.3078 45.5195 46.1523C45.5655 46.1426 45.6599 46.1206 45.7084 46.1108C46.7663 43.626 47.1076 40.3038 45.0693 38.2193C44.0913 37.1135 42.5153 37.1087 41.1742 37.3039ZM58.6984 40.5846C57.9141 41.1338 57.5268 42.0442 57.2653 42.9376C59.5264 42.0491 62.0706 42.0394 64.3414 42.8888C64.1259 42.1468 63.8693 41.3681 63.2738 40.8409C62.0803 39.6423 60.013 39.5105 58.6984 40.5846ZM32.6626 45.8155C31.5272 46.6723 30.2829 47.5803 29.6874 48.9204C30.0215 50.5363 30.4427 52.1571 31.2271 53.6192C32.2123 55.5305 33.8149 57.3197 35.9791 57.7981C37.9932 58.3082 40.155 57.4539 41.5349 55.9454C43.3674 53.9585 44.3527 51.2881 44.6844 48.6226C44.1203 48.0441 43.5635 47.4607 42.9607 46.9212C41.5567 45.6202 39.729 44.8172 38.5839 43.233C38.5137 43.1158 38.3781 42.8839 38.3079 42.7692C36.6303 44.163 34.4225 44.5633 32.6626 45.8155ZM55.5998 47.1727C54.2805 49.0595 53.7939 51.542 54.4064 53.7754C54.4669 54.083 54.6363 54.5712 55.06 54.2807C57.8487 53.4386 60.0154 51.3247 61.9835 49.2597C62.4894 48.6543 63.5546 48.8276 63.8451 49.5648C64.7069 51.1319 65.6873 52.6575 67.0115 53.8706C67.9556 51.0367 67.0043 47.6486 64.6972 45.7618C61.9617 43.7383 57.551 44.2997 55.5998 47.1727ZM55.2439 56.6533C56.0307 59.1455 57.4178 61.645 59.72 62.9949C60.7755 63.6588 62.0319 63.1071 62.8792 62.3627C64.7021 60.7907 65.9294 58.5621 66.462 56.2164C64.8134 55.1887 63.603 53.5997 62.5839 51.9691C60.4826 53.9975 58.1054 55.8917 55.2439 56.6533ZM34.3862 59.7167C34.3886 60.8273 34.3862 61.9379 34.3886 63.0486C34.6162 63.2268 34.8462 63.4049 35.0737 63.5856C36.6376 64.4375 38.6614 64.2642 40.0049 63.0705C39.9952 62.2357 39.9952 61.4034 40.0025 60.571C40.0073 60.3586 40.017 59.9339 40.0219 59.7216C38.2014 60.3513 36.2018 60.3635 34.3862 59.7167ZM11.5531 65.0941C11.5749 65.9142 11.5047 66.7417 11.6112 67.557C12.7223 68.4894 14.4097 68.3967 15.5208 67.5106C15.4966 66.7002 15.4893 65.8898 15.4942 65.0794C14.2693 65.758 12.7853 65.7434 11.5531 65.0941ZM25.5696 67.9329C24.4004 68.3918 23.4562 69.5268 23.4175 70.8205C23.3764 72.7464 23.4272 74.6723 23.3957 76.5982C27.6225 76.6153 31.8468 76.6178 36.0735 76.5982C36.0711 74.5918 36.0348 72.5853 36.0832 70.5789C36.1123 69.4316 37.1532 68.6798 38.1845 68.4797C38.1869 67.7816 38.1869 67.0859 38.1893 66.3927C36.3301 66.6123 34.4298 66.0753 32.9942 64.8549C30.5153 65.8703 28.0437 66.9053 25.5696 67.9329ZM58.805 65.1234C58.834 66.0656 58.7178 67.0395 59.0228 67.9524L59.1342 67.9207L59.1003 68.1257C59.2431 69.4414 59.9936 70.596 60.836 71.5772C61.6518 70.5813 62.3103 69.4414 62.6202 68.1794C62.8405 67.1786 62.8211 66.151 62.8138 65.1331C61.5308 65.7019 60.0832 65.7092 58.805 65.1234ZM6.10869 69.4414C6.98744 71.0793 8.19785 72.5048 9.20249 74.0621C9.25574 72.0947 9.21943 70.1273 9.21459 68.1623C8.18817 68.609 7.1569 69.046 6.10869 69.4414ZM17.7843 68.1648C17.7601 70.1175 17.7383 72.0727 17.7915 74.0279C18.9051 72.5487 19.9412 71.0109 20.9797 69.4756C19.9097 69.046 18.8543 68.5871 17.7843 68.1648ZM53.1282 69.5683C53.4816 71.8945 53.2298 74.2623 53.2976 76.6056C55.4231 76.6153 57.551 76.608 59.6789 76.6104C59.6861 75.6634 59.7612 74.709 59.6523 73.7668C59.2964 73.1809 58.7759 72.722 58.3837 72.1655C57.4905 70.9694 56.9651 69.5415 56.6432 68.0916C55.4763 68.5993 54.2974 69.0753 53.1282 69.5683ZM61.9617 73.6984C61.952 74.6699 61.9593 75.6414 61.952 76.6129C64.9877 76.5982 68.0258 76.6251 71.0615 76.6031C71.4561 76.6959 71.6111 76.3004 71.582 75.9782C71.582 74.8041 71.6111 73.6252 71.5627 72.4511C71.5046 71.4186 70.8025 70.4837 69.8487 70.1175C68.2292 69.4292 66.5927 68.7823 64.978 68.0818C64.6052 70.2298 63.4868 72.1728 61.9617 73.6984ZM11.5216 70.1834C11.5628 72.3241 11.5386 74.4673 11.5337 76.608C12.8579 76.6104 14.1821 76.608 15.5063 76.6104C15.4966 74.4575 15.5014 72.3071 15.5039 70.1566C14.2257 70.6399 12.8095 70.6204 11.5216 70.1834ZM2.74859 72.7733C2.78975 74.045 2.60819 75.3412 2.88416 76.5958C4.65378 76.6153 6.42581 76.608 8.19785 76.6031C6.72599 74.5479 5.33402 72.434 3.82344 70.408C3.19887 71.0402 2.71954 71.853 2.74859 72.7733ZM18.8107 76.6007C19.5708 76.6104 20.331 76.608 21.0935 76.6104C21.0814 75.5438 21.0959 74.4795 21.079 73.4128C20.2947 74.4551 19.5926 75.556 18.8107 76.6007Z" fill="#010000"/>
<path d="M42.2853 72.1021C43.4643 71.8897 44.6795 72.0655 45.873 72.002C46.5847 72.0337 47.5796 71.8311 47.9815 72.6049C48.4729 73.3665 47.7297 74.4258 46.8631 74.3062C45.4082 74.2965 43.9484 74.3575 42.4984 74.2745C41.4042 74.1476 41.2444 72.4414 42.2853 72.1021Z" fill="#010000"/>
<path d="M36.5093 3.55299C36.7126 2.93788 37.6349 2.9037 37.8673 3.51394C38.8187 5.33488 39.6515 7.21929 40.6004 9.04023C41.0652 9.90433 41.9561 10.4804 42.9196 10.5976C44.8708 10.9002 46.8365 11.1297 48.7828 11.4739C49.296 11.5324 49.5889 12.2818 49.1895 12.6528C47.7394 14.1955 46.149 15.6039 44.6916 17.1393C44.0114 17.8618 43.8419 18.9163 44.0235 19.8683C44.3503 21.9235 44.7425 23.969 45.0523 26.0292C43.5829 25.1261 42.065 24.3059 40.5206 23.5419C39.453 23.0195 38.4023 22.2409 37.1532 22.3409C35.9985 22.3409 34.9648 22.9268 33.9965 23.4955C33.0136 24.0764 31.9945 24.5915 30.9801 25.1139C30.7138 24.7257 30.4887 24.2888 30.6412 23.8055C31.0043 21.8113 31.5539 19.7706 31.169 17.7349C30.8857 16.8439 30.1667 16.1922 29.547 15.5307C28.1744 14.1906 26.8793 12.77 25.4292 11.5129C27.6249 11.0931 29.8666 10.9173 32.0574 10.4633C33.3138 10.1387 33.9311 8.9011 34.4153 7.80512C35.1197 6.38937 35.7854 4.95654 36.5093 3.55299ZM36.013 10.6903C34.6864 11.4519 34.0086 13.2753 34.7978 14.6544C35.3763 15.7382 36.6545 15.9725 37.6858 16.4046C38.4048 16.6926 37.7947 17.813 37.1459 17.7202C36.5238 17.8057 35.9985 17.4053 35.4296 17.2345C34.592 17.0392 33.8125 18.0546 34.2313 18.8211C34.5896 19.4875 35.3812 19.6852 36.0227 19.9683C35.9767 20.7275 36.5165 21.6257 37.3711 21.4598C38.1869 21.3865 38.383 20.4858 38.366 19.8048C38.8889 19.4631 39.4433 19.1165 39.7701 18.5599C40.5496 17.3956 40.4044 15.643 39.3005 14.7325C38.5984 14.0954 37.5841 14.0661 36.8167 13.556C36.5553 13.1459 37.0297 12.8066 37.3372 12.626C37.7463 12.8408 38.1288 13.2191 38.6251 13.1947C39.2932 13.2289 39.8524 12.5308 39.712 11.8791C39.591 11.198 38.8914 10.9149 38.3781 10.5805C38.366 9.88968 37.9908 9.02559 37.175 9.10858C36.3108 9.04268 35.9961 9.98244 36.013 10.6903Z" fill="#FFD063"/>
<path d="M11.3522 20.6738C12.0929 19.2849 12.7054 17.8301 13.468 16.4509C14.4097 17.8325 14.9326 19.4484 15.7871 20.8812C16.1672 21.489 16.8474 21.8454 17.5398 21.9431C19.0165 22.1896 20.5101 22.3238 21.9747 22.6461C20.941 23.9227 19.6362 24.9454 18.5468 26.1732C18.0239 26.7835 17.8908 27.6402 18.0724 28.4116C18.2588 29.4294 18.4403 30.4473 18.5614 31.4774C17.0387 30.9062 15.7242 29.8322 14.124 29.4709C12.4924 29.1634 11.1391 30.3375 9.69876 30.8842C9.46636 29.2464 10.4928 27.484 9.50267 25.9657C8.53192 24.633 7.2029 23.6175 6.06754 22.4312C7.24647 22.2604 8.43267 22.131 9.60434 21.9162C10.3354 21.7942 10.9963 21.3304 11.3522 20.6738Z" fill="#FFD063"/>
<path d="M58.3983 20.9545C59.3279 19.5363 59.7661 17.8276 60.7973 16.4753C61.5357 17.8642 62.1651 19.3093 62.901 20.6957C63.2617 21.3841 63.9734 21.8259 64.7287 21.9357C66.2175 22.1847 67.7257 22.319 69.2024 22.6436C68.2026 23.8836 66.9486 24.8795 65.8762 26.0512C65.3775 26.5979 65.1209 27.379 65.2637 28.1138C65.4356 29.239 65.6486 30.357 65.8278 31.4798C63.9928 30.8842 62.4314 29.3098 60.41 29.4416C59.1124 29.488 58.1368 30.7256 56.8683 30.6939C56.7158 29.1268 57.6938 27.4083 56.7086 25.9511C55.7306 24.633 54.4282 23.6078 53.2952 22.4312C54.4621 22.2677 55.6337 22.131 56.7957 21.9235C57.4227 21.8186 58.0231 21.4817 58.3983 20.9545Z" fill="#FFD063"/>
<path d="M25.3227 11.42L25.4292 11.5128C26.8793 12.7699 28.1744 14.1905 29.547 15.5306C30.1667 16.1921 30.8857 16.8438 31.169 17.7348C31.5539 19.7705 31.0044 21.8111 30.6412 23.8054C30.4887 24.2887 30.7139 24.7256 30.9801 25.1137C31.9945 24.5914 33.0136 24.0763 33.9965 23.4954C34.9648 22.9267 35.9985 22.3408 37.1532 22.3408C38.4024 22.2408 39.453 23.0194 40.5206 23.5418C42.065 24.3058 43.5829 25.126 45.0523 26.0291C44.7376 26.2537 44.3624 26.7028 43.946 26.4123C42.1643 25.536 40.4455 24.5426 38.6783 23.6394C37.8044 23.1634 36.7005 23.1317 35.8169 23.5955C34.0594 24.506 32.3261 25.4701 30.5589 26.3611C30.0941 26.7394 29.3025 26.2805 29.3921 25.6971C29.6826 23.6467 30.1014 21.6159 30.4113 19.5679C30.5638 18.6379 30.22 17.6664 29.5688 17.0025C28.1212 15.5257 26.5936 14.1271 25.1726 12.6259C24.8119 12.2671 25.1992 11.7911 25.3227 11.42Z" fill="#E9AA6B"/>
<path d="M5.02658 22.6435C5.37034 22.5654 5.71893 22.4971 6.06753 22.4312C7.20289 23.6175 8.53192 24.6329 9.50266 25.9656C10.4928 27.4839 9.46635 29.2463 9.69875 30.8841C11.1391 30.3374 12.4924 29.1633 14.124 29.4708C15.7242 29.8321 17.0387 30.9061 18.5614 31.4773L18.6533 31.5164C18.6897 31.9069 18.7284 32.295 18.7599 32.688C17.2468 32.1388 15.9178 31.1941 14.4532 30.5375C13.7851 30.2495 12.9911 30.291 12.3495 30.6327C10.9842 31.3162 9.67696 32.1119 8.285 32.7368C8.34552 31.0916 8.82242 29.4977 8.99429 27.8647C9.05239 27.2349 8.82 26.5954 8.4133 26.1194C7.34088 24.9063 6.02396 23.925 5.02658 22.6435Z" fill="#E9AA6B"/>
<path d="M52.2518 22.646C52.598 22.5678 52.9466 22.4971 53.2952 22.4312C54.4281 23.6077 55.7305 24.6329 56.7085 25.951C57.6938 27.4082 56.7158 29.1267 56.8683 30.6938C58.1368 30.7255 59.1124 29.4879 60.41 29.4415C62.4314 29.3097 63.9928 30.8841 65.8278 31.4797C65.9004 31.8801 65.9633 32.2779 66.0287 32.6807C64.4285 32.1681 63.0704 31.1063 61.5187 30.4741C60.928 30.2788 60.2599 30.3032 59.6983 30.579C58.2724 31.2552 56.9458 32.1339 55.4788 32.7222C55.6168 31.0965 56.0307 29.5099 56.2195 27.8915C56.2898 27.2447 56.0501 26.593 55.6337 26.1097C54.5637 24.9014 53.2613 23.9152 52.2518 22.646Z" fill="#E9AA6B"/>
<path d="M32.6626 45.8153C34.4225 44.5631 36.6303 44.1628 38.3079 42.769C38.3781 42.8838 38.5137 43.1157 38.5839 43.2328C37.5284 43.7576 36.6327 44.568 35.5337 45.0074C34.6259 45.3857 33.6914 45.7128 32.8587 46.2449C31.6628 46.965 30.8107 48.1074 29.6874 48.9202C30.2829 47.5801 31.5272 46.6721 32.6626 45.8153Z" fill="#E9AA6B"/>
<path d="M55.244 56.6532C58.1054 55.8916 60.4826 53.9975 62.5839 51.9691C63.603 53.5996 64.8134 55.1887 66.462 56.2163C65.9294 58.562 64.7021 60.7906 62.8792 62.3626C62.0319 63.1071 60.7755 63.6587 59.72 62.9948C57.4178 61.6449 56.0307 59.1454 55.244 56.6532Z" fill="#E9AA6B"/>
<path d="M34.3862 59.7166C36.2018 60.3635 38.2014 60.3513 40.0219 59.7215C40.017 59.9339 40.0074 60.3586 40.0025 60.5709C38.4895 61.0957 36.8918 60.8687 35.3376 60.9737C34.8607 61.6669 35.1512 62.7434 35.0737 63.5855C34.8462 63.4049 34.6162 63.2267 34.3886 63.0485C34.3862 61.9379 34.3887 60.8272 34.3862 59.7166Z" fill="#E9AA6B"/>
<path d="M59.7055 66.4072C60.6835 66.3511 61.664 66.2949 62.6444 66.2314C62.6492 66.8807 62.6565 67.53 62.6202 68.1793C62.3103 69.4413 61.6519 70.5812 60.8361 71.5771C59.9936 70.5959 59.2432 69.4413 59.1003 68.1256L59.1342 67.9206C59.2335 67.8327 59.432 67.6521 59.5312 67.5618C59.5893 67.1761 59.645 66.7904 59.7055 66.4072Z" fill="#E9AA6B"/>
<path d="M31.8565 35.6929C33.5438 34.8337 35.5167 34.1429 37.4074 34.7019C38.2765 34.9777 39.3513 35.8906 38.8405 36.8914C38.4169 38.0045 38.0804 39.1615 37.5405 40.2281C36.5843 41.5707 34.9551 42.1174 33.5075 42.7423C31.7233 43.5112 30.2297 44.7805 28.7845 46.0571C28.247 43.8896 28.0728 41.5829 28.7409 39.4226C28.9975 38.7611 28.8619 37.9654 28.1187 37.7311C28.7312 36.9231 29.317 36.0761 30.1377 35.4634C30.5952 35.9345 31.2876 36.0395 31.8565 35.6929Z" fill="#835A50"/>
<path d="M41.1742 37.3039C42.5153 37.1086 44.0913 37.1135 45.0693 38.2193C47.1076 40.3038 46.7663 43.626 45.7084 46.1108C45.66 46.1206 45.5655 46.1426 45.5196 46.1523C44.5415 45.3078 43.6216 44.3875 42.5323 43.687C41.4671 42.9571 40.2422 42.1101 39.8912 40.7994C40.218 39.6009 40.7215 38.4585 41.1742 37.3039Z" fill="#835A50"/>
<path d="M58.6985 40.5846C60.013 39.5105 62.0803 39.6424 63.2738 40.8408C63.8693 41.3681 64.1259 42.1467 64.3414 42.8888C62.0707 42.0393 59.5264 42.0491 57.2654 42.9376C57.5268 42.0442 57.9141 41.1338 58.6985 40.5846Z" fill="#835A50"/>
<path d="M55.5998 47.1727C57.551 44.2997 61.9617 43.7383 64.6973 45.7619C67.0043 47.6487 67.9557 51.0367 67.0116 53.8707C65.6874 52.6575 64.707 51.1319 63.8451 49.5649C63.5547 48.8277 62.4895 48.6544 61.9835 49.2597C60.0154 51.3248 57.8488 53.4386 55.06 54.2808C54.6363 54.5712 54.4669 54.083 54.4064 53.7755C53.7939 51.542 54.2805 49.0596 55.5998 47.1727Z" fill="#835A50"/>
<path d="M35.5337 45.0075C36.6327 44.5682 37.5284 43.7578 38.5839 43.233C39.7289 44.8171 41.5567 45.6202 42.9607 46.9212C43.5635 47.4607 44.1203 48.0441 44.6844 48.6226C44.3527 51.2881 43.3674 53.9585 41.5349 55.9454C40.155 57.4539 37.9932 58.3082 35.9791 57.7981C33.8149 57.3197 32.2123 55.5305 31.227 53.6192C30.4427 52.1571 30.0215 50.5363 29.6874 48.9204C30.8107 48.1075 31.6628 46.9652 32.8587 46.2451C33.6914 45.713 34.6259 45.3859 35.5337 45.0075Z" fill="#EDD3A4"/>
<path d="M35.3376 60.9737C36.8918 60.8688 38.4895 61.0958 40.0025 60.571C39.9952 61.4033 39.9952 62.2357 40.0049 63.0705C38.6614 64.2641 36.6376 64.4374 35.0737 63.5856C35.1512 62.7434 34.8607 61.667 35.3376 60.9737Z" fill="#EDD3A4"/>
<path d="M6.10867 69.4414C7.15688 69.046 8.18815 68.609 9.21457 68.1624C9.21941 70.1273 9.25573 72.0947 9.20247 74.0621C8.19783 72.5048 6.98743 71.0793 6.10867 69.4414Z" fill="#EDD3A4"/>
<path d="M17.7843 68.1648C18.8543 68.5871 19.9097 69.046 20.9797 69.4756C19.9412 71.0109 18.9051 72.5487 17.7915 74.0279C17.7383 72.0727 17.7601 70.1176 17.7843 68.1648Z" fill="#EDD3A4"/>
<path d="M2.74859 72.7732C2.71954 71.853 3.19886 71.0402 3.82343 70.408C5.33402 72.4339 6.72599 74.5478 8.19784 76.6031C6.42581 76.608 4.65377 76.6153 2.88416 76.5958C2.60818 75.3411 2.78974 74.045 2.74859 72.7732Z" fill="#EDD3A4"/>
<path d="M18.8107 76.6007C19.5926 75.556 20.2947 74.4551 21.079 73.4128C21.0959 74.4795 21.0814 75.5438 21.0935 76.6105C20.331 76.608 19.5708 76.6105 18.8107 76.6007Z" fill="#EDD3A4"/>
<path d="M11.2699 47.6682C13.2453 47.1043 15.5571 47.2166 17.2832 48.42C19.1351 49.7771 19.5127 52.3279 19.3118 54.4784C18.9414 56.9706 17.8448 59.3383 16.3294 61.3277C15.5813 62.1942 14.6953 63.2243 13.468 63.2585C12.2043 63.0632 11.2481 62.06 10.4807 61.1007C8.958 59.0527 7.94126 56.5825 7.69191 54.0293C7.54182 52.965 8.16397 51.4638 6.88336 50.9195C7.06734 49.9065 7.62171 49.0302 8.22691 48.2247C9.22429 49.1254 10.2798 47.9391 11.2699 47.6682Z" fill="#C48958"/>
<path d="M11.5531 65.0941C12.7853 65.7434 14.2693 65.7581 15.4942 65.0795C15.4893 65.8899 15.4966 66.7003 15.5208 67.5107C14.4097 68.3967 12.7224 68.4895 11.6112 67.557C11.5047 66.7418 11.5749 65.9143 11.5531 65.0941Z" fill="#C48958"/>
<path d="M58.805 65.1234C60.0832 65.7092 61.5308 65.7019 62.8139 65.1331C62.8211 66.151 62.8405 67.1786 62.6202 68.1794C62.6565 67.5301 62.6493 66.8808 62.6444 66.2315C61.664 66.295 60.6835 66.3511 59.7055 66.4073C59.645 66.7905 59.5893 67.1762 59.5312 67.5619C59.432 67.6522 59.2335 67.8328 59.1342 67.9207L59.0229 67.9524C58.7178 67.0395 58.834 66.0656 58.805 65.1234Z" fill="#C48958"/>
<path d="M25.5696 67.9341C28.0437 66.9065 30.5153 65.8715 32.9942 64.8561C34.4298 66.0765 36.3301 66.6136 38.1893 66.3939C38.1869 67.0871 38.1869 67.7828 38.1845 68.4809C37.1532 68.681 36.1122 69.4328 36.0832 70.5801C36.0348 72.5865 36.0711 74.593 36.0735 76.5994C31.8468 76.619 27.6225 76.6165 23.3957 76.5994C23.4272 74.6735 23.3764 72.7476 23.4175 70.8217C23.4562 69.528 24.4004 68.393 25.5696 67.9341Z" fill="#DF646E"/>
<path d="M40.4576 65.531C40.7869 65.2991 41.1185 65.0672 41.4502 64.8378C42.4451 65.243 43.4062 65.7507 44.4447 66.046C44.9942 66.2364 45.3961 65.7165 45.81 65.448C46.713 65.758 47.5966 66.1339 48.4633 66.5391C48.4124 67.0664 48.4705 67.6619 48.9934 67.9304C49.9521 68.5334 50.8599 69.3999 50.9785 70.6008C51.1358 72.5927 50.9882 74.5991 51.0511 76.5958C46.805 76.6153 42.5613 76.6275 38.3176 76.5909C38.3394 74.7089 38.3152 72.8245 38.3346 70.9426C39.2061 70.6814 40.1623 70.1956 40.3656 69.2095C40.5569 67.9939 40.4116 66.7564 40.4576 65.531ZM42.2853 72.102C41.2444 72.4413 41.4042 74.1475 42.4984 74.2745C43.9484 74.3575 45.4082 74.2964 46.8631 74.3062C47.7298 74.4258 48.4729 73.3664 47.9815 72.6049C47.5797 71.8311 46.5847 72.0337 45.873 72.0019C44.6795 72.0654 43.4643 71.8897 42.2853 72.102Z" fill="#DF646E"/>
<path d="M53.1282 69.5681C54.2974 69.075 55.4764 68.599 56.6432 68.0913C56.9652 69.5412 57.4905 70.9692 58.3838 72.1653C58.7759 72.7218 59.2964 73.1807 59.6523 73.7665C59.7612 74.7087 59.6862 75.6631 59.6789 76.6102C57.551 76.6078 55.4231 76.6151 53.2976 76.6053C53.2298 74.262 53.4816 71.8943 53.1282 69.5681Z" fill="#D6CCF2"/>
<path d="M61.9617 73.6985C63.4869 72.1729 64.6053 70.2299 64.9781 68.0818C66.5928 68.7824 68.2292 69.4292 69.8488 70.1176C70.8026 70.4837 71.5046 71.4186 71.5627 72.4511C71.6111 73.6252 71.5821 74.8042 71.5821 75.9783C71.6111 76.3005 71.4562 76.6959 71.0616 76.6032C68.0259 76.6252 64.9878 76.5983 61.9521 76.613C61.9593 75.6415 61.9521 74.67 61.9617 73.6985Z" fill="#D6CCF2"/>
</svg>
