<svg xmlns="http://www.w3.org/2000/svg" width="86" height="77" fill="none" style=""><rect id="backgroundrect" width="100%" height="100%" x="0" y="0" fill="none" stroke="none" class="" style=""/>
















<g class="currentLayer" style=""><title>Layer 1</title><path d="M17.755656284713744,1.590183516998291 C17.750256284713746,0.6771535169982918 18.631656284713742,-0.05274648300170881 19.53185628471374,0.0029935169982913123 C35.08865628471374,0.026883516998291057 50.64555628471375,-0.015586483001708729 66.20235628471374,0.0189235169982922 C67.09715628471375,-0.0633564830017086 67.96245628471374,0.6904235169982904 67.96515628471374,1.5848735169982913 C67.99465628471374,5.717413516998292 67.96515628471374,9.849913516998292 67.97855628471375,13.979813516998291 C73.58295628471375,17.14351351699829 79.18205628471374,20.31791351699829 84.77845628471374,23.48961351699829 C85.55005628471375,23.877113516998293 85.96795628471375,24.853813516998294 85.57945628471374,25.64741351699829 C84.96865628471375,26.879013516998292 84.33645628471375,28.099913516998292 83.69885628471374,29.315513516998294 C83.32645628471374,30.09851351699829 82.35135628471375,30.409013516998293 81.55295628471374,30.127613516998288 C80.84845628471375,29.75871351699829 80.33135628471375,28.946513516998294 80.59395628471374,28.14761351699829 C80.93145628471375,27.28241351699829 81.41905628471375,26.483513516998293 81.84495628471375,25.660713516998293 C77.23445628471374,23.01721351699829 72.59445628471374,20.429413516998295 67.98395628471374,17.785813516998292 C67.97585628471374,29.413713516998293 67.96785628471375,41.04421351699829 67.98925628471375,52.67201351699829 C69.91275628471375,48.87391351699829 71.86845628471374,45.08911351699829 73.81335628471375,41.301613516998295 C74.17235628471374,40.39131351699829 75.29755628471375,39.96931351699829 76.17355628471374,40.42311351699829 C76.96115628471375,40.85571351699829 77.30675628471374,41.90151351699829 76.85135628471375,42.68981351699829 C73.90445628471375,48.457213516998294 70.92815628471375,54.21151351699828 67.99995628471375,59.98951351699829 C67.93565628471374,62.203113516998286 68.00535628471374,64.41931351699829 67.97055628471375,66.63561351699829 C68.01875628471375,67.48751351699829 67.28735628471375,68.3130135169983 66.42205628471375,68.34221351699829 C65.51655628471374,68.3793135169983 64.61105628471374,68.35011351699829 63.70555628471375,68.35011351699829 C62.34735628471374,70.94331351699829 61.05605628471375,73.57091351699829 59.68175628471374,76.15601351699829 C59.250456284713756,76.95491351699829 58.13065628471375,77.1858135169983 57.369756284713745,76.7240135169983 C52.78335628471375,74.16541351699829 48.18895628471375,71.62011351699829 43.602456284713746,69.06151351699829 C43.31855628471374,68.9633135169983 42.98095628471375,68.58641351699829 42.683556284713745,68.84651351699829 C38.61425628471375,71.3520135169983 34.555556284713745,73.87871351699829 30.488856284713748,76.3896135169983 C30.175456284713746,76.5886135169983 29.811056284713743,76.67621351699829 29.465456284713746,76.79831351699829 C28.862756284713747,76.65231351699829 28.235856284713748,76.38161351699829 27.959956284713748,75.78971351699829 C26.588256284713744,73.3134135169983 25.208556284713744,70.84501351699829 23.853056284713745,68.36081351699829 C22.331356284713742,68.32091351699829 20.809656284713746,68.37401351699829 19.288056284713747,68.3369135169983 C18.430756284713745,68.3130135169983 17.707456284713746,67.4928135169983 17.750256284713746,66.65151351699829 C17.731556284713744,63.62311351699829 17.755656284713744,60.597313516998284 17.739556284713746,57.5716135169983 C17.752956284713747,57.189413516998286 17.460956284713745,56.8922135169983 17.310956284713747,56.563013516998296 C11.623456284713747,46.31271351699829 5.952056284713745,36.05441351699829 0.2699562847137448,25.80401351699829 C-0.08634371528625445,25.24131351699829 -0.1051437152862551,24.469013516998288 0.3047562847137454,23.930213516998293 C0.6503562847137445,23.457813516998293 1.234356284713746,23.261313516998293 1.7165562847137448,22.95881351699829 C7.0584562847137455,19.927713516998296 12.432556284713744,16.95241351699829 17.755656284713744,13.886913516998291 C17.736856284713745,9.788913516998292 17.736856284713745,5.688213516998289 17.755656284713744,1.590183516998291 zM21.093656284713745,3.32331351699829 C21.101756284713744,23.895713516998292 21.088356284713747,44.46541351699829 21.099056284713747,65.0351135169983 C35.60835628471374,64.9979135169983 50.115056284713745,65.03781351699828 64.62445628471374,65.01651351699829 C64.62715628471375,44.45211351699829 64.62175628471374,23.88771351699829 64.62715628471375,3.32331351699829 C50.115056284713745,3.320713516998289 35.60575628471374,3.320713516998289 21.093656284713745,3.32331351699829 zM3.9347562847137425,25.51211351699829 C8.534556284713744,33.80901351699829 13.099556284713746,42.12711351699829 17.736856284713745,50.39481351699829 C17.755656284713744,48.01131351699829 17.731556284713744,45.62531351699829 17.750256284713746,43.24181351699829 C17.728856284713746,42.92861351699829 17.803856284713746,42.580913516998294 17.616356284713746,42.30491351699829 C14.873056284713744,37.57521351699829 12.105656284713746,32.85611351699829 9.362356284713744,28.12641351699829 C8.901656284713745,27.34341351699829 9.228456284713744,26.25521351699829 10.048256284713744,25.846513516998293 C12.601256284713745,24.38411351699829 15.146356284713747,22.90831351699829 17.718156284713746,21.477813516998296 C17.771756284713746,20.22761351699829 17.731556284713744,18.98021351699829 17.742256284713743,17.73011351699829 C13.145156284713746,20.336513516998295 8.542656284713747,22.929613516998288 3.9347562847137425,25.51211351699829 zM13.121056284713745,27.908813516998293 C14.623956284713746,30.57891351699829 16.212556284713745,33.201213516998294 17.726156284713745,35.86331351699829 C17.761056284713746,32.33061351699829 17.736856284713745,28.79531351699829 17.739556284713746,25.25991351699829 C16.209856284713744,26.159713516998288 14.669456284713746,27.04351351699829 13.121056284713745,27.908813516998293 zM27.635756284713743,68.36341351699829 C28.490356284713748,69.79131351699829 29.256556284713746,71.27241351699828 30.076256284713743,72.71891351699828 C32.44455628471375,71.29091351699829 34.783256284713744,69.81791351699829 37.13545628471375,68.36341351699829 C33.968856284713745,68.3369135169983 30.802356284713746,68.3369135169983 27.635756284713743,68.36341351699829 zM49.21495628471374,68.37401351699829 C51.99575628471375,69.92141351699829 54.76585628471375,71.4953135169983 57.56805628471375,73.00291351699829 C58.36365628471374,71.4529135169983 59.12455628471375,69.88691351699829 59.96575628471375,68.36341351699829 C56.38395628471375,68.34481351699829 52.79675628471375,68.3236135169983 49.21495628471374,68.37401351699829 z" fill="black" id="svg_1" class=""/><path d="M27.402656284713743,12.08991351699829 C28.184956284713742,9.932113516998292 30.362956284713746,8.35821351699829 32.68025628471374,8.302413516998293 C34.95735628471375,8.190913516998293 37.20505628471375,9.54461351699829 38.17215628471374,11.58561351699829 C38.88745628471374,13.00291351699829 38.914256284713744,14.698913516998292 38.386456284713745,16.18261351699829 C39.902756284713746,17.24961351699829 40.92075628471375,18.96951351699829 41.14045628471374,20.79821351699829 C41.24225628471375,22.71181351699829 41.16995628471375,24.630813516998288 41.18065628471375,26.547113516998294 C41.215456284713746,27.473413516998292 40.326056284713744,28.264313516998293 39.40715628471374,28.203313516998293 C35.02165628471374,28.20061351699829 30.633456284713745,28.203313516998293 26.245356284713743,28.203313516998293 C25.195156284713747,28.298813516998294 24.292356284713748,27.300913516998293 24.437056284713748,26.27901351699829 C24.520056284713746,24.243313516998292 24.268256284713743,22.178313516998287 24.595056284713742,20.161213516998288 C24.959456284713745,18.55281351699829 25.929256284713745,17.066413516998292 27.316956284713747,16.14281351699829 C27.022256284713748,14.80781351699829 26.861456284713746,13.39041351699829 27.402656284713743,12.08991351699829 zM31.967656284713748,11.80061351699829 C30.263756284713743,12.39781351699829 29.835156284713747,14.884713516998293 31.276456284713746,15.988913516998291 C32.538256284713746,17.17791351699829 34.820756284713745,16.49051351699829 35.281556284713744,14.85551351699829 C36.02895628471374,12.987013516998292 33.80545628471374,10.935313516998292 31.967656284713748,11.80061351699829 zM27.815256284713747,21.21221351699829 C27.76435628471374,22.43851351699829 27.804456284713744,23.66731351699829 27.799156284713746,24.896213516998294 C31.14255628471375,24.880313516998292 34.48585628471375,24.880313516998292 37.82925628471374,24.896213516998294 C37.82385628471375,23.66471351699829 37.866756284713745,22.43051351699829 37.810456284713744,21.201613516998293 C37.727456284713746,20.23021351699829 37.12735628471375,19.404713516998292 36.38525628471375,18.80491351699829 C34.322456284713745,20.26471351699829 31.375556284713745,20.262013516998294 29.34225628471375,18.74391351699829 C28.538556284713742,19.33571351699829 27.903656284713747,20.19831351699829 27.815256284713747,21.21221351699829 z" fill="black" id="svg_2" class=""/><path d="M45.148256284713746,18.50251351699829 C45.432256284713745,18.32741351699829 45.737656284713744,18.24511351699829 46.069856284713744,18.25301351699829 C50.54645628471374,18.247713516998292 55.02035628471374,18.25301351699829 59.49425628471374,18.25041351699829 C60.41315628471375,18.19201351699829 61.29985628471374,18.96971351699829 61.281156284713745,19.896013516998295 C61.31595628471375,20.840813516998296 60.40235628471375,21.647713516998294 59.46745628471375,21.568113516998295 C54.89175628471375,21.552213516998293 50.31335628471375,21.594613516998294 45.74035628471375,21.54951351699829 C44.280256284713744,21.347813516998286 43.865056284713745,19.219213516998295 45.148256284713746,18.50251351699829 z" fill="black" id="svg_3" class=""/><path d="M45.15095628471374,25.137813516998293 C45.50455628471374,24.90961351699829 45.92785628471375,24.86441351699829 46.340456284713746,24.88301351699829 C49.651656284713745,24.893613516998293 52.96285628471375,24.87771351699829 56.27145628471375,24.891013516998292 C57.40995628471374,24.84321351699829 58.31815628471375,26.180913516998288 57.79035628471375,27.200113516998293 C57.514456284713745,27.898113516998293 56.72955628471375,28.29101351699829 55.99545628471374,28.20601351699829 C52.57705628471375,28.18481351699829 49.158756284713746,28.229913516998295 45.74035628471375,28.18481351699829 C44.280256284713744,27.98571351699829 43.865056284713745,25.85181351699829 45.15095628471374,25.137813516998293 z" fill="black" id="svg_4" class=""/><path d="M77.17555628471375,34.83871351699829 C77.36575628471374,33.92311351699829 78.39715628471374,33.39751351699829 79.28385628471375,33.63641351699829 C80.23225628471374,33.94161351699829 80.81085628471375,35.13341351699829 80.26705628471375,36.01451351699829 C79.87855628471374,36.82141351699829 78.84455628471375,37.04971351699829 78.04885628471375,36.74441351699829 C77.42195628471374,36.35431351699829 76.91565628471375,35.58721351699829 77.17555628471375,34.83871351699829 z" fill="black" id="svg_5" class=""/><path d="M31.975656284713743,37.06291351699829 C32.59715628471375,36.70731351699829 33.33395628471374,36.85591351699829 34.01435628471374,36.82931351699829 C42.506756284713745,36.83201351699829 50.999156284713735,36.82931351699829 59.49155628471374,36.82931351699829 C60.233656284713746,36.78951351699829 60.959656284713745,37.27521351699829 61.20075628471375,37.97331351699829 C61.59455628471375,39.04291351699829 60.619356284713746,40.24791351699829 59.48885628471375,40.14701351699829 C50.55175628471375,40.13911351699829 41.614656284713746,40.16031351699829 32.677556284713745,40.13641351699829 C31.096956284713755,40.09931351699829 30.563856284713744,37.76361351699829 31.975656284713743,37.06291351699829 z" fill="black" id="svg_6" class=""/><path d="M25.28895628471375,43.69311351699829 C25.588956284713746,43.52851351699829 25.910456284713746,43.45151351699829 26.256056284713743,43.46481351699829 C32.86775628471374,43.46481351699829 39.479556284713745,43.46751351699829 46.088556284713746,43.46481351699829 C47.01285628471374,43.40381351699829 47.907656284713745,44.18671351699829 47.88615628471374,45.12101351699829 C47.912956284713744,46.05261351699829 47.026256284713746,46.84621351699829 46.101956284713744,46.78251351699829 C39.391156284713745,46.77191351699829 32.68295628471375,46.795813516998294 25.97475628471374,46.77191351699829 C24.391456284713747,46.73211351699829 23.869056284713743,44.38581351699829 25.28895628471375,43.69311351699829 z" fill="black" id="svg_7" class=""/><path d="M21.093656284713745,3.3235135169982897 C35.60575628471374,3.3208135169982924 50.11515628471375,3.3208135169982924 64.62715628471375,3.3235135169982897 C64.62185628471374,23.887813516998293 64.62715628471375,44.45221351699829 64.62445628471374,65.01661351699829 C50.11515628471375,65.03791351699829 35.608456284713746,64.99811351699829 21.099056284713747,65.0352135169983 C21.088356284713747,44.46551351699829 21.101756284713744,23.895813516998288 21.093656284713745,3.3235135169982897 zM27.402656284713743,12.09011351699829 C26.861556284713743,13.39071351699829 27.022256284713748,14.80801351699829 27.316956284713747,16.14301351699829 C25.929256284713745,17.06671351699829 24.959456284713745,18.55301351699829 24.595156284713745,20.161413516998294 C24.268256284713743,22.17861351699829 24.520056284713746,24.24351351699829 24.437056284713748,26.27921351699829 C24.292356284713748,27.301113516998292 25.195156284713747,28.29911351699829 26.245356284713743,28.203513516998292 C30.633556284713755,28.203513516998292 35.021756284713746,28.200813516998288 39.407256284713746,28.203513516998292 C40.326056284713744,28.264513516998292 41.21555628471374,27.47361351699829 41.18065628471375,26.5473135169983 C41.16995628471375,24.631013516998294 41.24235628471374,22.712113516998286 41.140556284713746,20.798413516998295 C40.92085628471374,18.96971351699829 39.90285628471374,17.24981351699829 38.38655628471375,16.18281351699829 C38.914256284713744,14.699213516998292 38.88745628471374,13.00321351699829 38.17215628471374,11.58581351699829 C37.20505628471375,9.544813516998293 34.95745628471374,8.191213516998289 32.68025628471374,8.302613516998292 C30.362956284713746,8.35841351699829 28.184956284713742,9.932313516998292 27.402656284713743,12.09011351699829 zM45.148256284713746,18.50261351699829 C43.865056284713745,19.219213516998295 44.280256284713744,21.347813516998286 45.74035628471375,21.54951351699829 C50.31335628471375,21.59471351699829 54.89175628471375,21.552213516998293 59.46745628471375,21.568113516998295 C60.40245628471375,21.647713516998294 61.31595628471375,20.84091351699829 61.281156284713745,19.896013516998295 C61.29985628471374,18.96971351699829 60.41315628471375,18.19201351699829 59.49425628471374,18.25041351699829 C55.02035628471374,18.25311351699829 50.54645628471374,18.247813516998292 46.069856284713744,18.25311351699829 C45.737656284713744,18.24511351699829 45.432256284713745,18.32741351699829 45.148256284713746,18.50261351699829 zM45.15095628471374,25.138013516998292 C43.865056284713745,25.851913516998295 44.280256284713744,27.985913516998288 45.74035628471375,28.184913516998293 C49.158756284713746,28.23001351699829 52.57705628471375,28.184913516998293 55.99545628471374,28.20621351699829 C56.72955628471375,28.291113516998294 57.514456284713745,27.898313516998293 57.79035628471375,27.20021351699829 C58.31815628471375,26.18101351699829 57.40995628471374,24.843313516998293 56.27145628471375,24.89111351699829 C52.96285628471375,24.877813516998295 49.651656284713745,24.893813516998293 46.340456284713746,24.88321351699829 C45.92785628471375,24.86461351699829 45.50455628471374,24.909713516998288 45.15095628471374,25.138013516998292 zM31.975756284713746,37.06311351699829 C30.563856284713744,37.76381351699829 31.096956284713755,40.09941351699829 32.677556284713745,40.13661351699829 C41.614656284713746,40.16051351699829 50.55175628471375,40.13921351699829 59.48885628471375,40.14721351699829 C60.61945628471375,40.24811351699829 61.59455628471375,39.04311351699829 61.20075628471375,37.97341351699829 C60.959656284713745,37.27541351699829 60.233656284713746,36.78971351699829 59.49155628471374,36.82951351699829 C50.999156284713735,36.82951351699829 42.506756284713745,36.832213516998294 34.014456284713745,36.82951351699829 C33.33395628471374,36.85601351699829 32.597256284713744,36.707413516998294 31.975756284713746,37.06311351699829 zM25.28895628471375,43.69321351699829 C23.869056284713743,44.38591351699829 24.391456284713747,46.73221351699829 25.97475628471374,46.77201351699829 C32.68295628471375,46.79591351699829 39.391156284713745,46.77201351699829 46.101956284713744,46.78261351699829 C47.026256284713746,46.84631351699829 47.912956284713744,46.05271351699829 47.88615628471374,45.12111351699829 C47.907656284713745,44.18681351699829 47.01285628471374,43.40381351699829 46.088556284713746,43.464913516998294 C39.479556284713745,43.46751351699829 32.867856284713746,43.464913516998294 26.256056284713743,43.464913516998294 C25.910456284713746,43.45161351699829 25.58905628471375,43.52861351699829 25.28895628471375,43.69321351699829 zM52.88785628471375,43.70641351699829 C51.52965628471375,44.407113516998294 51.993056284713745,46.62861351699829 53.509356284713746,46.76931351699829 C55.49985628471374,46.80121351699829 57.493056284713745,46.77201351699829 59.48615628471374,46.78261351699829 C60.410456284713746,46.85431351699829 61.302556284713745,46.06331351699829 61.281156284713745,45.13171351699829 C61.31055628471374,44.19211351699829 60.40775628471374,43.39851351699829 59.47815628471375,43.464913516998294 C57.69395628471375,43.46221351699829 55.91245628471374,43.47021351699829 54.13095628471375,43.46221351699829 C53.70225628471374,43.44631351699829 53.26025628471375,43.47551351699829 52.88785628471375,43.70641351699829 z" fill="#FFFCF2" id="svg_9" class=""/><path d="M52.88785628471375,43.70631351699829 C53.260156284713744,43.475413516998294 53.70225628471374,43.44621351699829 54.130856284713744,43.46221351699829 C55.91235628471375,43.47011351699829 57.69395628471375,43.46221351699829 59.47815628471375,43.46481351699829 C60.40775628471374,43.39851351699829 61.31055628471374,44.192013516998294 61.28105628471374,45.13161351699829 C61.302556284713745,46.06321351699829 60.410456284713746,46.85421351699829 59.48615628471374,46.78251351699829 C57.49295628471374,46.77191351699829 55.49985628471374,46.80111351699829 53.509356284713746,46.76921351699829 C51.993056284713745,46.62851351699829 51.52955628471375,44.40701351699829 52.88785628471375,43.70631351699829 z" fill="black" id="svg_8" class=""/><path d="M67.98395628471374,17.785913516998292 C72.59445628471374,20.429413516998295 77.23445628471374,23.01721351699829 81.84495628471375,25.66081351699829 C81.41905628471375,26.483513516998293 80.93145628471375,27.28241351699829 80.59395628471374,28.147713516998294 C80.33135628471375,28.94661351699829 80.84845628471375,29.758813516998288 81.55295628471374,30.12771351699829 C80.81355628471374,31.303513516998294 80.29385628471374,32.657113516998294 79.28385628471375,33.63651351699829 C78.39715628471374,33.39761351699829 77.36575628471374,33.92311351699829 77.17555628471375,34.83881351699829 C76.91565628471375,35.58731351699829 77.42195628471374,36.35431351699829 78.04885628471375,36.74451351699829 C77.40595628471374,37.96011351699829 76.79775628471374,39.19431351699829 76.17355628471374,40.42321351699829 C75.29755628471375,39.96931351699829 74.17235628471374,40.39131351699829 73.81335628471375,41.30171351699829 C71.86845628471374,45.08921351699829 69.91275628471375,48.87401351699829 67.98925628471375,52.672113516998294 C67.96785628471375,41.04421351699829 67.97585628471374,29.413713516998293 67.98395628471374,17.785913516998292 z" fill="#FFFCF2" id="svg_10" class=""/><path d="M49.21495628471374,68.37411351699829 C52.79675628471375,68.3237135169983 56.38395628471375,68.34491351699829 59.96575628471375,68.3635135169983 C59.12455628471375,69.8870135169983 58.36365628471374,71.4529135169983 57.56805628471375,73.00291351699829 C54.76585628471375,71.4954135169983 51.99575628471375,69.92151351699829 49.21495628471374,68.37411351699829 z" fill="white" id="svg_11" class=""/><path d="M31.967656284713748,11.80081351699829 C33.80545628471374,10.935513516998292 36.02905628471375,12.987213516998292 35.281556284713744,14.855713516998293 C34.820756284713745,16.49071351699829 32.53835628471374,17.17811351699829 31.276456284713746,15.989013516998291 C29.835256284713743,14.884913516998292 30.263856284713746,12.39801351699829 31.967656284713748,11.80081351699829 z" fill="#FFBE90" id="svg_12" class=""/><path d="M3.9347562847137425,25.51211351699829 C8.542656284713747,22.929613516998288 13.145156284713746,20.336513516998295 17.742256284713743,17.73021351699829 C17.731556284713744,18.98031351699829 17.771756284713746,20.227713516998293 17.718156284713746,21.477813516998296 C15.146356284713747,22.908413516998294 12.601356284713745,24.38411351699829 10.048256284713744,25.84661351699829 C9.228456284713744,26.255313516998292 8.901656284713745,27.343513516998293 9.362456284713744,28.126513516998294 C12.105656284713746,32.85621351699829 14.873056284713744,37.57531351699829 17.616356284713746,42.305013516998294 C17.803856284713746,42.58101351699829 17.728856284713746,42.92871351699829 17.750356284713746,43.24191351699829 C17.731556284713744,45.62531351699829 17.755656284713744,48.01141351699829 17.736956284713745,50.394913516998294 C13.099556284713746,42.12721351699829 8.534656284713744,33.80901351699829 3.9347562847137425,25.51211351699829 z" fill="#FFF7BF" id="svg_13" class=""/><path d="M27.635756284713743,68.3635135169983 C30.802356284713746,68.3370135169983 33.968856284713745,68.3370135169983 37.13545628471375,68.3635135169983 C34.783256284713744,69.81801351699829 32.44455628471375,71.2911135169983 30.076356284713746,72.71901351699829 C29.256556284713746,71.27251351699829 28.490356284713748,69.7915135169983 27.635756284713743,68.3635135169983 z" fill="#FFF7BF" id="svg_14" class=""/><path d="M27.815256284713747,21.212413516998296 C27.903656284713747,20.19851351699829 28.538556284713742,19.33591351699829 29.34225628471375,18.74401351699829 C31.37565628471374,20.262213516998287 34.32255628471375,20.264813516998288 36.385356284713744,18.80511351699829 C37.12735628471375,19.404913516998292 37.727456284713746,20.230313516998294 37.81055628471375,21.20171351699829 C37.866756284713745,22.430613516998292 37.823956284713745,23.664813516998294 37.82925628471374,24.89631351699829 C34.485956284713744,24.88041351699829 31.14255628471375,24.88041351699829 27.799156284713746,24.89631351699829 C27.804556284713748,23.66751351699829 27.76435628471374,22.438613516998288 27.815256284713747,21.212413516998296 z" fill="#89DF8F" id="svg_15" class=""/><path d="M13.121056284713745,27.908813516998293 C14.669456284713746,27.04351351699829 16.209956284713744,26.159713516998288 17.739656284713746,25.25991351699829 C17.736956284713745,28.79531351699829 17.761056284713746,32.33061351699829 17.726256284713745,35.86331351699829 C16.212556284713745,33.201213516998294 14.623956284713746,30.57891351699829 13.121056284713745,27.908813516998293 z" fill="#FF5A58" id="svg_16" class=""/></g></svg>