<svg width="62" height="59" viewBox="0 0 62 59" fill="none" xmlns="http://www.w3.org/2000/svg">
<path d="M42.3947 54.7862H44.3699C44.7284 54.7862 44.9914 54.773 45.1613 54.7437C45.3325 54.7139 45.4781 54.6606 45.5978 54.5795C45.8326 54.4243 45.9494 54.1562 45.9494 53.7761C45.9494 53.4019 45.8326 53.1365 45.5978 52.9778C45.4781 52.8969 45.3325 52.8436 45.1653 52.8146C44.9948 52.7855 44.7319 52.7718 44.3699 52.7718H42.3947V54.7862ZM42.3947 55.334V57.3474C42.3947 57.4488 42.4163 57.5265 42.4629 57.5802C42.5073 57.6334 42.5874 57.6764 42.7019 57.7113V57.876H41.3561V57.7113C41.4765 57.6764 41.5581 57.6334 41.6045 57.5802C41.651 57.5265 41.6749 57.4488 41.6749 57.3493V52.727C41.6749 52.6283 41.651 52.5563 41.6029 52.5077C41.5549 52.4582 41.4727 52.4183 41.3561 52.3888V52.2236H44.4664C44.8807 52.2236 45.1942 52.2431 45.4062 52.2789C45.6186 52.3168 45.8107 52.3871 45.9799 52.4904C46.1842 52.6113 46.3445 52.7872 46.4612 53.018C46.5793 53.2479 46.6379 53.5021 46.6379 53.7809C46.6379 54.06 46.5793 54.313 46.4642 54.5388C46.3499 54.7629 46.1854 54.938 45.9743 55.0619C45.8019 55.1684 45.6102 55.2416 45.3992 55.2793C45.1885 55.3157 44.8774 55.334 44.4664 55.334H42.3947ZM35.5475 52.7922V55.6943C35.5475 56.142 35.5701 56.4524 35.6124 56.6205C35.6555 56.7916 35.7511 56.9339 35.8985 57.0479C36.1983 57.2912 36.7118 57.4112 37.4413 57.4112C38.2447 57.4112 38.7896 57.2632 39.0731 56.9671C39.1761 56.8566 39.2451 56.7188 39.279 56.5555C39.3113 56.3915 39.329 56.1057 39.329 55.6943V52.7922C39.329 52.6542 39.3062 52.5563 39.2631 52.4976C39.2209 52.437 39.1367 52.3924 39.0103 52.3581V52.2236H40.2427V52.3581C40.1165 52.3924 40.0322 52.437 39.9899 52.4946C39.9464 52.5513 39.9252 52.6508 39.9252 52.7922V55.844C39.9252 56.3623 39.8819 56.7279 39.7938 56.9389C39.6471 57.3028 39.3782 57.5715 38.9873 57.7415C38.5975 57.9139 38.0584 58 37.3744 58C36.3917 58 35.7036 57.8161 35.3098 57.4488C35.1194 57.2752 34.9907 57.0771 34.9256 56.8583C34.8605 56.6395 34.8283 56.3023 34.8283 55.844V52.7922C34.8283 52.6508 34.8065 52.5513 34.763 52.4946C34.7205 52.437 34.6362 52.3924 34.5102 52.3581V52.2236H35.866V52.3581C35.7394 52.3924 35.6555 52.437 35.6124 52.4976C35.5701 52.5563 35.5475 52.6542 35.5475 52.7922ZM30.153 52.6885C29.3344 52.6885 28.6769 52.9399 28.1768 53.4452C27.7403 53.8821 27.5231 54.4178 27.5231 55.0499C27.5231 55.6823 27.7403 56.2175 28.1768 56.6553C28.6769 57.1597 29.3373 57.4112 30.1635 57.4112C30.9892 57.4112 31.6496 57.1597 32.1494 56.6553C32.5867 56.2175 32.8035 55.6926 32.8035 55.0811C32.8035 54.4178 32.5867 53.8718 32.1494 53.4452C31.6461 52.9475 30.9819 52.6954 30.153 52.6885ZM30.153 52.0999C31.1552 52.0999 31.9619 52.3635 32.575 52.8884C33.2277 53.4427 33.5543 54.1766 33.5543 55.0897C33.5543 55.6598 33.393 56.1813 33.0718 56.6572C32.4656 57.5524 31.4958 58 30.1635 58C29.1682 58 28.3643 57.7369 27.7518 57.2111C27.0991 56.6533 26.7722 55.9315 26.7722 55.0499C26.7722 54.4537 26.9321 53.9184 27.2502 53.4427C27.5879 52.9417 28.0619 52.5767 28.6719 52.3475C29.0894 52.1897 29.5849 52.1063 30.153 52.0999ZM21.4723 54.766H23.6116C23.9552 54.766 24.2138 54.7541 24.3871 54.7282C24.5604 54.7019 24.7058 54.6562 24.8255 54.5884C25.0912 54.44 25.2229 54.1835 25.2229 53.8167C25.2229 53.4636 25.099 53.1968 24.851 53.0198C24.6236 52.8539 24.236 52.7718 23.6917 52.7718H21.4723V54.766ZM21.4723 55.3137V57.3062C21.4723 57.4461 21.4945 57.5438 21.5372 57.6024C21.5807 57.663 21.6644 57.7073 21.7908 57.7415V57.876H20.4343V57.7415C20.5646 57.7073 20.6492 57.663 20.6914 57.6024C20.7325 57.5438 20.7526 57.4461 20.7526 57.3078V52.7922C20.7526 52.6508 20.7309 52.5513 20.6882 52.4946C20.6455 52.437 20.5609 52.3924 20.4343 52.3581V52.2236H23.7685C24.1473 52.2236 24.4557 52.2516 24.6955 52.3051C24.9331 52.3581 25.1421 52.4492 25.3189 52.5767C25.7075 52.8524 25.9007 53.255 25.9007 53.7864C25.9007 54.2184 25.7657 54.5611 25.4947 54.8106C25.2229 55.0604 24.8255 55.212 24.2996 55.2625L25.7107 57.5197C25.7607 57.5972 25.8101 57.6486 25.858 57.6764C25.9057 57.7043 25.9932 57.7268 26.1166 57.7415V57.876H24.7263V57.7415C24.8567 57.7142 24.9215 57.673 24.9215 57.6162C24.9215 57.5751 24.8822 57.4941 24.805 57.3733L23.5069 55.3137H21.4723ZM19.1827 51.6447L18.4175 52.8766L18.2869 52.7855C18.3465 52.6851 18.3776 52.6095 18.3776 52.5601C18.3776 52.4553 18.1974 52.3069 17.8398 52.1152C17.1494 51.7396 16.4444 51.5523 15.7202 51.5523C14.8807 51.5523 14.1721 51.7899 13.5965 52.2638C12.9373 52.8026 12.6071 53.5294 12.6071 54.4457C12.6071 55.3376 12.9217 56.047 13.5502 56.5759C14.1311 57.0635 14.87 57.3078 15.7712 57.3078C16.2457 57.3078 16.6998 57.232 17.1293 57.0822C17.5591 56.9322 17.9219 56.7219 18.2168 56.4536V55.1789H16.5939C16.4531 55.1789 16.3537 55.2014 16.2955 55.2448C16.2372 55.2879 16.1928 55.3719 16.162 55.4998H15.9974V54.2075H16.162C16.1928 54.3355 16.2355 54.4201 16.2955 54.4626C16.3537 54.5059 16.4531 54.5282 16.5939 54.5282H19.2849V54.6932C19.1589 54.7267 19.0746 54.773 19.0325 54.8296C18.9889 54.886 18.9668 54.9866 18.9668 55.1259V56.018C18.9668 56.1575 18.9889 56.2575 19.0325 56.3143C19.0746 56.3709 19.1589 56.4155 19.2849 56.4501V56.5946C18.9072 56.9339 18.5509 57.1972 18.2168 57.3851C17.491 57.7952 16.6628 58 15.7338 58C14.59 58 13.6651 57.6889 12.959 57.065C12.6104 56.7588 12.3341 56.3915 12.1309 55.9646C11.8994 55.475 11.7848 54.9607 11.7848 54.4178C11.7848 53.6401 12.0111 52.9484 12.4631 52.3461C12.8806 51.7899 13.4421 51.3835 14.1495 51.1284C14.6484 50.9493 15.1841 50.8597 15.756 50.8597C16.2581 50.8597 16.7236 50.92 17.1518 51.0424C17.5795 51.1627 18.0418 51.3641 18.537 51.6447C18.681 51.7263 18.7701 51.7659 18.8026 51.7659C18.8571 51.7659 18.9392 51.6952 19.049 51.5539L19.1827 51.6447ZM54.2195 44.0863V46.1837H57.684C57.8228 46.1837 57.922 46.1637 57.9826 46.1201C58.04 46.0772 58.0827 45.9912 58.1143 45.8634H58.258V47.052H58.1143C58.0827 46.924 58.04 46.8399 57.9837 46.7969C57.927 46.7534 57.8276 46.7311 57.6872 46.7311H53.182V46.5972C53.3118 46.5629 53.3961 46.5185 53.4388 46.4575C53.4798 46.3992 53.5003 46.3013 53.5003 46.1637V41.6474C53.5003 41.5063 53.4779 41.4065 53.4354 41.3499C53.3923 41.2929 53.3093 41.2478 53.182 41.2136V41.0791H57.6618C57.8023 41.0791 57.9017 41.0571 57.9582 41.014C58.014 40.9702 58.0611 40.886 58.0929 40.7592H58.2266V41.9469H58.0929C58.0588 41.82 58.014 41.7334 57.9582 41.6913C57.9017 41.6474 57.8023 41.6268 57.6618 41.6268H54.2195V43.5388H56.4168C56.5588 43.5388 56.657 43.5165 56.7143 43.4735C56.7708 43.4299 56.8156 43.3458 56.8501 43.2187H56.9836V44.4062H56.8501C56.8156 44.2791 56.7708 44.1926 56.7114 44.1499C56.6532 44.1067 56.5555 44.0863 56.4168 44.0863H54.2195ZM52.0683 41.6063L51.3855 42.7165L51.2709 42.6463C51.3031 42.5297 51.32 42.45 51.32 42.4084C51.32 42.3226 51.1614 42.1866 50.8427 42.0022C50.3252 41.7119 49.7778 41.565 49.1986 41.565C48.4879 41.565 47.8972 41.7699 47.428 42.1801C46.9055 42.6342 46.6435 43.222 46.6435 43.9413C46.6435 44.6237 46.8835 45.1814 47.3629 45.6155C47.8336 46.0499 48.4563 46.2668 49.2314 46.2668C49.62 46.2668 49.9898 46.2083 50.3428 46.0926C50.6933 45.977 50.9913 45.8154 51.2361 45.6105V44.5716H49.9642C49.823 44.5716 49.7221 44.5946 49.6644 44.6373C49.6058 44.6802 49.561 44.7653 49.5304 44.892H49.3974V43.7042H49.5304C49.561 43.8311 49.6045 43.9173 49.6644 43.9603C49.7221 44.0039 49.8222 44.024 49.9622 44.024H52.1816V44.1581C52.0547 44.1897 51.9694 44.2345 51.9267 44.2933C51.8836 44.3516 51.8633 44.4515 51.8633 44.5946V45.18C51.8633 45.3227 51.8836 45.4231 51.9267 45.4808C51.9694 45.5397 52.0547 45.5843 52.1816 45.6155V45.7296C51.3121 46.4802 50.3016 46.8555 49.1473 46.8555C48.2379 46.8555 47.4929 46.6092 46.9111 46.1182C46.6008 45.8518 46.356 45.533 46.18 45.1573C45.9896 44.7613 45.8935 44.3479 45.8935 43.9212C45.8935 43.2871 46.0839 42.7165 46.4652 42.2088C46.808 41.7579 47.2617 41.4252 47.8267 41.2136C48.25 41.0552 48.7003 40.9759 49.1835 40.9759C49.598 40.9759 49.9774 41.0258 50.3202 41.1275C50.6646 41.2276 51.0748 41.408 51.554 41.6662C51.6302 41.7074 51.6869 41.727 51.7197 41.727C51.7603 41.727 51.8392 41.6594 51.9558 41.5256L52.0683 41.6063ZM40.5982 43.6208H42.7373C43.0813 43.6208 43.3399 43.6091 43.5132 43.5834C43.6865 43.5575 43.8315 43.5112 43.9516 43.4437C44.2167 43.2957 44.349 43.0394 44.349 42.6719C44.349 42.3192 44.2253 42.0524 43.9771 41.8748C43.7497 41.7098 43.3623 41.6268 42.8176 41.6268H40.5982V43.6208ZM40.5982 44.1686V46.1612C40.5982 46.3013 40.621 46.3992 40.6633 46.4575C40.7064 46.5185 40.7899 46.5629 40.9169 46.5972V46.7311H39.5605V46.5972C39.69 46.5629 39.7748 46.5185 39.8175 46.4575C39.8589 46.3992 39.8796 46.3013 39.8796 46.1637V41.6474C39.8796 41.5063 39.8564 41.4065 39.8141 41.3499C39.771 41.2929 39.6875 41.2478 39.5605 41.2136V41.0791H42.8948C43.2734 41.0791 43.5812 41.1066 43.821 41.1599C44.06 41.2136 44.2684 41.3049 44.445 41.4321C44.833 41.7074 45.0268 42.1107 45.0268 42.6412C45.0268 43.0736 44.8914 43.4161 44.6212 43.6654C44.349 43.9157 43.9516 44.0672 43.4253 44.1171L44.8368 46.375C44.8863 46.4523 44.9357 46.5045 44.9841 46.532C45.0322 46.5598 45.1193 46.5821 45.2427 46.5972V46.7311H43.8522V46.5972C43.9824 46.5696 44.0472 46.529 44.0472 46.4718C44.0472 46.4301 44.0073 46.3493 43.9311 46.2289L42.6326 44.1686H40.5982ZM34.4728 44.0863V46.1837H37.9375C38.0758 46.1837 38.1754 46.1637 38.2353 46.1201C38.2932 46.0772 38.3359 45.9912 38.3669 45.8634H38.5108V47.052H38.3669C38.3359 46.924 38.2932 46.8399 38.2369 46.7969C38.1804 46.7534 38.0808 46.7311 37.941 46.7311H33.4344V46.5972C33.565 46.5629 33.6487 46.5185 33.6918 46.4575C33.733 46.3992 33.7533 46.3013 33.7533 46.1637V41.6474C33.7533 41.5063 33.7314 41.4065 33.6891 41.3499C33.6456 41.2929 33.5617 41.2478 33.4344 41.2136V41.0791H37.9142C38.0551 41.0791 38.1549 41.0571 38.2106 41.014C38.2673 40.9702 38.3144 40.886 38.3462 40.7592H38.4799V41.9469H38.3462C38.3116 41.82 38.2673 41.7334 38.2106 41.6913C38.1549 41.6474 38.0551 41.6268 37.9142 41.6268H34.4728V43.5388H36.6696C36.8121 43.5388 36.91 43.5165 36.9676 43.4735C37.0241 43.4299 37.0684 43.3458 37.1038 43.2187H37.2369V44.4062H37.1038C37.0684 44.2791 37.0241 44.1926 36.9646 44.1499C36.9065 44.1067 36.8087 44.0863 36.6696 44.0863H34.4728ZM31.1847 46.1637V41.6474C31.1847 41.5063 31.1623 41.4065 31.1194 41.3499C31.0771 41.2929 30.9926 41.2478 30.8662 41.2136V41.0791H32.223V41.2136C32.0956 41.2478 32.0119 41.2929 31.9688 41.3499C31.9267 41.4065 31.9039 41.5063 31.9039 41.6474V46.1637C31.9039 46.3013 31.9267 46.3992 31.9688 46.4575C32.0119 46.5185 32.0956 46.5629 32.223 46.5972V46.7311H30.8662V46.5972C30.9926 46.5629 31.0771 46.5185 31.1194 46.4575C31.1623 46.3992 31.1847 46.3013 31.1847 46.1637ZM29.6267 41.493L28.9977 42.5774L28.8828 42.5021C28.9071 42.4162 28.9173 42.3485 28.9173 42.3021C28.9173 42.2317 28.8504 42.1521 28.7167 42.066C28.178 41.718 27.5457 41.5443 26.8199 41.5443C26.1089 41.5443 25.5148 41.7403 25.0354 42.1348C24.4988 42.576 24.2322 43.1509 24.2322 43.8656C24.2322 44.639 24.5283 45.2552 25.1208 45.7169C25.5866 46.084 26.1413 46.2668 26.7888 46.2668C27.5182 46.2668 28.1517 46.0543 28.6916 45.6327C28.9019 45.4655 29.0082 45.3419 29.0082 45.2636C29.0082 45.2072 28.9793 45.1212 28.923 45.0081L29.0393 44.9318L29.8218 45.9408L29.7167 46.0307C29.5987 45.9271 29.515 45.8756 29.465 45.8756C29.4376 45.8756 29.3989 45.8985 29.3455 45.9408C28.9328 46.2633 28.5204 46.4962 28.1069 46.6404C27.6953 46.7828 27.2326 46.8555 26.7199 46.8555C25.8264 46.8555 25.0898 46.613 24.5116 46.1285C24.2195 45.8861 23.9872 45.5986 23.8139 45.2636C23.5936 44.8406 23.4814 44.3839 23.4814 43.8949C23.4814 42.9689 23.842 42.2226 24.5612 41.6575C25.1597 41.1896 25.9134 40.9555 26.8199 40.9555C27.6233 40.9555 28.3919 41.1531 29.1247 41.5479C29.1883 41.5822 29.2363 41.5974 29.2702 41.5974C29.3403 41.5974 29.4194 41.5407 29.5064 41.4267L29.6267 41.493ZM17.3464 41.9608V46.1637C17.3464 46.3013 17.3665 46.3992 17.408 46.4575C17.4499 46.5185 17.5345 46.5629 17.6645 46.5972V46.7311H16.4317V46.5972C16.5618 46.5629 16.6456 46.5185 16.6884 46.4575C16.7293 46.3992 16.7498 46.3013 16.7498 46.1637V41.6474C16.7498 41.5063 16.7281 41.4065 16.685 41.3499C16.6423 41.2929 16.5585 41.2478 16.4317 41.2136V41.0791H18.2533V41.2136C18.0808 41.2704 17.9939 41.3581 17.9939 41.4772C17.9939 41.5767 18.0567 41.6988 18.1835 41.8402L21.4972 45.5778V41.6474C21.4972 41.5063 21.4752 41.4065 21.4321 41.3499C21.3892 41.2929 21.3055 41.2478 21.1787 41.2136V41.0791H22.4117V41.2136C22.2842 41.2478 22.2014 41.2929 22.1579 41.3499C22.1152 41.4065 22.0934 41.5063 22.0934 41.6474V46.1637C22.0934 46.3013 22.1135 46.3992 22.1547 46.4575C22.1976 46.5185 22.2811 46.5629 22.4117 46.5972V46.7311H20.946V46.5972C21.1189 46.5543 21.2061 46.4838 21.2061 46.3904C21.2061 46.3203 21.1258 46.1923 20.9665 46.012L17.3464 41.9608ZM11.9618 41.5443C11.1435 41.5443 10.4863 41.795 9.98592 42.3002C9.5487 42.7372 9.33199 43.2734 9.33199 43.9054C9.33199 44.5376 9.5487 45.0732 9.98592 45.5107C10.4863 46.0152 11.1466 46.2668 11.9728 46.2668C12.7977 46.2668 13.4591 46.0152 13.9591 45.5107C14.3955 45.0732 14.6131 44.5481 14.6131 43.9365C14.6131 43.2734 14.3955 42.7269 13.9591 42.3002C13.4553 41.8026 12.7902 41.5508 11.9618 41.5443ZM11.9618 40.9555C12.964 40.9555 13.7703 41.219 14.3836 41.7436C15.0355 42.2989 15.3631 43.0322 15.3631 43.9447C15.3631 44.5152 15.2017 45.037 14.8799 45.5124C14.2736 46.4076 13.3047 46.8555 11.9728 46.8555C10.977 46.8555 10.1739 46.5919 9.56096 46.0669C8.90865 45.509 8.58152 44.7873 8.58152 43.9054C8.58152 43.3098 8.74116 42.774 9.05888 42.2989C9.39673 41.7973 9.87139 41.4321 10.4805 41.2028C10.8985 41.045 11.3932 40.9624 11.9618 40.9555ZM7.38809 40.4391L6.64627 41.6853L6.50912 41.6044C6.54026 41.5033 6.55539 41.4238 6.55539 41.3648C6.55539 41.2276 6.34113 41.0533 5.91346 40.8431C5.32385 40.5523 4.68218 40.4075 3.98681 40.4075C3.05029 40.4075 2.29204 40.6672 1.70906 41.1896C1.11872 41.7211 0.822406 42.4103 0.822406 43.2547C0.822406 44.0967 1.12992 44.7951 1.74478 45.3503C2.33971 45.8928 3.07456 46.1637 3.94732 46.1637C4.79874 46.1637 5.55176 45.9154 6.20437 45.4208C6.49759 45.1958 6.64464 45.0353 6.64464 44.942C6.64464 44.8939 6.61701 44.8164 6.55905 44.7099L6.68069 44.6131L7.57232 45.7041L7.44758 45.8032C7.35359 45.7207 7.27593 45.6779 7.21642 45.6779C7.1807 45.6779 7.11589 45.7142 7.0272 45.7845C6.71804 46.0152 6.46317 46.1892 6.2611 46.3045C6.05871 46.4196 5.83752 46.5185 5.59606 46.5992C5.0985 46.7698 4.55032 46.8555 3.95222 46.8555C2.79859 46.8555 1.85971 46.532 1.13891 45.8861C0.380182 45.2072 0 44.3448 0 43.2923C0 42.4644 0.238196 41.7474 0.712708 41.1392C1.45419 40.1901 2.56751 39.7149 4.04664 39.7149C5.02788 39.7149 5.97492 39.9792 6.89085 40.5043C6.95126 40.5386 6.99433 40.554 7.01607 40.554C7.06087 40.554 7.13968 40.4904 7.25216 40.3626L7.38809 40.4391Z" fill="white"/>
<path d="M31.0378 3.30598C25.8002 3.30935 20.9592 4.60066 16.5262 7.18287C13.7863 8.77871 11.7734 10.8226 10.4703 13.3145C9.17626 15.81 9.02438 17.9242 10.0286 19.6676C11.819 22.7748 15.5959 23.2589 21.3618 21.118C21.9841 14.6496 25.2122 8.71684 31.0378 3.30598ZM38.0111 4.84289C36.187 3.97647 34.1086 3.48191 31.7842 3.34217C29.7487 5.40815 28.0518 7.9247 26.6812 10.8832C25.3128 13.8478 24.4892 16.7903 24.2056 19.7185C26.9118 18.1424 29.6087 15.9051 32.3088 12.9986C35.0191 10.0955 36.9154 7.37375 38.0111 4.84289ZM38.3995 1.15919C37.7874 0.0953636 36.4473 0.163761 34.3771 1.37027C33.7349 1.74402 33.0111 2.2813 32.227 2.9781C34.3754 3.14793 36.3632 3.65259 38.1881 4.47313C38.7253 2.95158 38.7948 1.84483 38.3995 1.15919ZM38.7073 0.972092C39.1934 1.81684 39.1175 3.0345 38.4778 4.62444C40.441 5.57841 41.8056 6.7203 42.5721 8.05097C42.76 8.37717 42.7592 8.59098 42.5675 8.70231C42.4154 8.79133 42.2132 8.62487 41.9638 8.19155C41.2165 6.89455 39.998 5.83642 38.3208 5.02661C37.2574 7.52148 35.4075 10.2165 32.7654 13.1156C30.1285 16.0106 27.5659 18.1879 25.0707 19.6412C24.7204 19.8452 24.4084 20.0095 24.1357 20.1326C23.7417 24.237 24.3189 27.6328 25.8672 30.3211C26.925 32.1579 28.3228 33.2805 30.0672 33.6866C31.812 34.0924 33.6598 33.726 35.6124 32.5893C39.2911 30.4465 41.5499 26.7578 42.3924 21.5309C42.8982 18.3741 42.6025 15.8363 41.4949 13.913C40.9123 12.9016 40.1441 12.2734 39.1972 12.0259C38.2434 11.7814 37.2705 11.9483 36.2651 12.5338C34.6567 13.4705 33.4208 15.3283 32.5591 18.1142C31.694 20.8928 31.6839 23.0227 32.5396 24.5062C32.6112 24.6329 32.6896 24.6767 32.7625 24.6342C32.8211 24.582 32.852 24.5285 32.8688 24.466C33.0326 23.9525 33.2622 23.6139 33.553 23.4445C34.1948 23.0714 34.7266 23.2412 35.1361 23.9527C35.6919 24.918 35.5046 25.6672 34.5782 26.2066C33.7313 26.6999 33.0092 26.4272 32.4109 25.3895C31.3424 23.5333 31.22 21.1424 32.0382 18.2213C32.8606 15.3079 34.2346 13.2905 36.1604 12.1682C38.6414 10.723 40.6681 11.3733 42.2507 14.1218C43.8836 16.9563 44.021 20.3239 42.673 24.2286C41.3193 28.1367 39.0055 31.0392 35.7166 32.9553C33.4279 34.2885 31.0641 34.6343 28.6099 33.9937C26.166 33.3556 24.2812 31.8938 22.97 29.6182C21.6981 27.4091 21.1586 24.6931 21.3589 21.4661C15.1697 23.6844 11.098 23.088 9.13612 19.6817C7.96646 17.6521 8.03219 15.3569 9.32403 12.7825C10.623 10.2047 12.8149 8.01183 15.9185 6.20407C20.2456 3.68331 25.4545 2.58603 31.5345 2.91033C32.2144 2.31013 32.9493 1.77559 33.7498 1.30881C36.3234 -0.190639 37.9749 -0.299652 38.7073 0.972092Z" fill="white"/>
<path d="M42.3947 54.7862H44.3699C44.7284 54.7862 44.9914 54.773 45.1613 54.7437C45.3325 54.7139 45.4781 54.6606 45.5978 54.5795C45.8326 54.4243 45.9494 54.1562 45.9494 53.7761C45.9494 53.4019 45.8326 53.1365 45.5978 52.9778C45.4781 52.8969 45.3325 52.8436 45.1653 52.8146C44.9948 52.7855 44.7319 52.7718 44.3699 52.7718H42.3947V54.7862ZM42.3947 55.334V57.3474C42.3947 57.4488 42.4163 57.5265 42.4629 57.5802C42.5073 57.6334 42.5874 57.6764 42.7019 57.7113V57.876H41.3561V57.7113C41.4765 57.6764 41.5581 57.6334 41.6045 57.5802C41.651 57.5265 41.6749 57.4488 41.6749 57.3493V52.727C41.6749 52.6283 41.651 52.5563 41.6029 52.5077C41.5549 52.4582 41.4727 52.4183 41.3561 52.3888V52.2236H44.4664C44.8807 52.2236 45.1942 52.2431 45.4062 52.2789C45.6186 52.3168 45.8107 52.3871 45.9799 52.4904C46.1842 52.6113 46.3445 52.7872 46.4612 53.018C46.5793 53.2479 46.6379 53.5021 46.6379 53.7809C46.6379 54.06 46.5793 54.313 46.4642 54.5388C46.3499 54.7629 46.1854 54.938 45.9743 55.0619C45.8019 55.1684 45.6102 55.2416 45.3992 55.2793C45.1885 55.3157 44.8774 55.334 44.4664 55.334H42.3947ZM35.5475 52.7922V55.6943C35.5475 56.142 35.5701 56.4524 35.6124 56.6205C35.6555 56.7916 35.7511 56.9339 35.8985 57.0479C36.1983 57.2912 36.7118 57.4112 37.4413 57.4112C38.2447 57.4112 38.7896 57.2632 39.0731 56.9671C39.1761 56.8566 39.2451 56.7188 39.279 56.5555C39.3113 56.3915 39.329 56.1057 39.329 55.6943V52.7922C39.329 52.6542 39.3062 52.5563 39.2631 52.4976C39.2209 52.437 39.1367 52.3924 39.0103 52.3581V52.2236H40.2427V52.3581C40.1165 52.3924 40.0322 52.437 39.9899 52.4946C39.9464 52.5513 39.9252 52.6508 39.9252 52.7922V55.844C39.9252 56.3623 39.8819 56.7279 39.7938 56.9389C39.6471 57.3028 39.3782 57.5715 38.9873 57.7415C38.5975 57.9139 38.0584 58 37.3744 58C36.3917 58 35.7036 57.8161 35.3098 57.4488C35.1194 57.2752 34.9907 57.0771 34.9256 56.8583C34.8605 56.6395 34.8283 56.3023 34.8283 55.844V52.7922C34.8283 52.6508 34.8065 52.5513 34.763 52.4946C34.7205 52.437 34.6362 52.3924 34.5102 52.3581V52.2236H35.866V52.3581C35.7394 52.3924 35.6555 52.437 35.6124 52.4976C35.5701 52.5563 35.5475 52.6542 35.5475 52.7922ZM30.153 52.6885C29.3344 52.6885 28.6769 52.9399 28.1768 53.4452C27.7403 53.8821 27.5231 54.4178 27.5231 55.0499C27.5231 55.6823 27.7403 56.2175 28.1768 56.6553C28.6769 57.1597 29.3373 57.4112 30.1635 57.4112C30.9892 57.4112 31.6496 57.1597 32.1494 56.6553C32.5867 56.2175 32.8035 55.6926 32.8035 55.0811C32.8035 54.4178 32.5867 53.8718 32.1494 53.4452C31.6461 52.9475 30.9819 52.6954 30.153 52.6885ZM30.153 52.0999C31.1552 52.0999 31.9619 52.3635 32.575 52.8884C33.2277 53.4427 33.5543 54.1766 33.5543 55.0897C33.5543 55.6598 33.393 56.1813 33.0718 56.6572C32.4656 57.5524 31.4958 58 30.1635 58C29.1682 58 28.3643 57.7369 27.7518 57.2111C27.0991 56.6533 26.7722 55.9315 26.7722 55.0499C26.7722 54.4537 26.9321 53.9184 27.2502 53.4427C27.5879 52.9417 28.0619 52.5767 28.6719 52.3475C29.0894 52.1897 29.5849 52.1063 30.153 52.0999ZM21.4723 54.766H23.6116C23.9552 54.766 24.2138 54.7541 24.3871 54.7282C24.5604 54.7019 24.7058 54.6562 24.8255 54.5884C25.0912 54.44 25.2229 54.1835 25.2229 53.8167C25.2229 53.4636 25.099 53.1968 24.851 53.0198C24.6236 52.8539 24.236 52.7718 23.6917 52.7718H21.4723V54.766ZM21.4723 55.3137V57.3062C21.4723 57.4461 21.4945 57.5438 21.5372 57.6024C21.5807 57.663 21.6644 57.7073 21.7908 57.7415V57.876H20.4343V57.7415C20.5646 57.7073 20.6492 57.663 20.6914 57.6024C20.7325 57.5438 20.7526 57.4461 20.7526 57.3078V52.7922C20.7526 52.6508 20.7309 52.5513 20.6882 52.4946C20.6455 52.437 20.5609 52.3924 20.4343 52.3581V52.2236H23.7685C24.1473 52.2236 24.4557 52.2516 24.6955 52.3051C24.9331 52.3581 25.1421 52.4492 25.3189 52.5767C25.7075 52.8524 25.9007 53.255 25.9007 53.7864C25.9007 54.2184 25.7657 54.5611 25.4947 54.8106C25.2229 55.0604 24.8255 55.212 24.2996 55.2625L25.7107 57.5197C25.7607 57.5972 25.8101 57.6486 25.858 57.6764C25.9057 57.7043 25.9932 57.7268 26.1166 57.7415V57.876H24.7263V57.7415C24.8567 57.7142 24.9215 57.673 24.9215 57.6162C24.9215 57.5751 24.8822 57.4941 24.805 57.3733L23.5069 55.3137H21.4723ZM19.1827 51.6447L18.4175 52.8766L18.2869 52.7855C18.3465 52.6851 18.3776 52.6095 18.3776 52.5601C18.3776 52.4553 18.1974 52.3069 17.8398 52.1152C17.1494 51.7396 16.4444 51.5523 15.7202 51.5523C14.8807 51.5523 14.1721 51.7899 13.5965 52.2638C12.9373 52.8026 12.6071 53.5294 12.6071 54.4457C12.6071 55.3376 12.9217 56.047 13.5502 56.5759C14.1311 57.0635 14.87 57.3078 15.7712 57.3078C16.2457 57.3078 16.6998 57.232 17.1293 57.0822C17.5591 56.9322 17.9219 56.7219 18.2168 56.4536V55.1789H16.5939C16.4531 55.1789 16.3537 55.2014 16.2955 55.2448C16.2372 55.2879 16.1928 55.3719 16.162 55.4998H15.9974V54.2075H16.162C16.1928 54.3355 16.2355 54.4201 16.2955 54.4626C16.3537 54.5059 16.4531 54.5282 16.5939 54.5282H19.2849V54.6932C19.1589 54.7267 19.0746 54.773 19.0325 54.8296C18.9889 54.886 18.9668 54.9866 18.9668 55.1259V56.018C18.9668 56.1575 18.9889 56.2575 19.0325 56.3143C19.0746 56.3709 19.1589 56.4155 19.2849 56.4501V56.5946C18.9072 56.9339 18.5509 57.1972 18.2168 57.3851C17.491 57.7952 16.6628 58 15.7338 58C14.59 58 13.6651 57.6889 12.959 57.065C12.6104 56.7588 12.3341 56.3915 12.1309 55.9646C11.8994 55.475 11.7848 54.9607 11.7848 54.4178C11.7848 53.6401 12.0111 52.9484 12.4631 52.3461C12.8806 51.7899 13.4421 51.3835 14.1495 51.1284C14.6484 50.9493 15.1841 50.8597 15.756 50.8597C16.2581 50.8597 16.7236 50.92 17.1518 51.0424C17.5795 51.1627 18.0418 51.3641 18.537 51.6447C18.681 51.7263 18.7701 51.7659 18.8026 51.7659C18.8571 51.7659 18.9392 51.6952 19.049 51.5539L19.1827 51.6447ZM54.2195 44.0863V46.1837H57.684C57.8228 46.1837 57.922 46.1637 57.9826 46.1201C58.04 46.0772 58.0827 45.9912 58.1143 45.8634H58.258V47.052H58.1143C58.0827 46.924 58.04 46.8399 57.9837 46.7969C57.927 46.7534 57.8276 46.7311 57.6872 46.7311H53.182V46.5972C53.3118 46.5629 53.3961 46.5185 53.4388 46.4575C53.4798 46.3992 53.5003 46.3013 53.5003 46.1637V41.6474C53.5003 41.5063 53.4779 41.4065 53.4354 41.3499C53.3923 41.2929 53.3093 41.2478 53.182 41.2136V41.0791H57.6618C57.8023 41.0791 57.9017 41.0571 57.9582 41.014C58.014 40.9702 58.0611 40.886 58.0929 40.7592H58.2266V41.9469H58.0929C58.0588 41.82 58.014 41.7334 57.9582 41.6913C57.9017 41.6474 57.8023 41.6268 57.6618 41.6268H54.2195V43.5388H56.4168C56.5588 43.5388 56.657 43.5165 56.7143 43.4735C56.7708 43.4299 56.8156 43.3458 56.8501 43.2187H56.9836V44.4062H56.8501C56.8156 44.2791 56.7708 44.1926 56.7114 44.1499C56.6532 44.1067 56.5555 44.0863 56.4168 44.0863H54.2195ZM52.0683 41.6063L51.3855 42.7165L51.2709 42.6463C51.3031 42.5297 51.32 42.45 51.32 42.4084C51.32 42.3226 51.1614 42.1866 50.8427 42.0022C50.3252 41.7119 49.7778 41.565 49.1986 41.565C48.4879 41.565 47.8972 41.7699 47.428 42.1801C46.9055 42.6342 46.6435 43.222 46.6435 43.9413C46.6435 44.6237 46.8835 45.1814 47.3629 45.6155C47.8336 46.0499 48.4563 46.2668 49.2314 46.2668C49.62 46.2668 49.9898 46.2083 50.3428 46.0926C50.6933 45.977 50.9913 45.8154 51.2361 45.6105V44.5716H49.9642C49.823 44.5716 49.7221 44.5946 49.6644 44.6373C49.6058 44.6802 49.561 44.7653 49.5304 44.892H49.3974V43.7042H49.5304C49.561 43.8311 49.6045 43.9173 49.6644 43.9603C49.7221 44.0039 49.8222 44.024 49.9622 44.024H52.1816V44.1581C52.0547 44.1897 51.9694 44.2345 51.9267 44.2933C51.8836 44.3516 51.8633 44.4515 51.8633 44.5946V45.18C51.8633 45.3227 51.8836 45.4231 51.9267 45.4808C51.9694 45.5397 52.0547 45.5843 52.1816 45.6155V45.7296C51.3121 46.4802 50.3016 46.8555 49.1473 46.8555C48.2379 46.8555 47.4929 46.6092 46.9111 46.1182C46.6008 45.8518 46.356 45.533 46.18 45.1573C45.9896 44.7613 45.8935 44.3479 45.8935 43.9212C45.8935 43.2871 46.0839 42.7165 46.4652 42.2088C46.808 41.7579 47.2617 41.4252 47.8267 41.2136C48.25 41.0552 48.7003 40.9759 49.1835 40.9759C49.598 40.9759 49.9774 41.0258 50.3202 41.1275C50.6646 41.2276 51.0748 41.408 51.554 41.6662C51.6302 41.7074 51.6869 41.727 51.7197 41.727C51.7603 41.727 51.8392 41.6594 51.9558 41.5256L52.0683 41.6063ZM40.5982 43.6208H42.7373C43.0813 43.6208 43.3399 43.6091 43.5132 43.5834C43.6865 43.5575 43.8315 43.5112 43.9516 43.4437C44.2167 43.2957 44.349 43.0394 44.349 42.6719C44.349 42.3192 44.2253 42.0524 43.9771 41.8748C43.7497 41.7098 43.3623 41.6268 42.8176 41.6268H40.5982V43.6208ZM40.5982 44.1686V46.1612C40.5982 46.3013 40.621 46.3992 40.6633 46.4575C40.7064 46.5185 40.7899 46.5629 40.9169 46.5972V46.7311H39.5605V46.5972C39.69 46.5629 39.7748 46.5185 39.8175 46.4575C39.8589 46.3992 39.8796 46.3013 39.8796 46.1637V41.6474C39.8796 41.5063 39.8564 41.4065 39.8141 41.3499C39.771 41.2929 39.6875 41.2478 39.5605 41.2136V41.0791H42.8948C43.2734 41.0791 43.5812 41.1066 43.821 41.1599C44.06 41.2136 44.2684 41.3049 44.445 41.4321C44.833 41.7074 45.0268 42.1107 45.0268 42.6412C45.0268 43.0736 44.8914 43.4161 44.6212 43.6654C44.349 43.9157 43.9516 44.0672 43.4253 44.1171L44.8368 46.375C44.8863 46.4523 44.9357 46.5045 44.9841 46.532C45.0322 46.5598 45.1193 46.5821 45.2427 46.5972V46.7311H43.8522V46.5972C43.9824 46.5696 44.0472 46.529 44.0472 46.4718C44.0472 46.4301 44.0073 46.3493 43.9311 46.2289L42.6326 44.1686H40.5982ZM34.4728 44.0863V46.1837H37.9375C38.0758 46.1837 38.1754 46.1637 38.2353 46.1201C38.2932 46.0772 38.3359 45.9912 38.3669 45.8634H38.5108V47.052H38.3669C38.3359 46.924 38.2932 46.8399 38.2369 46.7969C38.1804 46.7534 38.0808 46.7311 37.941 46.7311H33.4344V46.5972C33.565 46.5629 33.6487 46.5185 33.6918 46.4575C33.733 46.3992 33.7533 46.3013 33.7533 46.1637V41.6474C33.7533 41.5063 33.7314 41.4065 33.6891 41.3499C33.6456 41.2929 33.5617 41.2478 33.4344 41.2136V41.0791H37.9142C38.0551 41.0791 38.1549 41.0571 38.2106 41.014C38.2673 40.9702 38.3144 40.886 38.3462 40.7592H38.4799V41.9469H38.3462C38.3116 41.82 38.2673 41.7334 38.2106 41.6913C38.1549 41.6474 38.0551 41.6268 37.9142 41.6268H34.4728V43.5388H36.6696C36.8121 43.5388 36.91 43.5165 36.9676 43.4735C37.0241 43.4299 37.0684 43.3458 37.1038 43.2187H37.2369V44.4062H37.1038C37.0684 44.2791 37.0241 44.1926 36.9646 44.1499C36.9065 44.1067 36.8087 44.0863 36.6696 44.0863H34.4728ZM31.1847 46.1637V41.6474C31.1847 41.5063 31.1623 41.4065 31.1194 41.3499C31.0771 41.2929 30.9926 41.2478 30.8662 41.2136V41.0791H32.223V41.2136C32.0956 41.2478 32.0119 41.2929 31.9688 41.3499C31.9267 41.4065 31.9039 41.5063 31.9039 41.6474V46.1637C31.9039 46.3013 31.9267 46.3992 31.9688 46.4575C32.0119 46.5185 32.0956 46.5629 32.223 46.5972V46.7311H30.8662V46.5972C30.9926 46.5629 31.0771 46.5185 31.1194 46.4575C31.1623 46.3992 31.1847 46.3013 31.1847 46.1637ZM29.6267 41.493L28.9977 42.5774L28.8828 42.5021C28.9071 42.4162 28.9173 42.3485 28.9173 42.3021C28.9173 42.2317 28.8504 42.1521 28.7167 42.066C28.178 41.718 27.5457 41.5443 26.8199 41.5443C26.1089 41.5443 25.5148 41.7403 25.0354 42.1348C24.4988 42.576 24.2322 43.1509 24.2322 43.8656C24.2322 44.639 24.5283 45.2552 25.1208 45.7169C25.5866 46.084 26.1413 46.2668 26.7888 46.2668C27.5182 46.2668 28.1517 46.0543 28.6916 45.6327C28.9019 45.4655 29.0082 45.3419 29.0082 45.2636C29.0082 45.2072 28.9793 45.1212 28.923 45.0081L29.0393 44.9318L29.8218 45.9408L29.7167 46.0307C29.5987 45.9271 29.515 45.8756 29.465 45.8756C29.4376 45.8756 29.3989 45.8985 29.3455 45.9408C28.9328 46.2633 28.5204 46.4962 28.1069 46.6404C27.6953 46.7828 27.2326 46.8555 26.7199 46.8555C25.8264 46.8555 25.0898 46.613 24.5116 46.1285C24.2195 45.8861 23.9872 45.5986 23.8139 45.2636C23.5936 44.8406 23.4814 44.3839 23.4814 43.8949C23.4814 42.9689 23.842 42.2226 24.5612 41.6575C25.1597 41.1896 25.9134 40.9555 26.8199 40.9555C27.6233 40.9555 28.3919 41.1531 29.1247 41.5479C29.1883 41.5822 29.2363 41.5974 29.2702 41.5974C29.3403 41.5974 29.4194 41.5407 29.5064 41.4267L29.6267 41.493ZM17.3464 41.9608V46.1637C17.3464 46.3013 17.3665 46.3992 17.408 46.4575C17.4499 46.5185 17.5345 46.5629 17.6645 46.5972V46.7311H16.4317V46.5972C16.5618 46.5629 16.6456 46.5185 16.6884 46.4575C16.7293 46.3992 16.7498 46.3013 16.7498 46.1637V41.6474C16.7498 41.5063 16.7281 41.4065 16.685 41.3499C16.6423 41.2929 16.5585 41.2478 16.4317 41.2136V41.0791H18.2533V41.2136C18.0808 41.2704 17.9939 41.3581 17.9939 41.4772C17.9939 41.5767 18.0567 41.6988 18.1835 41.8402L21.4972 45.5778V41.6474C21.4972 41.5063 21.4752 41.4065 21.4321 41.3499C21.3892 41.2929 21.3055 41.2478 21.1787 41.2136V41.0791H22.4117V41.2136C22.2842 41.2478 22.2014 41.2929 22.1579 41.3499C22.1152 41.4065 22.0934 41.5063 22.0934 41.6474V46.1637C22.0934 46.3013 22.1135 46.3992 22.1547 46.4575C22.1976 46.5185 22.2811 46.5629 22.4117 46.5972V46.7311H20.946V46.5972C21.1189 46.5543 21.2061 46.4838 21.2061 46.3904C21.2061 46.3203 21.1258 46.1923 20.9665 46.012L17.3464 41.9608ZM11.9618 41.5443C11.1435 41.5443 10.4863 41.795 9.98592 42.3002C9.5487 42.7372 9.33199 43.2734 9.33199 43.9054C9.33199 44.5376 9.5487 45.0732 9.98592 45.5107C10.4863 46.0152 11.1466 46.2668 11.9728 46.2668C12.7977 46.2668 13.4591 46.0152 13.9591 45.5107C14.3955 45.0732 14.6131 44.5481 14.6131 43.9365C14.6131 43.2734 14.3955 42.7269 13.9591 42.3002C13.4553 41.8026 12.7902 41.5508 11.9618 41.5443ZM11.9618 40.9555C12.964 40.9555 13.7703 41.219 14.3836 41.7436C15.0355 42.2989 15.3631 43.0322 15.3631 43.9447C15.3631 44.5152 15.2017 45.037 14.8799 45.5124C14.2736 46.4076 13.3047 46.8555 11.9728 46.8555C10.977 46.8555 10.1739 46.5919 9.56096 46.0669C8.90865 45.509 8.58152 44.7873 8.58152 43.9054C8.58152 43.3098 8.74116 42.774 9.05888 42.2989C9.39673 41.7973 9.87139 41.4321 10.4805 41.2028C10.8985 41.045 11.3932 40.9624 11.9618 40.9555ZM7.38809 40.4391L6.64627 41.6853L6.50912 41.6044C6.54026 41.5033 6.55539 41.4238 6.55539 41.3648C6.55539 41.2276 6.34113 41.0533 5.91346 40.8431C5.32385 40.5523 4.68218 40.4075 3.98681 40.4075C3.05029 40.4075 2.29204 40.6672 1.70906 41.1896C1.11872 41.7211 0.822406 42.4103 0.822406 43.2547C0.822406 44.0967 1.12992 44.7951 1.74478 45.3503C2.33971 45.8928 3.07456 46.1637 3.94732 46.1637C4.79874 46.1637 5.55176 45.9154 6.20437 45.4208C6.49759 45.1958 6.64464 45.0353 6.64464 44.942C6.64464 44.8939 6.61701 44.8164 6.55905 44.7099L6.68069 44.6131L7.57232 45.7041L7.44758 45.8032C7.35359 45.7207 7.27593 45.6779 7.21642 45.6779C7.1807 45.6779 7.11589 45.7142 7.0272 45.7845C6.71804 46.0152 6.46317 46.1892 6.2611 46.3045C6.05871 46.4196 5.83752 46.5185 5.59606 46.5992C5.0985 46.7698 4.55032 46.8555 3.95222 46.8555C2.79859 46.8555 1.85971 46.532 1.13891 45.8861C0.380182 45.2072 0 44.3448 0 43.2923C0 42.4644 0.238196 41.7474 0.712708 41.1392C1.45419 40.1901 2.56751 39.7149 4.04664 39.7149C5.02788 39.7149 5.97492 39.9792 6.89085 40.5043C6.95126 40.5386 6.99433 40.554 7.01607 40.554C7.06087 40.554 7.13968 40.4904 7.25216 40.3626L7.38809 40.4391Z" fill="white"/>
<path d="M31.0378 3.30598C25.8002 3.30935 20.9592 4.60066 16.5262 7.18287C13.7863 8.77871 11.7734 10.8226 10.4703 13.3145C9.17626 15.81 9.02438 17.9242 10.0286 19.6676C11.819 22.7748 15.5959 23.2589 21.3618 21.118C21.9841 14.6496 25.2122 8.71684 31.0378 3.30598ZM38.0111 4.84289C36.187 3.97647 34.1086 3.48191 31.7842 3.34217C29.7487 5.40815 28.0518 7.9247 26.6812 10.8832C25.3128 13.8478 24.4892 16.7903 24.2056 19.7185C26.9118 18.1424 29.6087 15.9051 32.3088 12.9986C35.0191 10.0955 36.9154 7.37375 38.0111 4.84289ZM38.3995 1.15919C37.7874 0.0953636 36.4473 0.163761 34.3771 1.37027C33.7349 1.74402 33.0111 2.2813 32.227 2.9781C34.3754 3.14793 36.3632 3.65259 38.1881 4.47313C38.7253 2.95158 38.7948 1.84483 38.3995 1.15919ZM38.7073 0.972092C39.1934 1.81684 39.1175 3.0345 38.4778 4.62444C40.441 5.57841 41.8056 6.7203 42.5721 8.05097C42.76 8.37717 42.7592 8.59098 42.5675 8.70231C42.4154 8.79133 42.2132 8.62487 41.9638 8.19155C41.2165 6.89455 39.998 5.83642 38.3208 5.02661C37.2574 7.52148 35.4075 10.2165 32.7654 13.1156C30.1285 16.0106 27.5659 18.1879 25.0707 19.6412C24.7204 19.8452 24.4084 20.0095 24.1357 20.1326C23.7417 24.237 24.3189 27.6328 25.8672 30.3211C26.925 32.1579 28.3228 33.2805 30.0672 33.6866C31.812 34.0924 33.6598 33.726 35.6124 32.5893C39.2911 30.4465 41.5499 26.7578 42.3924 21.5309C42.8982 18.3741 42.6025 15.8363 41.4949 13.913C40.9123 12.9016 40.1441 12.2734 39.1972 12.0259C38.2434 11.7814 37.2705 11.9483 36.2651 12.5338C34.6567 13.4705 33.4208 15.3283 32.5591 18.1142C31.694 20.8928 31.6839 23.0227 32.5396 24.5062C32.6112 24.6329 32.6896 24.6767 32.7625 24.6342C32.8211 24.582 32.852 24.5285 32.8688 24.466C33.0326 23.9525 33.2622 23.6139 33.553 23.4445C34.1948 23.0714 34.7266 23.2412 35.1361 23.9527C35.6919 24.918 35.5046 25.6672 34.5782 26.2066C33.7313 26.6999 33.0092 26.4272 32.4109 25.3895C31.3424 23.5333 31.22 21.1424 32.0382 18.2213C32.8606 15.3079 34.2346 13.2905 36.1604 12.1682C38.6414 10.723 40.6681 11.3733 42.2507 14.1218C43.8836 16.9563 44.021 20.3239 42.673 24.2286C41.3193 28.1367 39.0055 31.0392 35.7166 32.9553C33.4279 34.2885 31.0641 34.6343 28.6099 33.9937C26.166 33.3556 24.2812 31.8938 22.97 29.6182C21.6981 27.4091 21.1586 24.6931 21.3589 21.4661C15.1697 23.6844 11.098 23.088 9.13612 19.6817C7.96646 17.6521 8.03219 15.3569 9.32403 12.7825C10.623 10.2047 12.8149 8.01183 15.9185 6.20407C20.2456 3.68331 25.4545 2.58603 31.5345 2.91033C32.2144 2.31013 32.9493 1.77559 33.7498 1.30881C36.3234 -0.190639 37.9749 -0.299652 38.7073 0.972092Z" fill="white"/>
<path d="M60.5672 38.185L61.0462 39.1941L61.5109 38.185H62V38.2506C61.9343 38.2516 61.8908 38.258 61.8694 38.2696C61.8479 38.2813 61.8317 38.3003 61.8209 38.326C61.8108 38.352 61.8054 38.4061 61.8054 38.4884V39.314C61.8054 39.414 61.8163 39.4763 61.8389 39.5009C61.861 39.5255 61.9148 39.5402 62 39.5451V39.6086H61.3021V39.5451C61.3712 39.5439 61.4172 39.5369 61.4417 39.5236C61.4655 39.5108 61.4827 39.4918 61.4942 39.4674C61.5049 39.4428 61.5109 39.3919 61.5109 39.3155V38.4478L60.9723 39.6086H60.916L60.3757 38.4636V39.314C60.3757 39.3938 60.3809 39.4459 60.3906 39.4702C60.4008 39.494 60.4167 39.5127 60.4383 39.5255C60.4598 39.5384 60.4933 39.5451 60.5391 39.5451H60.6023V39.6086H60.0656V39.5451C60.1311 39.5451 60.1752 39.539 60.1978 39.5272C60.2207 39.5156 60.2374 39.4973 60.2481 39.4727C60.2583 39.4478 60.2636 39.3951 60.2636 39.314V38.492C60.2636 38.4026 60.2587 38.3462 60.2487 38.3228C60.2393 38.299 60.2225 38.2812 60.1985 38.2689C60.1752 38.2565 60.1311 38.2506 60.0656 38.2506V38.185H60.5672ZM58.6292 38.185H59.9057L59.9444 38.5398H59.8848C59.8735 38.455 59.8425 38.3922 59.7929 38.3519C59.7429 38.311 59.6605 38.291 59.5447 38.291H59.4129V39.3124C59.4129 39.4108 59.4248 39.4736 59.4481 39.5001C59.4715 39.5264 59.5221 39.5413 59.5992 39.5451V39.6086H58.9429V39.5451C59.0195 39.5377 59.0676 39.5219 59.0879 39.4965C59.1082 39.471 59.1183 39.4102 59.1183 39.314V38.291H58.9852C58.8743 38.291 58.795 38.3095 58.7485 38.3466C58.7014 38.3836 58.6698 38.4478 58.652 38.5398H58.5924L58.6292 38.185Z" fill="white"/>
</svg>
