<svg width="17" height="14" viewBox="0 0 17 14" fill="none" xmlns="http://www.w3.org/2000/svg">
<path d="M16.6524 0H14.6079C14.1633 0 13.7405 0.215737 13.4789 0.585572L6.62641 10.1837L3.52272 5.83371C3.26117 5.46828 2.84269 5.24814 2.39371 5.24814H0.349281C0.0659388 5.24814 -0.0997075 5.57395 0.0659388 5.8073L5.4974 13.4153C5.62571 13.5962 5.79485 13.7436 5.99082 13.8453C6.18678 13.947 6.40392 14 6.62423 14C6.84454 14 7.06167 13.947 7.25764 13.8453C7.4536 13.7436 7.62275 13.5962 7.75106 13.4153L16.9314 0.559156C17.1014 0.325808 16.9357 0 16.6524 0Z" fill="#704F3B"/>
</svg>
