<svg width="23" height="23" viewBox="0 0 23 23" fill="none" xmlns="http://www.w3.org/2000/svg">
<path d="M15.7 7.92871H14.6466C14.4175 7.92871 14.1996 8.03877 14.0648 8.22744L10.534 13.1239L8.93476 10.9048C8.79999 10.7184 8.58437 10.6061 8.35302 10.6061H7.2996C7.1536 10.6061 7.06825 10.7723 7.1536 10.8913L9.95224 14.7726C10.0184 14.8648 10.1055 14.94 10.2065 14.9919C10.3075 15.0438 10.4193 15.0708 10.5329 15.0708C10.6464 15.0708 10.7583 15.0438 10.8592 14.9919C10.9602 14.94 11.0474 14.8648 11.1135 14.7726L15.8437 8.21397C15.9313 8.09492 15.846 7.92871 15.7 7.92871Z" fill="white"/>
<path d="M11.5 1.4375C5.94316 1.4375 1.4375 5.94316 1.4375 11.5C1.4375 17.0568 5.94316 21.5625 11.5 21.5625C17.0568 21.5625 21.5625 17.0568 21.5625 11.5C21.5625 5.94316 17.0568 1.4375 11.5 1.4375ZM11.5 19.8555C6.88652 19.8555 3.14453 16.1135 3.14453 11.5C3.14453 6.88652 6.88652 3.14453 11.5 3.14453C16.1135 3.14453 19.8555 6.88652 19.8555 11.5C19.8555 16.1135 16.1135 19.8555 11.5 19.8555Z" fill="white"/>
</svg>
