<svg width="10" height="10" viewBox="0 0 10 10" fill="none" xmlns="http://www.w3.org/2000/svg">
<path d="M9.79486 4.44368C10.0684 4.72013 10.0684 5.16834 9.79486 5.44491L5.49508 9.7928C5.35838 9.93075 5.17917 10 4.99997 10C4.82077 10 4.6416 9.93103 4.50494 9.7928L0.205156 5.44491C-0.0683852 5.16834 -0.0683852 4.72013 0.205156 4.44368C0.478628 4.16718 0.922004 4.16718 1.19541 4.44368L4.99995 8.29069L8.80452 4.44368C9.07792 4.16732 9.52146 4.16732 9.79486 4.44368ZM4.50494 5.55658C4.64157 5.69453 4.82077 5.76378 4.99997 5.76378C5.17917 5.76378 5.35838 5.69453 5.49508 5.55658L9.79486 1.20883C10.0684 0.932191 10.0684 0.483845 9.79486 0.207323C9.52134 -0.0691075 9.07792 -0.0691075 8.80454 0.207323L4.99997 4.05433L1.19543 0.207323C0.922027 -0.0691075 0.478651 -0.0691075 0.205179 0.207323C-0.0683623 0.483845 -0.0683623 0.932191 0.205179 1.20883L4.50494 5.55658Z" fill="white"/>
</svg>
