<svg width="34" height="34" viewBox="0 0 34 34" fill="none" xmlns="http://www.w3.org/2000/svg">
<path d="M26.5625 13.8125C26.5625 11.2764 25.555 8.84411 23.7617 7.05079C21.9684 5.25747 19.5361 4.25 17 4.25C14.4639 4.25 12.0316 5.25747 10.2383 7.05079C8.44497 8.84411 7.4375 11.2764 7.4375 13.8125C7.4375 17.7352 10.5761 22.848 17 28.9722C23.4239 22.848 26.5625 17.7352 26.5625 13.8125ZM17 31.875C9.20762 24.7924 5.3125 18.7701 5.3125 13.8125C5.3125 10.7128 6.54386 7.74002 8.73569 5.54819C10.9275 3.35636 13.9003 2.125 17 2.125C20.0997 2.125 23.0725 3.35636 25.2643 5.54819C27.4561 7.74002 28.6875 10.7128 28.6875 13.8125C28.6875 18.7701 24.7924 24.7924 17 31.875Z" fill="#FA485D"/>
<path d="M17 17C17.8454 17 18.6561 16.6642 19.2539 16.0664C19.8517 15.4686 20.1875 14.6579 20.1875 13.8125C20.1875 12.9671 19.8517 12.1564 19.2539 11.5586C18.6561 10.9608 17.8454 10.625 17 10.625C16.1546 10.625 15.3439 10.9608 14.7461 11.5586C14.1483 12.1564 13.8125 12.9671 13.8125 13.8125C13.8125 14.6579 14.1483 15.4686 14.7461 16.0664C15.3439 16.6642 16.1546 17 17 17ZM17 19.125C15.591 19.125 14.2398 18.5653 13.2435 17.569C12.2472 16.5727 11.6875 15.2215 11.6875 13.8125C11.6875 12.4035 12.2472 11.0523 13.2435 10.056C14.2398 9.05971 15.591 8.5 17 8.5C18.409 8.5 19.7602 9.05971 20.7565 10.056C21.7528 11.0523 22.3125 12.4035 22.3125 13.8125C22.3125 15.2215 21.7528 16.5727 20.7565 17.569C19.7602 18.5653 18.409 19.125 17 19.125Z" fill="#FA485D"/>
</svg>
