<svg width="37" height="25" viewBox="0 0 37 25" fill="none" xmlns="http://www.w3.org/2000/svg">
<path fill-rule="evenodd" clip-rule="evenodd" d="M0.562408 12.5C0.562408 12.1602 0.697395 11.8343 0.937675 11.5941C1.17796 11.3538 1.50385 11.2188 1.84366 11.2188H32.0632L23.999 3.15716C23.8799 3.03803 23.7854 2.89661 23.7209 2.74096C23.6565 2.58532 23.6233 2.4185 23.6233 2.25003C23.6233 2.08156 23.6565 1.91474 23.7209 1.7591C23.7854 1.60345 23.8799 1.46203 23.999 1.34291C24.1182 1.22378 24.2596 1.12929 24.4152 1.06482C24.5709 1.00035 24.7377 0.967163 24.9062 0.967163C25.0746 0.967163 25.2414 1.00035 25.3971 1.06482C25.5527 1.12929 25.6942 1.22378 25.8133 1.34291L36.0633 11.5929C36.1826 11.7119 36.2773 11.8533 36.3419 12.009C36.4064 12.1646 36.4397 12.3315 36.4397 12.5C36.4397 12.6686 36.4064 12.8354 36.3419 12.9911C36.2773 13.1468 36.1826 13.2881 36.0633 13.4072L25.8133 23.6572C25.6942 23.7763 25.5527 23.8708 25.3971 23.9352C25.2414 23.9997 25.0746 24.0329 24.9062 24.0329C24.7377 24.0329 24.5709 23.9997 24.4152 23.9352C24.2596 23.8708 24.1182 23.7763 23.999 23.6572C23.8799 23.538 23.7854 23.3966 23.7209 23.241C23.6565 23.0853 23.6233 22.9185 23.6233 22.75C23.6233 22.5816 23.6565 22.4147 23.7209 22.2591C23.7854 22.1035 23.8799 21.962 23.999 21.8429L32.0632 13.7813H1.84366C1.50385 13.7813 1.17796 13.6463 0.937675 13.406C0.697395 13.1657 0.562408 12.8398 0.562408 12.5Z" fill="white"/>
</svg>
