<svg width="22" height="19" viewBox="0 0 22 19" fill="none" xmlns="http://www.w3.org/2000/svg">
<path fill-rule="evenodd" clip-rule="evenodd" d="M1 15.2857V3.85714C1 3.09938 1.30102 2.37266 1.83684 1.83684C2.37266 1.30102 3.09938 1 3.85714 1H18.1429C18.9006 1 19.6273 1.30102 20.1632 1.83684C20.699 2.37266 21 3.09938 21 3.85714V15.2857C21 16.0435 20.699 16.7702 20.1632 17.306C19.6273 17.8418 18.9006 18.1429 18.1429 18.1429H3.85714C3.09938 18.1429 2.37266 17.8418 1.83684 17.306C1.30102 16.7702 1 16.0435 1 15.2857Z" stroke="white" stroke-linecap="round" stroke-linejoin="round"/>
<path d="M3.85712 6L11 10.2857L18.1428 6" stroke="white" stroke-linecap="round" stroke-linejoin="round"/>
</svg>
