<svg width="22" height="18" viewBox="0 0 22 18" fill="none" xmlns="http://www.w3.org/2000/svg">
<path d="M16.3241 17.4396C16.1187 17.4391 15.9138 17.4201 15.7131 17.3828C11.8924 16.7151 8.37241 15.1496 5.5584 12.8664C2.80444 10.5782 0.894423 7.66476 0.0594406 4.4787C-0.0390144 4.08162 -0.0148496 3.66981 0.12961 3.28291C0.27407 2.896 0.533963 2.54701 0.884285 2.26951L3.32827 0.282282C3.4531 0.182552 3.60142 0.106182 3.76355 0.0581541C3.92568 0.0101264 4.09798 -0.00847865 4.2692 0.00355309C4.44673 0.0191995 4.61805 0.0675127 4.77111 0.145095C4.92417 0.222677 5.05526 0.327645 5.15514 0.452616L8.21012 4.26707C8.32469 4.41507 8.37999 4.59024 8.36789 4.76678C8.35579 4.94333 8.27693 5.11193 8.14291 5.24778C7.23124 6.16831 6.99641 7.6076 7.84962 8.58257C8.24142 9.03028 8.67866 9.44992 9.15716 9.83648C9.66146 10.2614 10.2092 10.6458 10.7932 10.9855C12.0369 11.7091 13.5712 11.4744 14.7661 10.6727C14.9257 10.5661 15.1199 10.5031 15.3229 10.492C15.5259 10.481 15.7281 10.5224 15.9026 10.6107L20.5156 13.1296C20.6739 13.2095 20.8087 13.3185 20.9101 13.4487C21.0114 13.5788 21.0765 13.7266 21.1006 13.881C21.1247 14.0355 21.1071 14.1925 21.0492 14.3403C20.9913 14.4882 20.8945 14.6231 20.7661 14.7349L18.3832 16.7273C18.1125 16.9548 17.7913 17.1349 17.4379 17.2571C17.0845 17.3794 16.706 17.4414 16.3241 17.4396ZM5.74202 2.97209C4.87557 1.89824 3.30142 1.73298 2.23085 2.60347L1.72746 3.01279C1.53038 3.16792 1.3845 3.36372 1.30415 3.58092C1.22381 3.79813 1.21176 4.02926 1.26921 4.25158C2.04562 7.24128 3.83033 9.97703 6.40768 12.1282C9.05586 14.2763 12.3683 15.7488 15.9637 16.3763C16.2358 16.4243 16.5178 16.4146 16.7844 16.3479C17.051 16.2813 17.2938 16.1598 17.4911 15.9943C18.6356 15.0374 18.457 13.2285 17.1476 12.5138L16.7236 12.2824C15.9226 11.8452 14.9447 11.8905 14.1875 12.3999L13.3791 12.9438C13.301 12.996 13.209 13.0313 13.111 13.0466C13.013 13.0619 12.9121 13.0567 12.817 13.0315C11.1226 12.5041 9.58697 11.6669 8.3201 10.5798C7.00973 9.54599 5.99259 8.2756 5.34455 6.86337C5.31714 6.77788 5.31623 6.68786 5.34191 6.60198C5.36759 6.5161 5.419 6.43725 5.49119 6.37302L5.57401 6.28932C6.46629 5.38757 6.53862 3.95938 5.74202 2.97209Z" fill="white"/>
</svg>
