<svg width="159" height="143" viewBox="0 0 159 143" fill="none" xmlns="http://www.w3.org/2000/svg">
<path d="M139.483 66.3034V16.6663C139.483 7.67399 132.167 0.358276 123.175 0.358276L17.2038 0.359392C8.21147 0.359392 0.895752 7.67511 0.895752 16.6674V103.293C0.895752 112.285 8.21147 119.601 17.2038 119.601H80.2294C87.0532 133.051 100.991 142.311 117.075 142.311C139.864 142.311 158.404 123.771 158.404 100.982C158.403 86.4531 150.85 73.6754 139.481 66.3022L139.483 66.3034ZM17.2032 112.218C12.2823 112.218 8.28032 108.215 8.28032 103.295V16.6663C8.28032 11.7454 12.2826 7.74342 17.2032 7.74342H123.175C128.095 7.74342 132.097 11.7457 132.097 16.6663V62.5206C127.433 60.6913 122.38 59.6534 117.075 59.6534C114.641 59.6534 112.268 59.9068 109.947 60.313L97.91 50.5284C97.8933 50.5162 97.8754 50.5084 97.8587 50.4938C97.7549 50.4124 97.6444 50.3488 97.5339 50.2796C97.4335 50.2159 97.3375 50.1468 97.2314 50.0954C97.1522 50.0564 97.0685 50.0318 96.9848 49.9972C96.8419 49.938 96.7013 49.8767 96.554 49.8343C96.4993 49.8197 96.4413 49.8175 96.3843 49.8019C96.2125 49.7628 96.035 49.726 95.8598 49.7137C95.7906 49.7093 95.7169 49.7159 95.6478 49.7137C95.4848 49.7115 95.3208 49.7059 95.1578 49.726C95.0696 49.736 94.9826 49.7628 94.8944 49.7773C94.7471 49.8041 94.602 49.8287 94.4592 49.8755C94.3777 49.9023 94.2996 49.9425 94.2159 49.976C94.0685 50.0329 93.9257 50.0921 93.785 50.168C93.7705 50.178 93.7527 50.1802 93.7382 50.1903L77.0193 59.7974L57.1445 41.2797C57.1244 41.2596 57.0954 41.2552 57.0753 41.2384C56.7404 40.9382 56.3666 40.7139 55.9648 40.5565C55.9157 40.5364 55.8688 40.5174 55.8197 40.4996C55.4179 40.3612 55.005 40.2976 54.5842 40.3032C54.5295 40.3032 54.476 40.3032 54.4213 40.3054C54.0106 40.3277 53.6043 40.4237 53.2148 40.5855C53.1579 40.6078 53.1043 40.6302 53.0474 40.6569C52.7617 40.792 52.486 40.9549 52.2326 41.1692L14.5984 73.1721C13.0448 74.4913 12.855 76.8227 14.1776 78.3764C14.9064 79.2357 15.9477 79.6766 16.9912 79.6766C17.8383 79.6766 18.6876 79.3887 19.3818 78.7983L54.519 48.9211L83.959 76.3574C78.8238 83.2445 75.7424 91.7514 75.7424 100.983C75.7424 104.882 76.3205 108.638 77.335 112.217L17.2032 112.218ZM88.8803 70.8491L82.6749 65.0668L95.2217 57.8591L101.299 62.7966C96.6683 64.7207 92.4863 67.4751 88.8803 70.8491ZM117.075 134.929C98.3569 134.929 83.1317 119.699 83.1317 100.986C83.1317 82.2708 98.3617 67.0434 117.075 67.0434C135.79 67.0434 151.017 82.2734 151.017 100.986C151.017 119.699 135.791 134.929 117.075 134.929Z" fill="#704F3B"/>
<path d="M28.8717 42.8605C37.4577 42.8605 44.4432 35.8751 44.4432 27.2891C44.4432 18.7031 37.4577 11.7177 28.8717 11.7177C20.2857 11.7177 13.3003 18.7031 13.3003 27.2891C13.3003 35.8751 20.2857 42.8605 28.8717 42.8605ZM28.8717 19.0994C33.3863 19.0994 37.0592 22.7722 37.0592 27.2868C37.0592 31.8014 33.3863 35.4742 28.8717 35.4742C24.3572 35.4742 20.6843 31.8014 20.6843 27.2868C20.6843 22.7722 24.3572 19.0994 28.8717 19.0994Z" fill="#704F3B"/>
<path d="M119.46 80.312C119.446 80.2997 119.428 80.2919 119.411 80.2796C119.36 80.2328 119.301 80.1959 119.246 80.1546C119.16 80.0933 119.069 80.0341 118.978 79.9794C118.919 79.9426 118.862 79.9035 118.801 79.8689C118.746 79.8399 118.685 79.8176 118.631 79.7897C118.535 79.745 118.439 79.7105 118.341 79.6736C118.272 79.6468 118.202 79.6167 118.132 79.5944C118.075 79.5776 118.014 79.5676 117.957 79.5531C117.859 79.5285 117.757 79.5118 117.657 79.4962C117.583 79.4839 117.509 79.4671 117.436 79.4593C117.369 79.4515 117.297 79.4549 117.231 79.4515C117.18 79.4493 117.133 79.437 117.081 79.437C117.029 79.437 116.983 79.4493 116.93 79.4515C116.863 79.4538 116.792 79.4515 116.726 79.4593C116.652 79.4671 116.579 79.4839 116.505 79.4962C116.404 79.5129 116.303 79.5308 116.205 79.5531C116.148 79.5676 116.086 79.5776 116.029 79.5944C115.958 79.6167 115.889 79.6457 115.821 79.6736C115.723 79.7105 115.627 79.745 115.531 79.7897C115.476 79.8165 115.418 79.841 115.361 79.8689C115.302 79.9035 115.243 79.9426 115.181 79.9794C115.09 80.0341 115.002 80.0921 114.918 80.1546C114.861 80.1959 114.802 80.2339 114.75 80.2796C114.734 80.2919 114.716 80.2997 114.701 80.312L99.8799 92.8289C98.3219 94.1436 98.1244 96.4717 99.4413 98.0297C100.17 98.8958 101.214 99.3389 102.263 99.3389C103.104 99.3389 103.951 99.0532 104.643 98.4672L113.389 91.0801V118.827C113.389 120.865 115.043 122.519 117.081 122.519C119.119 122.519 120.773 120.865 120.773 118.827V91.0832L129.518 98.4704C130.21 99.0563 131.056 99.342 131.899 99.342C132.95 99.342 133.994 98.8967 134.72 98.0329C136.037 96.4748 135.841 94.1457 134.281 92.832L119.46 80.312Z" fill="#704F3B"/>
</svg>
