<?xml version="1.0" standalone="no"?>
<!DOCTYPE svg PUBLIC "-//W3C//DTD SVG 20010904//EN"
 "http://www.w3.org/TR/2001/REC-SVG-20010904/DTD/svg10.dtd">
<svg version="1.0" xmlns="http://www.w3.org/2000/svg"
 width="576.000000pt" height="576.000000pt" viewBox="0 0 576.000000 576.000000"
 preserveAspectRatio="xMidYMid meet">
<metadata>
Created by potrace 1.14, written by Peter Selinger 2001-2017
</metadata>
<g transform="translate(0.000000,576.000000) scale(0.100000,-0.100000)"
fill="#000000" stroke="none">
<path d="M4590 5659 c-60 -10 -89 -16 -127 -28 -53 -16 -205 -83 -266 -118
-33 -18 -61 -33 -63 -33 -16 0 -245 -160 -330 -232 -37 -30 -47 -34 -90 -31
-166 10 -549 4 -719 -12 -22 -2 -71 -7 -110 -10 -38 -3 -83 -8 -100 -10 -92
-13 -120 -17 -230 -35 -66 -11 -126 -23 -134 -25 -8 -3 -55 -14 -105 -25 -257
-56 -588 -175 -841 -301 -121 -62 -320 -173 -335 -189 -3 -3 -50 -35 -105 -72
-277 -185 -547 -454 -709 -705 -25 -39 -46 -76 -46 -82 0 -6 -4 -11 -8 -11
-14 0 -128 -247 -157 -338 -94 -292 -83 -580 30 -801 170 -333 436 -516 810
-557 119 -12 351 -7 443 11 11 2 42 7 69 11 26 3 57 8 68 11 11 2 31 6 45 9
14 3 54 12 90 20 36 9 73 17 84 19 10 3 43 11 72 20 30 9 57 16 61 17 5 0 59
18 122 39 63 22 116 37 119 35 2 -2 5 -105 7 -228 2 -122 6 -236 9 -253 2 -16
7 -50 10 -75 3 -25 10 -70 16 -100 5 -30 12 -66 15 -80 30 -159 85 -314 167
-475 61 -120 118 -208 197 -307 60 -74 195 -208 211 -208 4 0 10 -4 12 -8 4
-11 168 -124 168 -116 0 3 12 -3 27 -14 73 -49 291 -128 418 -151 126 -23 154
-25 280 -26 152 0 212 7 355 39 207 47 485 195 719 382 83 67 248 226 306 294
87 104 115 140 115 148 0 6 4 12 9 14 12 4 130 187 176 273 192 354 314 745
342 1095 14 179 2 401 -28 515 -6 22 -13 49 -15 60 -6 32 -45 157 -61 195 -74
178 -177 343 -277 445 -84 85 -122 114 -196 147 -50 23 -77 32 -135 44 -38 9
-151 5 -201 -6 -27 -7 -56 -13 -64 -15 -47 -10 -228 -98 -258 -125 -9 -8 -30
-23 -46 -34 -114 -73 -296 -283 -366 -422 -8 -16 -22 -40 -31 -54 -9 -14 -17
-28 -18 -32 -1 -5 -13 -34 -27 -65 -84 -187 -147 -411 -190 -668 -17 -103 -11
-380 11 -475 3 -14 7 -37 10 -52 3 -15 9 -38 15 -52 5 -15 6 -26 3 -26 -4 0
-2 -5 5 -12 7 -7 12 -18 12 -25 0 -6 14 -43 32 -80 108 -230 225 -300 374
-223 159 82 194 201 107 366 -22 42 -84 103 -106 105 -7 1 -27 3 -46 5 -42 5
-113 -26 -146 -63 -13 -15 -36 -56 -51 -91 -19 -44 -32 -62 -43 -60 -14 3 -72
94 -68 108 1 3 -4 14 -10 25 -6 11 -14 38 -18 60 -5 22 -10 47 -12 55 -20 88
-20 380 1 440 3 8 7 31 10 50 3 19 17 80 31 135 14 55 27 109 30 119 2 11 15
49 27 85 12 36 23 68 23 71 1 3 7 18 13 33 7 16 12 31 12 34 0 31 175 374 200
393 3 3 22 27 40 55 51 74 171 190 256 245 82 54 208 106 276 115 324 44 564
-142 697 -541 36 -111 51 -171 56 -235 1 -14 4 -30 7 -35 20 -38 16 -499 -6
-624 -3 -14 -7 -45 -10 -70 -3 -25 -8 -56 -11 -70 -6 -24 -8 -37 -20 -110 -30
-174 -166 -598 -208 -649 -7 -8 -11 -16 -9 -18 2 -2 -18 -45 -44 -96 -164
-323 -418 -610 -704 -793 -25 -16 -51 -35 -58 -41 -7 -7 -17 -13 -21 -13 -5 0
-41 -18 -81 -40 -524 -288 -1061 -191 -1393 252 -176 234 -315 595 -363 938
-2 19 -7 49 -9 65 -11 71 -18 223 -18 395 0 173 8 369 15 374 2 1 62 35 133
75 72 41 132 77 133 82 2 5 8 9 13 9 16 0 308 208 373 265 6 6 38 33 71 60 33
28 62 52 65 55 3 3 43 39 90 80 88 78 398 385 485 481 28 30 75 84 105 119 30
35 60 68 65 74 45 49 129 153 219 271 58 77 110 145 115 151 4 5 13 20 20 31
6 12 17 27 24 35 13 14 148 224 191 298 14 25 58 109 97 188 39 78 75 142 80
142 9 0 193 -105 213 -121 6 -5 40 -32 76 -59 94 -73 193 -181 266 -292 68
-103 95 -128 120 -107 63 52 -106 286 -327 449 -82 61 -242 160 -258 160 -5 0
-14 7 -21 15 -7 8 -16 13 -20 10 -4 -3 -13 1 -19 9 -9 10 -7 27 8 67 77 218
85 367 26 497 -58 127 -181 187 -335 161z m125 -53 c42 -9 73 -25 104 -56 82
-82 103 -202 68 -390 -10 -53 -53 -190 -60 -190 -11 0 -105 38 -139 56 -16 9
-28 12 -28 9 0 -3 -9 -1 -21 5 -28 16 -207 70 -278 86 -12 2 -51 11 -85 19
-90 21 -133 28 -226 39 -30 4 -73 9 -95 13 -22 3 -49 5 -60 5 -24 -1 15 35
135 126 41 31 77 59 80 62 3 4 30 21 60 40 237 145 416 203 545 176z m-1196
-618 c-164 -164 -187 -189 -309 -328 -168 -191 -399 -504 -486 -655 -6 -11
-40 -69 -76 -130 -196 -336 -379 -807 -443 -1140 -2 -11 -9 -45 -15 -75 -6
-30 -13 -66 -15 -80 -2 -14 -6 -38 -9 -55 -8 -46 -15 -104 -22 -165 -3 -30 -7
-56 -9 -58 -9 -9 -267 -93 -370 -120 -124 -32 -297 -68 -375 -77 -85 -11 -325
-13 -380 -4 -30 5 -71 11 -90 14 -158 24 -347 123 -462 242 -52 54 -148 190
-148 210 0 7 -4 13 -10 13 -5 0 -10 9 -10 19 0 11 -4 22 -9 25 -5 3 -11 16
-14 28 -3 13 -11 41 -17 63 -21 75 -25 110 -25 215 1 166 17 249 82 420 143
375 430 741 785 1000 46 33 88 64 93 68 81 62 486 286 555 307 14 4 33 14 43
23 9 8 17 12 17 7 0 -4 6 -3 13 3 51 43 592 228 778 266 13 3 34 7 47 10 33 9
62 15 117 26 28 5 61 12 75 14 13 3 40 8 60 11 20 3 45 7 55 9 19 3 50 8 150
21 102 13 127 15 225 21 58 3 106 7 107 8 1 1 59 3 129 4 l126 3 -163 -163z
m396 148 c44 -4 91 -9 105 -11 14 -2 45 -7 70 -10 183 -23 452 -97 625 -173
44 -19 82 -36 84 -38 2 -2 -2 -10 -9 -19 -7 -8 -10 -15 -6 -15 8 0 -120 -248
-179 -345 -68 -112 -183 -281 -272 -399 -70 -93 -237 -299 -273 -336 -8 -9
-42 -47 -75 -85 -75 -86 -456 -470 -550 -554 -38 -34 -79 -70 -90 -79 -11 -10
-51 -45 -90 -77 -38 -32 -76 -65 -83 -72 -7 -7 -17 -13 -20 -13 -4 0 -18 -10
-32 -23 -14 -12 -50 -40 -80 -62 -30 -22 -57 -42 -60 -45 -17 -21 -370 -250
-385 -250 -2 0 -2 10 1 23 2 12 6 42 9 67 5 50 16 125 21 155 3 11 7 36 10 55
38 247 157 652 271 920 8 19 19 44 23 55 37 86 62 140 130 275 79 159 181 343
206 371 8 8 14 18 14 22 0 8 140 215 198 292 43 56 180 224 193 235 3 3 30 32
59 65 50 57 88 87 100 80 3 -1 41 -6 85 -9z"/>
</g>
</svg>
