<svg width="73" height="26" viewBox="0 0 73 26" fill="none" xmlns="http://www.w3.org/2000/svg">
<path fill-rule="evenodd" clip-rule="evenodd" d="M68.8405 10.1218C68.8405 9.33533 69.4615 8.69385 70.2054 8.69385C70.9714 8.69385 71.5719 9.33533 71.5719 10.1218C71.5719 10.9083 70.9714 11.5498 70.2054 11.5498C69.4615 11.5703 68.8405 10.9288 68.8405 10.1218ZM70.2054 11.2393C70.7854 11.2393 71.2409 10.7428 71.2409 10.1423C71.2409 9.5418 70.7649 9.04532 70.2054 9.04532C69.627 9.04532 69.1715 9.5418 69.1715 10.1423C69.1715 10.7428 69.627 11.2393 70.2054 11.2393ZM70.0194 10.7633H69.7294V9.50082H70.248C70.3504 9.50082 70.4749 9.50082 70.5585 9.56229C70.6609 9.62534 70.7035 9.74827 70.7035 9.87279C70.7035 10.0178 70.6199 10.1423 70.4954 10.1833L70.724 10.7428H70.4135L70.2275 10.2448H70.0194V10.7633ZM70.0194 10.0588H70.1849C70.248 10.0588 70.3094 10.0588 70.3504 10.0383C70.3914 10.0178 70.4135 9.95632 70.4135 9.89328C70.4135 9.8523 70.3914 9.79083 70.3504 9.77034C70.3094 9.74827 70.2275 9.74827 70.1849 9.74827H70.0399L70.0194 10.0588Z" fill="#FD0C15"/>
<path fill-rule="evenodd" clip-rule="evenodd" d="M49.2808 0.580013L48.9088 3.023C48.1018 2.58799 47.5013 2.4225 46.8598 2.4225C45.1623 2.4225 43.9613 4.16097 43.9613 6.62445C43.9613 8.32036 44.7683 9.35587 46.0938 9.35587C46.6518 9.35587 47.2728 9.16989 48.0388 8.77586L47.6447 11.3434C46.7968 11.5908 46.2593 11.6743 45.6178 11.6743C43.1544 11.6743 41.6224 9.81137 41.6224 6.83092C41.6224 2.81496 43.7344 0 46.7763 0C47.1688 0 47.5218 0.0409793 47.8118 0.124514L48.7638 0.373541C49.0112 0.47599 49.0743 0.496479 49.2808 0.580013Z" fill="#FD0C15"/>
<path fill-rule="evenodd" clip-rule="evenodd" d="M41.6854 2.25706C41.6224 2.23657 41.5404 2.23657 41.4569 2.23657C40.7114 2.23657 40.278 2.62903 39.5734 3.72601L39.7799 2.33902H37.7105L36.303 11.4664H38.601C39.4284 5.87899 39.6349 4.92701 40.7319 4.92701C40.7949 4.92701 40.8154 4.92701 40.8974 4.92701C41.1054 3.83003 41.3734 3.02306 41.7674 2.27755L41.6854 2.25706Z" fill="#FD0C15"/>
<path fill-rule="evenodd" clip-rule="evenodd" d="M28.0031 11.3435C27.3821 11.55 26.8857 11.6525 26.3687 11.6525C25.2102 11.6525 24.5688 10.9495 24.5688 9.64606C24.5688 9.39704 24.5892 9.10703 24.6302 8.81702L24.7752 7.92809L24.8777 7.20307L25.8722 0.972656H28.1481L27.8802 2.31867H29.0591L28.7281 4.53312H27.5681L26.9692 8.34103C26.9487 8.50653 26.9266 8.63104 26.9266 8.71457C26.9266 9.19056 27.1757 9.39704 27.7147 9.39704C27.9826 9.39704 28.1686 9.37655 28.3341 9.31508L28.0031 11.3435Z" fill="#FD0C15"/>
<path fill-rule="evenodd" clip-rule="evenodd" d="M18.9798 5.21571C18.9798 6.37574 19.5173 7.16222 20.7183 7.76273C21.6293 8.21823 21.7948 8.36165 21.7948 8.77617C21.7948 9.3357 21.3802 9.60364 20.4897 9.60364C19.8073 9.60364 19.1863 9.50119 18.4408 9.23167L18.1303 11.3437L18.2343 11.3642L18.6488 11.4461C18.7938 11.4666 18.9798 11.5076 19.2478 11.5297C19.7868 11.5706 20.2218 11.6116 20.5102 11.6116C22.9122 11.6116 24.0297 10.6392 24.0297 8.5697C24.0297 7.32772 23.5742 6.58221 22.4158 6.02426C21.4638 5.56876 21.3598 5.46474 21.3598 5.02973C21.3598 4.53325 21.7317 4.2858 22.4772 4.2858C22.9327 4.2858 23.5332 4.34727 24.1132 4.42922L24.4442 2.3188C23.8437 2.21477 22.9532 2.13281 22.4362 2.13281C19.8483 2.13281 18.9593 3.5198 18.9798 5.21571Z" fill="#FD0C15"/>
<path fill-rule="evenodd" clip-rule="evenodd" d="M67.515 11.4459H65.3415L65.4455 10.5569C64.8245 11.2599 64.1625 11.5704 63.3351 11.5704C61.6581 11.5704 60.5611 10.0589 60.5611 7.78297C60.5611 4.73947 62.2586 2.17355 64.2871 2.17355C65.176 2.17355 65.8395 2.56758 66.481 3.41553L66.9775 0.206543H69.2329L67.515 11.4459ZM64.142 9.31496C65.2185 9.31496 65.9625 8.05249 65.9625 6.23049C65.9625 5.07204 65.529 4.42898 64.741 4.42898C63.707 4.42898 62.9615 5.71352 62.9615 7.49296C62.9615 8.69397 63.3556 9.31496 64.142 9.31496Z" fill="#FD0C15"/>
<path fill-rule="evenodd" clip-rule="evenodd" d="M35.247 11.2599C34.4605 11.5073 33.7166 11.6318 32.8891 11.6318C30.3421 11.6318 28.9977 10.2243 28.9977 7.53391C28.9977 4.38796 30.6936 2.09155 32.9915 2.09155C34.875 2.09155 36.076 3.39501 36.076 5.42348C36.076 6.08545 35.9925 6.74742 35.786 7.67891H31.2326C31.2121 7.82391 31.2121 7.88696 31.2121 7.96892C31.2121 9.04541 31.8946 9.58287 33.2201 9.58287C34.0271 9.58287 34.7726 9.39688 35.6 9.00443L35.247 11.2599ZM33.964 5.81593C33.9861 5.62995 33.9861 5.46446 33.9861 5.36043C33.9861 4.61493 33.592 4.18149 32.9096 4.18149C32.1846 4.18149 31.6676 4.76151 31.4596 5.81593H33.964Z" fill="#FD0C15"/>
<path fill-rule="evenodd" clip-rule="evenodd" d="M9.7895 11.446H7.51357L8.81703 2.81518L5.87756 11.446H4.32508L4.13909 2.87822L2.7521 11.446H0.621185L2.40063 0.22876H5.69157L5.77511 7.18262L8.01005 0.22876H11.5705L9.7895 11.446Z" fill="#FD0C15"/>
<path fill-rule="evenodd" clip-rule="evenodd" d="M15.6889 7.38868C15.4398 7.36819 15.3374 7.3477 15.1719 7.3477C13.8669 7.3477 13.2254 7.82369 13.2254 8.73469C13.2254 9.29421 13.5564 9.66618 14.0529 9.66618C14.9639 9.66618 15.6479 8.73469 15.6889 7.38868ZM17.3438 11.4456H15.4398L15.4808 10.4936C14.9024 11.2596 14.1364 11.5906 13.0804 11.5906C11.8384 11.5906 10.9904 10.5772 10.9904 9.10665C10.9904 6.87171 12.4799 5.58874 15.0064 5.58874C15.2744 5.58874 15.6053 5.60923 15.9363 5.65021C15.9994 5.33972 16.0199 5.2152 16.0199 5.04971C16.0199 4.45078 15.6274 4.22225 14.5509 4.22225C13.9094 4.22225 13.1639 4.32627 12.6454 4.49176L12.3569 4.59421L12.1489 4.65726L12.4594 2.6083C13.5974 2.25682 14.3634 2.11182 15.1924 2.11182C17.1578 2.11182 18.1933 3.04331 18.1933 4.78177C18.1933 5.23727 18.1508 5.56826 18.0058 6.60219L17.5518 9.85216L17.4683 10.4322L17.4068 10.8861L17.3659 11.2187L17.3438 11.4456Z" fill="#FD0C15"/>
<path fill-rule="evenodd" clip-rule="evenodd" d="M53.2337 7.3889C53.0068 7.36841 52.8823 7.34792 52.7168 7.34792C51.4133 7.34792 50.7498 7.82391 50.7498 8.73491C50.7498 9.29444 51.0823 9.6664 51.5788 9.6664C52.5103 9.6664 53.1928 8.73491 53.2337 7.3889ZM54.8902 11.4458H52.9863L53.0273 10.4939C52.4472 11.2599 51.6813 11.5908 50.6268 11.5908C49.3848 11.5908 48.5353 10.5774 48.5353 9.10688C48.5353 6.87193 50.0263 5.58897 52.5513 5.58897C52.7987 5.58897 53.1518 5.60946 53.4828 5.65044C53.5442 5.33994 53.5647 5.21543 53.5647 5.04994C53.5647 4.45101 53.1723 4.22247 52.0958 4.22247C51.4543 4.22247 50.7088 4.3265 50.1918 4.49199L49.8608 4.57395L49.6528 4.63699L49.9633 2.58803C51.1028 2.23656 51.8688 2.09155 52.6963 2.09155C54.6617 2.09155 55.6972 3.02304 55.6972 4.76151C55.6972 5.21543 55.6562 5.54799 55.5112 6.58193L55.0352 9.8114L54.9722 10.3914L54.9107 10.8453L54.8697 11.1558L54.8902 11.4458Z" fill="#FD0C15"/>
<path fill-rule="evenodd" clip-rule="evenodd" d="M61.2861 2.25706C61.2231 2.23657 61.1411 2.23657 61.0576 2.23657C60.3121 2.23657 59.8771 2.62903 59.1741 3.72601L59.3822 2.33902H57.3111L55.9037 11.4664H58.2016C59.0291 5.87899 59.2356 4.92701 60.3326 4.92701C60.3956 4.92701 60.3956 4.92701 60.4996 4.92701C60.7061 3.83003 60.9961 3.02306 61.3681 2.27755L61.2861 2.25706Z" fill="#FD0C15"/>
<path fill-rule="evenodd" clip-rule="evenodd" d="M51.6812 20.3257C51.6812 22.3952 51.0397 23.6167 50.0263 23.6167C49.2808 23.6372 48.8458 22.8097 48.8458 21.5882C48.8458 20.1397 49.5078 18.4832 50.5433 18.4832C51.3912 18.4832 51.6812 19.3737 51.6812 20.3257ZM53.9382 20.3462C53.9382 18.0482 52.7987 16.2483 50.6678 16.2483C48.2043 16.2483 46.6108 18.4218 46.6108 21.6292C46.6108 23.9272 47.5628 25.8106 49.8813 25.8106C52.2203 25.8106 53.9382 24.1541 53.9382 20.3462Z" fill="#F3AE12"/>
<path fill-rule="evenodd" clip-rule="evenodd" d="M47.3359 14.6547L46.9828 17.0961C46.2184 16.6627 45.6794 16.4956 45.0789 16.4956C43.4854 16.4956 42.368 18.2357 42.368 20.6976C42.368 22.3951 43.1135 23.4306 44.3554 23.4306C44.8929 23.4306 45.4729 23.243 46.1759 22.8506L45.8039 25.4165C45.0174 25.6655 44.4989 25.7475 43.8999 25.7475C41.602 25.7475 40.1535 23.8861 40.1535 20.9041C40.1535 16.8897 42.1394 14.0747 44.9764 14.0747C45.3484 14.0747 45.6589 14.1157 45.9284 14.1992L46.7969 14.4467C47.0869 14.5302 47.1483 14.5507 47.3359 14.6547Z" fill="#F3AE12"/>
<path fill-rule="evenodd" clip-rule="evenodd" d="M33.198 16.3098C33.1366 16.2893 33.0546 16.2893 32.9711 16.2893C32.2681 16.2893 31.8741 16.6833 31.2121 17.7787L31.4186 16.3933H29.4941L28.1891 25.5207H30.3216C31.0876 19.9317 31.2941 18.9797 32.3091 18.9797C32.3706 18.9797 32.3706 18.9797 32.4746 19.0002C32.6606 17.9033 32.9301 17.0963 33.2816 16.3508L33.198 16.3098Z" fill="#F3AE12"/>
<path fill-rule="evenodd" clip-rule="evenodd" d="M61.0986 25.437H59.0701L59.1741 24.5481C58.5941 25.251 57.9731 25.5615 57.1866 25.5615C55.6342 25.5615 54.6002 24.05 54.6002 21.7741C54.6002 18.7322 56.1937 16.1647 58.0771 16.1647C58.9046 16.1647 59.5461 16.5587 60.1261 17.4271L60.6021 14.2197H62.7141L61.0986 25.437ZM57.9321 23.2856C58.9472 23.2856 59.6296 22.0231 59.6296 20.2011C59.6296 19.0427 59.2356 18.4217 58.4917 18.4217C57.5192 18.4217 56.8352 19.6841 56.8352 21.4841C56.8352 22.6851 57.2071 23.2856 57.9321 23.2856Z" fill="#F3AE12"/>
<path fill-rule="evenodd" clip-rule="evenodd" d="M13.1639 25.3963C12.4389 25.6454 11.736 25.7699 10.97 25.7699C8.59004 25.7699 7.34805 24.3624 7.34805 21.6704C7.34805 18.5465 8.94151 16.228 11.0724 16.228C12.833 16.228 13.9504 17.511 13.9504 19.56C13.9504 20.2219 13.8669 20.8839 13.6809 21.8154H9.43799C9.4175 21.9604 9.4175 22.0234 9.4175 22.1054C9.4175 23.1614 10.059 23.6989 11.301 23.6989C12.067 23.6989 12.7494 23.5129 13.5154 23.1204L13.1639 25.3963ZM11.9629 19.9524C11.9629 19.7664 11.9834 19.6009 11.9834 19.4985C11.9834 18.753 11.6115 18.318 10.97 18.318C10.2859 18.318 9.80996 18.898 9.60349 19.9524H11.9629Z" fill="#F3AE12"/>
<path fill-rule="evenodd" clip-rule="evenodd" d="M38.5805 25.3963C37.8555 25.6454 37.1525 25.7699 36.3866 25.7699C33.9861 25.7699 32.7426 24.3624 32.7426 21.6704C32.7426 18.5465 34.3376 16.228 36.4685 16.228C38.2275 16.228 39.367 17.511 39.367 19.56C39.367 20.2219 39.2835 20.8839 39.0975 21.8154H34.8546C34.8341 21.9604 34.8341 22.0234 34.8341 22.1054C34.8341 23.1614 35.4756 23.6989 36.7175 23.6989C37.4835 23.6989 38.166 23.5129 38.932 23.1204L38.5805 25.3963ZM37.3795 19.9524C37.4 19.7664 37.4 19.6009 37.4 19.4985C37.4 18.753 37.028 18.318 36.3866 18.318C35.7025 18.318 35.2265 18.898 35.0201 19.9524H37.3795Z" fill="#F3AE12"/>
<path fill-rule="evenodd" clip-rule="evenodd" d="M68.385 25.3963C67.6395 25.6454 66.9365 25.7699 66.191 25.7699C63.8111 25.7699 62.5486 24.3624 62.5486 21.6704C62.5486 18.5465 64.142 16.228 66.295 16.228C68.054 16.228 69.1715 17.511 69.1715 19.56C69.1715 20.2219 69.0879 20.8839 68.9019 21.8154H64.659C64.6385 21.9604 64.6385 22.0234 64.6385 22.1054C64.6385 23.1614 65.28 23.6989 66.522 23.6989C67.288 23.6989 67.9704 23.5129 68.7364 23.1204L68.385 25.3963ZM67.184 19.9524C67.184 19.7664 67.2045 19.6009 67.2045 19.4985C67.2045 18.753 66.8325 18.318 66.191 18.318C65.507 18.318 65.0326 18.898 64.8245 19.9524H67.184Z" fill="#F3AE12"/>
<path fill-rule="evenodd" clip-rule="evenodd" d="M6.82949 16.7244C6.41654 16.4344 5.83653 16.2074 5.05004 16.2074C4.18002 16.2074 3.49756 16.3934 3.49756 17.3029C3.49756 18.9184 6.6435 18.3179 6.6435 21.7948C6.6435 24.9612 4.57405 25.7903 2.69059 25.7903C1.86312 25.7903 0.889078 25.5208 0.186127 25.1898L0.703095 22.8713C1.13811 23.2653 1.98764 23.5333 2.71108 23.5333C3.39354 23.5333 4.42905 23.3473 4.42905 22.1668C4.42905 20.3259 1.28311 21.0083 1.28311 17.7788C1.28311 14.8205 3.1256 13.9504 4.90504 13.9504C5.898 13.9504 6.85155 14.0954 7.38901 14.4674L6.82949 16.7244Z" fill="#F3AE12"/>
<path fill-rule="evenodd" clip-rule="evenodd" d="M19.4148 25.3964C18.9798 25.6028 18.3793 25.7478 17.5093 25.7478C15.6479 25.7478 14.4879 23.8864 14.4879 21.6089C14.4879 18.6285 16.1649 16.269 18.6268 16.269C19.1658 16.269 19.9933 16.496 20.6348 16.8695L20.1604 19.043C19.7033 18.7325 19.2273 18.5465 18.7308 18.5465C17.5928 18.5465 16.7654 19.601 16.7654 21.4639C16.7654 22.5404 17.3659 23.4309 18.2974 23.4309C18.8553 23.4309 19.2478 23.3064 19.7253 23.0369L19.4148 25.3964Z" fill="#F3AE12"/>
<path fill-rule="evenodd" clip-rule="evenodd" d="M27.4026 23.0982C27.3002 23.8862 27.1962 24.6506 27.1347 25.4576H25.0857L25.2512 23.9887H25.2307C24.5893 24.9832 23.9273 25.6657 22.7468 25.6657C21.4638 25.6657 20.7593 24.2992 20.7593 22.5402C20.7593 21.9192 20.8003 21.5882 20.9248 20.6363L21.5048 16.4138H23.8028L23.1818 20.6567C23.1187 21.1122 23.0368 21.5677 23.0368 22.0437C23.0368 22.5812 23.2842 23.1202 23.9052 23.0777C24.8367 23.0777 25.3962 21.9397 25.5617 20.5953L26.2032 16.4138H28.4177L27.4026 23.0982Z" fill="#F3AE12"/>
<path fill-rule="evenodd" clip-rule="evenodd" d="M70.5159 25.3552H70.1644V23.8437H69.6679V23.5127H71.0124V23.8437H70.5159V25.3552Z" fill="#F3AE12"/>
<path fill-rule="evenodd" clip-rule="evenodd" d="M72.8139 25.3552H72.4829V23.8232L72.1724 25.3552H71.8414L71.5309 23.8232V25.3552H71.1999V23.5127H71.7169L72.0069 24.9612H72.0274L72.3174 23.5127H72.8139V25.3552Z" fill="#F3AE12"/>
</svg>
