<svg width="63" height="25" viewBox="0 0 63 25" fill="none" xmlns="http://www.w3.org/2000/svg">
<path d="M42.8989 14.1681L43.5247 14.3559C43.4829 14.5332 43.4204 14.6792 43.3265 14.7939C43.2326 14.9086 43.1283 15.0025 42.9928 15.0546C42.8572 15.1172 42.6903 15.1485 42.4817 15.1485C42.2314 15.1485 42.0332 15.1172 41.8664 15.0442C41.7099 14.9712 41.5743 14.846 41.4596 14.6583C41.3449 14.481 41.2823 14.2411 41.2823 13.9595C41.2823 13.5841 41.3866 13.292 41.5848 13.0835C41.7829 12.8749 42.075 12.781 42.44 12.781C42.732 12.781 42.951 12.8436 43.1179 12.9583C43.2848 13.073 43.4099 13.2503 43.4829 13.5006L42.8572 13.6362C42.8363 13.5632 42.8155 13.5111 42.7842 13.4798C42.7425 13.4276 42.7007 13.3859 42.6382 13.3546C42.5756 13.3233 42.513 13.3129 42.4504 13.3129C42.294 13.3129 42.1688 13.3755 42.0854 13.5111C42.0228 13.6049 41.9915 13.7614 41.9915 13.9595C41.9915 14.2098 42.0332 14.3871 42.1062 14.481C42.1793 14.5749 42.294 14.627 42.4296 14.627C42.5651 14.627 42.6694 14.5853 42.732 14.5123C42.8155 14.4184 42.8676 14.3141 42.8989 14.1681Z" fill="#225E63"/>
<path d="M43.775 13.9595C43.775 13.584 43.8793 13.292 44.0878 13.0834C44.2964 12.8748 44.5885 12.7705 44.9639 12.7705C45.3498 12.7705 45.6418 12.8748 45.8504 13.073C46.059 13.2816 46.1633 13.5632 46.1633 13.9386C46.1633 14.2098 46.1216 14.4288 46.0277 14.5957C45.9339 14.7626 45.8087 14.8981 45.6314 14.992C45.4645 15.0859 45.2455 15.138 44.9952 15.138C44.7345 15.138 44.5259 15.0963 44.3486 15.0129C44.1817 14.9294 44.0461 14.8043 43.9314 14.6165C43.8167 14.4288 43.775 14.2306 43.775 13.9595ZM44.4842 13.9595C44.4842 14.1889 44.5259 14.3558 44.6093 14.4601C44.6928 14.5644 44.8075 14.6165 44.9639 14.6165C45.1204 14.6165 45.2351 14.5644 45.3185 14.4705C45.402 14.3662 45.4437 14.1889 45.4437 13.9386C45.4437 13.7196 45.402 13.5632 45.3081 13.4693C45.2247 13.365 45.0995 13.3233 44.9535 13.3233C44.8075 13.3233 44.6928 13.3754 44.6093 13.4797C44.5259 13.5632 44.4842 13.73 44.4842 13.9595Z" fill="#225E63"/>
<path d="M46.5283 12.8123H47.4565L47.8111 14.2098L48.1657 12.8123H49.094V15.1067H48.5099V13.3546L48.0615 15.1067H47.54L47.0915 13.3546V15.1067H46.5075V12.8123H46.5283Z" fill="#225E63"/>
<path d="M49.5529 12.8123H50.7314C50.9922 12.8123 51.1799 12.8748 51.305 13C51.4302 13.1251 51.4928 13.292 51.4928 13.5215C51.4928 13.7509 51.4198 13.9386 51.2842 14.0638C51.1486 14.1994 50.9296 14.2619 50.648 14.2619H50.2621V15.1172H49.5529V12.8123ZM50.2621 13.7926H50.4394C50.575 13.7926 50.6688 13.7718 50.7314 13.7196C50.7836 13.6675 50.8149 13.6153 50.8149 13.5423C50.8149 13.4693 50.794 13.4067 50.7418 13.3546C50.6897 13.3024 50.6063 13.2816 50.4707 13.2816H50.2725V13.7926H50.2621Z" fill="#225E63"/>
<path d="M51.8682 12.8123H52.5774V14.5435H53.683V15.1067H51.8682V12.8123Z" fill="#225E63"/>
<path d="M54.0374 12.8123H54.7466V15.1067H54.0374V12.8123Z" fill="#225E63"/>
<path d="M56.6658 14.7208H55.8627L55.748 15.0962H55.0284L55.894 12.8018H56.6658L57.5314 15.0962H56.7909L56.6658 14.7208ZM56.5198 14.2306L56.2695 13.4067L56.0191 14.2306H56.5198Z" fill="#225E63"/>
<path d="M57.7503 12.8123H58.4074L59.273 14.0846V12.8123H59.9405V15.1067H59.273L58.4178 13.8448V15.1067H57.7503V12.8123Z" fill="#225E63"/>
<path d="M60.2535 12.8123H62.4124V13.3754H61.6928V15.1067H60.9836V13.3754H60.2639V12.8123H60.2535Z" fill="#225E63"/>
<path d="M34.3676 16.3061L36.4222 15.6595L35.7547 14.1785C35.2645 14.7939 34.7743 15.5865 34.3676 16.3061ZM33.6688 9.53743L29.643 0.568115L0.169434 2.23683L8.33569 24.5141L24.0529 19.5601C23.0516 18.1209 22.6866 16.4104 23.8443 15.5761C25.1375 14.6374 27.0878 15.7221 28.3289 17.2552C29.5283 15.2528 32.897 10.5908 33.6688 9.53743Z" fill="#225E63"/>
<path d="M28.7248 7.04993C29.9555 7.04993 30.9567 6.11127 30.9567 4.94318C30.9567 3.77508 29.9555 2.83643 28.7248 2.83643C27.4941 2.83643 26.4929 3.77508 26.4929 4.94318C26.4929 6.10084 27.4941 7.04993 28.7248 7.04993ZM26.8997 7.95729H30.55V17.5002H26.8997V7.95729Z" fill="#FEFEFE"/>
<path d="M25.0953 10.7419C25.1265 10.7523 25.1474 10.7419 25.1474 10.7106V8.29094C25.1474 8.25965 25.1265 8.22836 25.0953 8.20751C25.0953 8.20751 24.6155 7.89462 23.1554 7.81119C23.0824 7.76947 21.7996 7.75904 21.4554 7.81119C16.1364 8.23879 15.9382 12.0873 15.9382 12.2541V13.1928C15.9382 13.3075 15.9382 17.2394 21.4554 17.5836C21.9977 17.6253 23.0511 17.5836 23.1554 17.5836C24.4278 17.5836 25.3038 17.1977 25.3038 17.1977C25.3351 17.1872 25.356 17.156 25.356 17.1247V14.8615C25.356 14.8302 25.3351 14.8198 25.3143 14.8406C25.3143 14.8406 24.918 15.1535 23.1867 15.3308C22.6965 15.383 22.4566 15.3621 22.2793 15.3308C19.818 14.9136 19.7032 13.1198 19.7032 13.1198C19.7032 13.0885 19.6928 13.0363 19.6928 13.0155V12.3271C19.6928 12.2958 19.6928 12.2437 19.7032 12.2228C19.7032 12.2228 19.8701 10.2934 22.2793 10.0848H23.1867C24.24 10.2204 25.0953 10.7419 25.0953 10.7419Z" fill="#FEFEFE"/>
<path d="M5.80078 17.4689C5.80078 17.5002 5.82164 17.521 5.85293 17.521H9.40937C9.44066 17.521 9.46152 17.5002 9.46152 17.4689V14.6947C9.46152 14.6634 9.48238 14.6425 9.51366 14.6425C9.51366 14.6425 15.1977 15.0493 15.1977 11.2425C15.1977 8.22839 11.6308 7.90508 10.4627 7.95723C10.4419 7.95723 5.85293 7.95723 5.85293 7.95723C5.82164 7.95723 5.80078 7.97809 5.80078 8.00937V17.4689ZM9.39894 12.5253V10.0327H10.275C10.275 10.0327 11.537 10.0848 11.6413 10.9505C11.6621 11.0131 11.6621 11.4407 11.6413 11.4615C11.4744 12.4732 10.3793 12.5253 10.3793 12.5253H9.39894Z" fill="#FEFEFE"/>
<path d="M28.8294 22.1049C29.1215 22.1049 29.3509 22.1049 29.7264 21.938C31.0196 21.2601 35.3896 10.5908 39.9994 7.30548C40.0307 7.28462 40.062 7.25333 40.0828 7.22205C40.1141 7.18033 40.1141 7.13861 40.1141 7.13861C40.1141 7.13861 40.1141 6.91959 39.4362 6.91959C35.3374 6.80487 31.0718 15.4092 28.8294 18.8092C28.7982 18.8509 28.6521 18.8092 28.6521 18.8092C28.6521 18.8092 27.1503 17.0362 25.8466 16.3582C25.8153 16.3478 25.6693 16.2957 25.5129 16.3061C25.4086 16.3061 24.8037 16.4312 24.5221 16.7233C24.1883 17.0779 24.1988 17.276 24.1988 17.7036C24.1988 17.7349 24.2196 17.8809 24.2613 17.9539C24.5847 18.5171 26.0344 20.5196 27.2337 21.6251C27.411 21.7607 27.6926 22.1049 28.8294 22.1049Z" fill="#2BBC5D"/>
<path d="M41.2093 4.08276H44.6198C45.2977 4.08276 45.84 4.17663 46.2467 4.35393C46.6639 4.54166 47.0081 4.8024 47.2688 5.13614C47.54 5.48031 47.7382 5.87663 47.8529 6.3251C47.978 6.77357 48.0406 7.25332 48.0406 7.76436C48.0406 8.557 47.9467 9.17234 47.7694 9.61038C47.5921 10.0484 47.3418 10.4134 47.0185 10.7159C46.6952 11.0079 46.351 11.2061 45.986 11.3104C45.4854 11.446 45.0265 11.5085 44.6198 11.5085H41.2093V4.08276ZM43.5038 5.76191V9.81897H44.067C44.5467 9.81897 44.8909 9.76682 45.0891 9.66253C45.2872 9.55823 45.4541 9.3705 45.5688 9.10977C45.6836 8.84903 45.7461 8.41099 45.7461 7.81651C45.7461 7.02387 45.621 6.49197 45.3602 6.19994C45.0995 5.90792 44.6823 5.76191 44.0774 5.76191H43.5038Z" fill="#225E63"/>
<path d="M48.6768 9.05769L50.867 8.9221C50.9191 9.2767 51.013 9.54787 51.159 9.7356C51.3989 10.0381 51.7326 10.1841 52.1707 10.1841C52.494 10.1841 52.7547 10.1111 52.932 9.95462C53.1093 9.79818 53.2032 9.62088 53.2032 9.42272C53.2032 9.23499 53.1197 9.05769 52.9529 8.90125C52.786 8.74481 52.3897 8.60922 51.7743 8.47364C50.7627 8.24419 50.0535 7.94174 49.6154 7.56628C49.1774 7.19082 48.9688 6.71107 48.9688 6.12702C48.9688 5.74113 49.0835 5.38653 49.3026 5.04236C49.5216 4.69819 49.8553 4.43745 50.3038 4.23929C50.7522 4.04113 51.3572 3.94727 52.1289 3.94727C53.078 3.94727 53.8081 4.12457 54.2983 4.47917C54.7989 4.83377 55.0909 5.39696 55.1848 6.16873L53.0154 6.29389C52.9529 5.96015 52.8381 5.72027 52.6504 5.56383C52.4627 5.40739 52.2124 5.33438 51.8891 5.33438C51.6179 5.33438 51.4197 5.38653 51.2842 5.50125C51.1486 5.61598 51.086 5.75156 51.086 5.91843C51.086 6.03315 51.1381 6.14788 51.2529 6.24174C51.3572 6.33561 51.6179 6.42947 52.0246 6.5129C53.0259 6.73192 53.7455 6.95094 54.1835 7.16996C54.6216 7.38898 54.9345 7.67057 55.1326 7.99389C55.3308 8.3172 55.4246 8.69266 55.4246 9.09941C55.4246 9.57916 55.2891 10.0172 55.0283 10.4135C54.7676 10.8203 54.3921 11.1227 53.9228 11.3313C53.4535 11.5399 52.8486 11.6442 52.1289 11.6442C50.867 11.6442 49.9909 11.4043 49.5007 10.9141C49.021 10.4239 48.7498 9.80861 48.6768 9.05769Z" fill="#225E63"/>
<path d="M56.0087 9.05769L58.1989 8.9221C58.251 9.2767 58.3449 9.54787 58.4909 9.7356C58.7308 10.0381 59.0645 10.1841 59.5026 10.1841C59.8259 10.1841 60.0866 10.1111 60.2639 9.95462C60.4412 9.79818 60.5351 9.62088 60.5351 9.42272C60.5351 9.23499 60.4516 9.05769 60.2848 8.90125C60.1179 8.74481 59.7216 8.60922 59.1062 8.47364C58.0946 8.24419 57.3854 7.94174 56.9473 7.56628C56.5197 7.19082 56.3007 6.71107 56.3007 6.12702C56.3007 5.74113 56.4154 5.38653 56.6345 5.04236C56.8535 4.69819 57.1872 4.43745 57.6357 4.23929C58.0842 4.04113 58.6891 3.94727 59.4608 3.94727C60.4099 3.94727 61.14 4.12457 61.6302 4.47917C62.1308 4.83377 62.4228 5.39696 62.5167 6.16873L60.3473 6.29389C60.2848 5.96015 60.17 5.72027 59.9823 5.56383C59.7946 5.40739 59.5443 5.33438 59.221 5.33438C58.9498 5.33438 58.7516 5.38653 58.6161 5.50125C58.4805 5.61598 58.4179 5.75156 58.4179 5.91843C58.4179 6.03315 58.4701 6.14788 58.5848 6.24174C58.6891 6.33561 58.9498 6.42947 59.3566 6.5129C60.3578 6.73192 61.0774 6.95094 61.5154 7.16996C61.9535 7.38898 62.2664 7.67057 62.4645 7.99389C62.6627 8.3172 62.7566 8.69266 62.7566 9.09941C62.7566 9.57916 62.621 10.0172 62.3602 10.4135C62.0995 10.8203 61.724 11.1227 61.2547 11.3313C60.7854 11.5399 60.1805 11.6442 59.4608 11.6442C58.1989 11.6442 57.3228 11.4043 56.8326 10.9141C56.3424 10.4239 56.0713 9.80861 56.0087 9.05769Z" fill="#225E63"/>
</svg>
