<svg width="50" height="25" viewBox="0 0 50 25" fill="none" xmlns="http://www.w3.org/2000/svg">
<g clip-path="url(#clip0_477_911)">
<path d="M2.67061 8.76043L0 0.572998H1.14273L2.41597 4.60782C2.7677 5.71243 3.07168 6.7088 3.28972 7.66856H3.31519C3.54596 6.71358 3.88655 5.68696 4.24942 4.61897L5.63407 0.574591H6.76248L3.83244 8.76043H2.67061Z" fill="#2A59A9"/>
<path d="M7.33383 6.01312C7.3593 7.45993 8.2808 8.05361 9.35032 8.05361C9.90863 8.0711 10.4641 7.96739 10.9785 7.74961L11.1535 8.52156C10.5344 8.77907 9.86789 8.90327 9.19753 8.88605C7.38635 8.88605 6.30569 7.6939 6.30569 5.92081C6.30569 4.14771 7.35134 2.75024 9.06225 2.75024C10.9832 2.75024 11.4941 4.44058 11.4941 5.51971C11.4919 5.68641 11.4791 5.8528 11.4559 6.0179L7.33383 6.01312ZM10.4676 5.24754C10.4819 4.56791 10.1891 3.50946 8.98586 3.50946C7.9052 3.50946 7.43092 4.50583 7.34497 5.24754H10.4676Z" fill="#2A59A9"/>
<path d="M12.3312 4.71284C12.3312 4.02207 12.3185 3.4252 12.2834 2.87768H13.2225L13.2575 4.03162H13.3052C13.5726 3.2358 14.2156 2.74398 14.935 2.74398C15.0369 2.74276 15.1386 2.75507 15.2374 2.78058V3.78969C15.1177 3.76337 14.9954 3.75109 14.8729 3.75308C14.1201 3.75308 13.5869 4.32448 13.4405 5.12508C13.4097 5.28995 13.3932 5.45715 13.3912 5.62486V8.7604H12.3312V4.71284Z" fill="#2A59A9"/>
<path d="M17.0582 1.22704C17.0582 1.40265 16.9884 1.57106 16.8643 1.69523C16.7401 1.81941 16.5717 1.88916 16.3961 1.88916C16.2205 1.88916 16.0521 1.81941 15.9279 1.69523C15.8038 1.57106 15.734 1.40265 15.734 1.22704C15.7322 1.13872 15.7485 1.05096 15.7817 0.969102C15.8149 0.887249 15.8645 0.813014 15.9273 0.750921C15.9901 0.688828 16.0649 0.640173 16.1472 0.607921C16.2294 0.575669 16.3174 0.560496 16.4057 0.563321C16.4935 0.560585 16.5809 0.576048 16.6624 0.608742C16.7439 0.641436 16.8178 0.690651 16.8794 0.753291C16.941 0.815932 16.989 0.890642 17.0203 0.972721C17.0516 1.0548 17.0656 1.14247 17.0614 1.23022L17.0582 1.22704ZM15.8693 2.88235H16.9404V8.7619H15.8693V2.88235Z" fill="#2A59A9"/>
<path d="M18.333 8.76037V3.69257H17.507V2.87924H18.333V2.59911C18.333 1.77305 18.5161 1.0202 19.0126 0.545886C19.4011 0.184786 19.9148 -0.0110069 20.445 -5.21751e-05C20.7565 -0.0010791 21.0653 0.0567024 21.3554 0.170255L21.2105 0.99632C20.9958 0.903216 20.7633 0.858133 20.5294 0.864216C19.619 0.864216 19.3898 1.66004 19.3898 2.56568V2.88401H20.8095V3.69735H19.3898V8.76037H18.333Z" fill="#2A59A9"/>
<path d="M23.0535 1.22727C23.0535 1.40287 22.9838 1.57129 22.8596 1.69546C22.7355 1.81963 22.5671 1.88939 22.3915 1.88939C22.2159 1.88939 22.0475 1.81963 21.9233 1.69546C21.7991 1.57129 21.7294 1.40287 21.7294 1.22727C21.7274 1.13902 21.7434 1.05128 21.7763 0.969378C21.8092 0.887473 21.8584 0.813099 21.9209 0.750755C21.9834 0.688411 22.0579 0.639392 22.1398 0.606668C22.2218 0.573943 22.3096 0.558193 22.3978 0.560368C22.4856 0.557631 22.573 0.573094 22.6546 0.605788C22.7361 0.638482 22.81 0.687697 22.8716 0.750337C22.9332 0.812978 22.9811 0.887688 23.0125 0.969767C23.0438 1.05185 23.0578 1.13952 23.0535 1.22727ZM21.8647 2.87939H22.931V8.75894H21.8647V2.87939Z" fill="#2A59A9"/>
<path d="M24.817 6.01312C24.8424 7.45993 25.7639 8.05361 26.8335 8.05361C27.3918 8.0712 27.9472 7.96748 28.4616 7.74961L28.6446 8.52156C28.0255 8.77907 27.359 8.90327 26.6886 8.88605C24.8774 8.88605 23.7968 7.6939 23.7968 5.92081C23.7968 4.14771 24.8424 2.75024 26.5517 2.75024C28.4727 2.75024 28.982 4.44058 28.982 5.51971C28.9804 5.68644 28.9676 5.85287 28.9438 6.0179L24.817 6.01312ZM27.9507 5.24754C27.9619 4.56791 27.6706 3.50946 26.469 3.50946C25.3883 3.50946 24.9156 4.50583 24.8281 5.24754H27.9507Z" fill="#2A59A9"/>
<path d="M34.901 0.135254V7.24037C34.901 7.76402 34.9122 8.35452 34.9488 8.76039H33.9938L33.9445 7.74014H33.9127C33.5848 8.3959 32.8702 8.89249 31.9089 8.89249C30.4876 8.89249 29.3959 7.68921 29.3959 5.90338C29.3831 3.94725 30.5991 2.74555 32.0315 2.74555C32.9291 2.74555 33.5371 3.17211 33.8028 3.64483H33.8283V0.135254H34.901ZM33.8299 5.27309C33.832 5.12158 33.816 4.97036 33.7822 4.82266C33.7056 4.4709 33.5108 4.15604 33.2301 3.93067C32.9494 3.70529 32.5999 3.58305 32.2399 3.58435C31.1259 3.58435 30.4781 4.55526 30.4781 5.85723C30.4781 7.04778 31.059 8.03142 32.2161 8.03142C32.5834 8.03028 32.9392 7.90327 33.2241 7.67156C33.5091 7.43985 33.7061 7.11744 33.7822 6.7581C33.8174 6.60739 33.8334 6.45284 33.8299 6.29811V5.27309Z" fill="#2A59A9"/>
<path d="M38.8576 8.76039C38.8831 8.3577 38.9053 7.76402 38.9053 7.24037V0.135254H39.9605V3.82788H39.9844C40.3616 3.17212 41.0412 2.74715 41.9898 2.74715C43.4476 2.74715 44.4789 3.96317 44.4694 5.7474C44.4694 7.84838 43.1436 8.89409 41.8322 8.89409C40.9807 8.89409 40.3011 8.56621 39.8635 7.78948H39.8284L39.7775 8.76039H38.8576ZM39.9717 6.40316C39.9749 6.53395 39.9915 6.66408 40.021 6.79152C40.1091 7.14828 40.3138 7.46535 40.6028 7.69232C40.8918 7.9193 41.2483 8.04314 41.6158 8.04415C42.7298 8.04415 43.4015 7.13373 43.4015 5.78401C43.4015 4.60619 42.7935 3.59709 41.6508 3.59709C41.2724 3.60414 40.907 3.73681 40.6123 3.97424C40.3175 4.21166 40.1101 4.54036 40.0226 4.9086C39.9867 5.04923 39.9659 5.1933 39.9605 5.33835L39.9717 6.40316Z" fill="#2A59A9"/>
<path d="M45.6393 2.87939L46.9268 6.35556C47.0605 6.74392 47.2069 7.20549 47.3024 7.55884H47.3263C47.4377 7.20709 47.5571 6.76301 47.7051 6.33168L48.8733 2.87939H50.0049L48.3958 7.0702C47.6319 9.08682 47.1083 10.1198 46.3793 10.7517C46.0091 11.0919 45.5574 11.3309 45.0679 11.4456L44.8005 10.5464C45.1431 10.4333 45.4608 10.2556 45.7363 10.0227C46.1243 9.70092 46.4322 9.29334 46.6356 8.83216C46.6784 8.75287 46.7069 8.66667 46.7199 8.57749C46.7106 8.48081 46.6859 8.38624 46.6467 8.29736L44.4727 2.88576L45.6393 2.87939Z" fill="#2A59A9"/>
<path d="M17.7313 12.7715L14.4957 20.9669L13.1842 13.9986C13.1314 13.6567 12.9579 13.345 12.6952 13.1199C12.4324 12.8948 12.0978 12.7712 11.7519 12.7715H6.44564L6.37402 13.1201C7.46105 13.3588 8.69609 13.7392 9.4457 14.1435C9.90407 14.395 10.0346 14.613 10.1826 15.2051L12.6686 24.8123H15.9615L21.0067 12.7715H17.7313Z" fill="#2A59A9"/>
<path d="M22.3405 12.7698L19.7654 24.8106H22.8817L25.4504 12.7698H22.3405Z" fill="#2A59A9"/>
<path d="M29.5391 16.109C29.5486 15.6776 29.9609 15.2192 30.8601 15.0967C31.9138 14.9992 32.9743 15.1855 33.9318 15.6362L34.4777 13.0896C33.5465 12.7388 32.5602 12.5572 31.5651 12.5532C28.4855 12.5532 26.3226 14.1926 26.3003 16.5323C26.2844 18.2625 27.8489 19.2381 29.0266 19.8079C30.241 20.3969 30.65 20.7741 30.642 21.3057C30.642 22.1142 29.6744 22.4676 28.7815 22.4803C27.2138 22.5058 26.3067 22.0585 25.5809 21.7227L25.0191 24.3601C25.7433 24.6927 27.0881 24.984 28.4839 24.9967C31.7498 24.9967 33.8952 23.378 33.8952 20.8775C33.9079 17.6942 29.5025 17.5239 29.5327 16.1026" fill="#2A59A9"/>
<path d="M38.5552 20.5481L40.2104 16.0262L41.1414 20.5481H38.5552ZM39.7377 12.7713C39.4534 12.7685 39.1748 12.8512 38.9381 13.0088C38.7014 13.1663 38.5176 13.3913 38.4104 13.6547L33.7392 24.8105H37.0114L37.6607 23.012H41.6396L42.0136 24.8105H44.9007L42.3972 12.7713H39.7377Z" fill="#2A59A9"/>
</g>
<defs>
<clipPath id="clip0_477_911">
<rect width="50" height="25" fill="white"/>
</clipPath>
</defs>
</svg>
